<?xml version="1.0" encoding="utf-8"?><svg version="1.1" id="Layer_1" xmlns="http://www.w3.org/2000/svg" xmlns:xlink="http://www.w3.org/1999/xlink" x="0px" y="0px" viewBox="0 0 122.879 76.794" enable-background="new 0 0 122.879 76.794" xml:space="preserve"><g><path fill="#00A8E1" d="M1.773,44.858c-0.331,0.016-0.654-0.094-0.906-0.307c-0.215-0.257-0.315-0.59-0.276-0.922V12.31 c-0.039-0.332,0.062-0.665,0.276-0.921c0.254-0.193,0.571-0.286,0.891-0.261l3.409,0c0.645-0.065,1.225,0.389,1.32,1.028 l0.338,1.229c0.981-0.947,2.14-1.693,3.408-2.196c1.298-0.525,2.684-0.797,4.084-0.798c2.791-0.092,5.459,1.15,7.186,3.347 c1.901,2.619,2.845,5.811,2.671,9.042c0.052,2.346-0.397,4.675-1.32,6.832c-0.761,1.797-1.999,3.352-3.577,4.499 c-1.526,1.041-3.342,1.578-5.189,1.536c-1.255,0.006-2.501-0.202-3.685-0.614c-1.088-0.366-2.094-0.939-2.962-1.688v10.318 c0.034,0.328-0.059,0.658-0.261,0.922c-0.263,0.202-0.592,0.294-0.921,0.261L1.773,44.858L1.773,44.858z M116.689,55.298 c-1.719-2.195-11.36-1.044-15.706-0.521c-1.32,0.153-1.535-0.982-0.338-1.812c7.677-5.404,20.313-3.839,21.771-2.027 c1.459,1.812-0.383,14.447-7.676,20.48c-1.105,0.922-2.165,0.431-1.674-0.798C114.709,66.49,118.349,57.433,116.689,55.298 L116.689,55.298z M111.024,61.608c-13.449,9.918-32.947,15.185-49.728,15.185c-22.425,0.119-44.088-8.13-60.752-23.138 c-1.259-1.136-0.138-2.687,1.382-1.812c18.512,10.571,39.465,16.122,60.782,16.105c15.907-0.085,31.643-3.304,46.305-9.473 C111.348,57.509,113.25,59.904,111.024,61.608L111.024,61.608z M113.496,35.861c-3.309,0.217-6.559-0.944-8.98-3.208 c-2.216-2.537-3.323-5.854-3.071-9.212c-0.221-3.48,0.899-6.915,3.132-9.596c2.326-2.401,5.583-3.673,8.92-3.485 c2.47-0.147,4.907,0.606,6.863,2.119c1.655,1.412,2.567,3.508,2.472,5.681c0.112,2.126-0.902,4.156-2.671,5.343 c-2.382,1.36-5.109,1.99-7.846,1.812c-1.551,0.019-3.098-0.157-4.606-0.522c0.01,1.698,0.694,3.323,1.904,4.514 c1.433,1.017,3.177,1.5,4.928,1.367c0.857,0,1.714-0.057,2.564-0.169c1.17-0.181,2.328-0.428,3.471-0.737l0.275,0h0.23 c0.532,0,0.798,0.363,0.798,1.09v2.165c0.029,0.367-0.044,0.734-0.215,1.06c-0.218,0.257-0.506,0.442-0.829,0.538 C118.486,35.481,115.999,35.904,113.496,35.861L113.496,35.861z M111.961,21.076c1.208,0.088,2.417-0.167,3.485-0.737 c0.734-0.502,1.148-1.354,1.091-2.242c0-1.976-1.178-2.963-3.531-2.963c-3.02,0-4.765,1.854-5.235,5.558 c1.371,0.262,2.765,0.392,4.16,0.383H111.961L111.961,21.076z M61.573,35.155c-0.549,0.103-1.08-0.259-1.182-0.811 c-0.023-0.123-0.023-0.249,0-0.372l0-21.663c-0.038-0.332,0.062-0.665,0.276-0.921c0.254-0.193,0.571-0.286,0.891-0.261l3.393,0 c0.645-0.064,1.225,0.389,1.32,1.029l0.383,1.274c1.397-0.962,2.908-1.746,4.499-2.333c1.313-0.458,2.692-0.696,4.083-0.707 c2.42-0.208,4.745,0.986,5.988,3.071c1.401-0.964,2.925-1.738,4.529-2.303c1.415-0.472,2.898-0.709,4.391-0.707 c1.886-0.114,3.734,0.553,5.112,1.842c1.271,1.394,1.926,3.244,1.813,5.128v16.566c0.024,0.319-0.068,0.636-0.262,0.891 c-0.256,0.214-0.59,0.314-0.921,0.276l-4.467,0c-0.55,0.103-1.079-0.259-1.182-0.811c-0.023-0.123-0.023-0.249,0-0.372V18.866 c0-2.139-0.957-3.209-2.871-3.209c-1.784,0.02-3.542,0.441-5.144,1.229v17.103c0.025,0.319-0.066,0.636-0.262,0.891 c-0.256,0.214-0.589,0.314-0.921,0.276l-4.514,0c-0.55,0.103-1.079-0.259-1.182-0.811c-0.023-0.123-0.023-0.249,0-0.372V18.866 c0-2.139-0.957-3.209-2.871-3.209c-1.807,0.011-3.584,0.449-5.189,1.275v17.042c0.024,0.319-0.067,0.636-0.262,0.891 c-0.256,0.215-0.589,0.315-0.921,0.276L61.573,35.155L61.573,35.155z M51.118,7.381c-1.047,0.052-2.075-0.299-2.872-0.982 c-0.74-0.692-1.138-1.675-1.09-2.687c-0.052-1.018,0.345-2.007,1.09-2.703c1.683-1.346,4.075-1.346,5.757,0 c0.74,0.692,1.138,1.675,1.09,2.687c0.048,1.012-0.35,1.994-1.09,2.687C53.206,7.075,52.172,7.434,51.118,7.381L51.118,7.381z M48.861,35.17c-0.55,0.103-1.08-0.259-1.182-0.811c-0.023-0.123-0.023-0.249,0-0.372V12.31c-0.038-0.332,0.062-0.665,0.276-0.921 c0.255-0.193,0.571-0.286,0.891-0.261l4.529,0c0.329-0.034,0.659,0.059,0.922,0.261c0.202,0.262,0.294,0.592,0.261,0.921v21.678 c0.026,0.319-0.066,0.636-0.261,0.891c-0.257,0.214-0.59,0.314-0.922,0.276L48.861,35.17L48.861,35.17z M30.007,35.155 c-0.549,0.103-1.079-0.259-1.182-0.811c-0.023-0.123-0.023-0.249,0-0.372V12.31c-0.039-0.332,0.062-0.665,0.276-0.921 c0.255-0.193,0.571-0.286,0.891-0.261l3.393,0c0.645-0.064,1.225,0.389,1.32,1.029l0.615,2.518 c1.009-1.181,2.214-2.179,3.562-2.948c1.099-0.576,2.322-0.875,3.562-0.875h0.661c0.333-0.029,0.666,0.063,0.937,0.261 c0.214,0.257,0.314,0.59,0.276,0.922v3.96c0.026,0.319-0.066,0.635-0.261,0.891c-0.257,0.214-0.59,0.314-0.922,0.276H42.29 c-0.349,0-0.787,0-1.32,0c-0.887,0.019-1.771,0.121-2.641,0.307c-0.906,0.167-1.79,0.43-2.641,0.783v15.737 c0.024,0.319-0.067,0.636-0.261,0.891c-0.256,0.214-0.589,0.314-0.921,0.276H30.007L30.007,35.155z M12.105,30.487 c1.517,0.109,2.985-0.569,3.884-1.796c0.957-1.717,1.39-3.676,1.244-5.635c0.147-1.978-0.279-3.955-1.228-5.696 c-0.903-1.239-2.386-1.919-3.916-1.796c-1.623,0.001-3.213,0.44-4.606,1.274l0,12.36c1.382,0.86,2.979,1.312,4.606,1.305 L12.105,30.487L12.105,30.487z"/></g></svg>