<svg xmlns="http://www.w3.org/2000/svg" shape-rendering="geometricPrecision" text-rendering="geometricPrecision" image-rendering="optimizeQuality" fill-rule="evenodd" clip-rule="evenodd" viewBox="0 0 512 433.6"><path fill="#1A1A1A" fill-rule="nonzero" d="M359.785 124.707a172.966 172.966 0 00-9.415 5.044c-9.373 5.498-18.625 12.21-28.081 19.915l-20.169-23.081a166.847 166.847 0 0122.501-17.54 154.74 154.74 0 0119.918-11.042 148.086 148.086 0 018.33-3.876c-13.29-23.542-32.416-40.415-54.082-50.832-43.064-20.618-96.686-16.131-134.618 13.331-21.792 16.873-38.336 42.127-44.71 75.583l-2.002 10.456-10.415 1.835c-10.209 1.791-19.331 4.252-27.332 7.376-7.75 2.999-14.666 6.708-20.707 11.083-4.835 3.5-9.002 7.418-12.543 11.668-10.958 13.123-16.043 29.579-15.918 46.248.124 16.914 5.628 33.996 15.792 48.037 3.792 5.21 8.169 10.004 13.166 14.171a66.257 66.257 0 0017.211 10.333c6.374 2.623 13.415 4.496 21.207 5.581h11.335a148.445 148.445 0 00.763 30.668H97.417l-1.918-.167c-11.121-1.419-21.207-4.042-30.372-7.834-9.462-3.917-17.832-8.961-25.208-15.126-7-5.831-13.128-12.46-18.333-19.668C7.671 267.707.171 244.289.003 220.959c-.166-23.586 7.167-47.041 23.001-66.041 5.123-6.166 11.163-11.835 18.078-16.833 8.043-5.835 17.254-10.749 27.67-14.791 7.166-2.795 14.834-5.127 22.913-6.999 9.169-36.417 28.712-64.461 53.837-83.917C192.57-4.098 258.606-9.919 312.039 15.751c29.204 14.045 54.703 37.418 71.248 70.293 6.666-1.044 13.332-1.586 19.955-1.503 69.259.514 109.454 59.525 108.748 124.041-.292 26.293-7.374 52.46-21.874 71.706-9.457 12.544-21.583 22.792-36.124 30.918-13.999 7.834-30.331 13.79-48.664 18.042l-3.341.407a148.641 148.641 0 001.219-19.008c0-4.132-.179-8.221-.512-12.267 13.688-3.476 25.846-8.068 36.256-13.883 10.958-6.124 19.919-13.583 26.626-22.542 10.415-13.874 15.542-33.496 15.751-53.624.561-47.211-26.496-92.875-78.292-93.204-14.292-.126-29.167 3.332-43.25 9.58z"/><path fill="#3B95F6" d="M255.999 187.698c67.902 0 122.952 55.049 122.952 122.95 0 67.902-55.05 122.952-122.952 122.952-67.901 0-122.95-55.05-122.95-122.952 0-67.901 55.049-122.95 122.95-122.95z"/><path fill="#fff" fill-rule="nonzero" d="M206.424 299.319c-3.8.162-6.501 1.423-8.057 3.793-4.23 6.339 1.542 12.603 5.548 17.017 11.364 12.471 39.216 42.448 44.824 49.045 4.25 4.7 10.302 4.7 14.552 0 5.793-6.768 35.047-38.109 45.85-50.241 3.748-4.22 8.383-9.977 4.479-15.821-1.594-2.37-4.266-3.631-8.065-3.793h-23.069v-39.633c0-6.09-4.996-11.087-11.088-11.087H240.59c-6.095 0-11.088 4.99-11.088 11.087v39.633h-23.078z"/></svg>