<?xml version="1.0" encoding="utf-8"?><svg version="1.1" id="Layer_1" xmlns="http://www.w3.org/2000/svg" xmlns:xlink="http://www.w3.org/1999/xlink" x="0px" y="0px" viewBox="0 0 122.88 122.88" style="enable-background:new 0 0 122.88 122.88" xml:space="preserve"><style type="text/css"><![CDATA[
	.st0{clip-path:url(#SVGID_2_);fill-rule:evenodd;clip-rule:evenodd;fill:#446EFF;}
	.st1{clip-path:url(#SVGID_2_);fill-rule:evenodd;clip-rule:evenodd;fill:#466CFF;}
	.st2{clip-path:url(#SVGID_2_);fill-rule:evenodd;clip-rule:evenodd;fill:#7A4BFF;}
	.st3{clip-path:url(#SVGID_2_);fill-rule:evenodd;clip-rule:evenodd;fill:#AB36F1;}
	.st4{clip-path:url(#SVGID_2_);fill-rule:evenodd;clip-rule:evenodd;fill:#486BFF;}
	.st5{clip-path:url(#SVGID_2_);fill-rule:evenodd;clip-rule:evenodd;fill:#7C4AFF;}
	.st6{clip-path:url(#SVGID_2_);fill-rule:evenodd;clip-rule:evenodd;fill:#AD37EE;}
	.st7{clip-path:url(#SVGID_2_);fill-rule:evenodd;clip-rule:evenodd;fill:#7E49FF;}
	.st8{clip-path:url(#SVGID_2_);fill-rule:evenodd;clip-rule:evenodd;fill:#118EFF;}
	.st9{clip-path:url(#SVGID_2_);fill-rule:evenodd;clip-rule:evenodd;fill:#AF38EB;}
	.st10{clip-path:url(#SVGID_2_);fill-rule:evenodd;clip-rule:evenodd;fill:#E048A9;}
	.st11{clip-path:url(#SVGID_2_);fill-rule:evenodd;clip-rule:evenodd;fill:#138DFF;}
	.st12{clip-path:url(#SVGID_2_);fill-rule:evenodd;clip-rule:evenodd;fill:#E349A6;}
	.st13{clip-path:url(#SVGID_2_);fill-rule:evenodd;clip-rule:evenodd;fill:#158CFF;}
	.st14{clip-path:url(#SVGID_2_);fill-rule:evenodd;clip-rule:evenodd;fill:#4A6AFF;}
	.st15{clip-path:url(#SVGID_2_);fill-rule:evenodd;clip-rule:evenodd;fill:#E54AA3;}
	.st16{clip-path:url(#SVGID_2_);fill-rule:evenodd;clip-rule:evenodd;fill:#178BFF;}
	.st17{clip-path:url(#SVGID_2_);fill-rule:evenodd;clip-rule:evenodd;fill:#4C68FF;}
	.st18{clip-path:url(#SVGID_2_);fill-rule:evenodd;clip-rule:evenodd;fill:#E74AA0;}
	.st19{clip-path:url(#SVGID_2_);fill-rule:evenodd;clip-rule:evenodd;fill:#1989FF;}
	.st20{clip-path:url(#SVGID_2_);fill-rule:evenodd;clip-rule:evenodd;fill:#4E67FF;}
	.st21{clip-path:url(#SVGID_2_);fill-rule:evenodd;clip-rule:evenodd;fill:#8047FF;}
	.st22{clip-path:url(#SVGID_2_);fill-rule:evenodd;clip-rule:evenodd;fill:#8246FF;}
	.st23{clip-path:url(#SVGID_2_);fill-rule:evenodd;clip-rule:evenodd;fill:#B239E7;}
	.st24{clip-path:url(#SVGID_2_);fill-rule:evenodd;clip-rule:evenodd;fill:#8445FF;}
	.st25{clip-path:url(#SVGID_2_);fill-rule:evenodd;clip-rule:evenodd;fill:#B43AE4;}
	.st26{clip-path:url(#SVGID_2_);fill-rule:evenodd;clip-rule:evenodd;fill:#8643FF;}
	.st27{clip-path:url(#SVGID_2_);fill-rule:evenodd;clip-rule:evenodd;fill:#1B88FF;}
	.st28{clip-path:url(#SVGID_2_);fill-rule:evenodd;clip-rule:evenodd;fill:#B63AE1;}
	.st29{clip-path:url(#SVGID_2_);fill-rule:evenodd;clip-rule:evenodd;fill:#EA4B9C;}
	.st30{clip-path:url(#SVGID_2_);fill-rule:evenodd;clip-rule:evenodd;fill:#8842FF;}
	.st31{clip-path:url(#SVGID_2_);fill-rule:evenodd;clip-rule:evenodd;fill:#1D87FF;}
	.st32{clip-path:url(#SVGID_2_);fill-rule:evenodd;clip-rule:evenodd;fill:#EC4C99;}
	.st33{clip-path:url(#SVGID_2_);fill-rule:evenodd;clip-rule:evenodd;fill:#B93BDE;}
	.st34{clip-path:url(#SVGID_2_);fill-rule:evenodd;clip-rule:evenodd;fill:#1F85FF;}
	.st35{clip-path:url(#SVGID_2_);fill-rule:evenodd;clip-rule:evenodd;fill:#EE4D96;}
	.st36{clip-path:url(#SVGID_2_);fill-rule:evenodd;clip-rule:evenodd;fill:#5166FF;}
	.st37{clip-path:url(#SVGID_2_);fill-rule:evenodd;clip-rule:evenodd;fill:#5364FF;}
	.st38{clip-path:url(#SVGID_2_);fill-rule:evenodd;clip-rule:evenodd;fill:#5563FF;}
	.st39{clip-path:url(#SVGID_2_);fill-rule:evenodd;clip-rule:evenodd;fill:#8A41FF;}
	.st40{clip-path:url(#SVGID_2_);fill-rule:evenodd;clip-rule:evenodd;fill:#5762FF;}
	.st41{clip-path:url(#SVGID_2_);fill-rule:evenodd;clip-rule:evenodd;fill:#BB3CDB;}
	.st42{clip-path:url(#SVGID_2_);fill-rule:evenodd;clip-rule:evenodd;fill:#8C3FFF;}
	.st43{clip-path:url(#SVGID_2_);fill-rule:evenodd;clip-rule:evenodd;fill:#5960FF;}
	.st44{clip-path:url(#SVGID_2_);fill-rule:evenodd;clip-rule:evenodd;fill:#BD3DD8;}
	.st45{clip-path:url(#SVGID_2_);fill-rule:evenodd;clip-rule:evenodd;fill:#8F3EFF;}
	.st46{clip-path:url(#SVGID_2_);fill-rule:evenodd;clip-rule:evenodd;fill:#2184FF;}
	.st47{clip-path:url(#SVGID_2_);fill-rule:evenodd;clip-rule:evenodd;fill:#F14D93;}
	.st48{clip-path:url(#SVGID_2_);fill-rule:evenodd;clip-rule:evenodd;fill:#2383FF;}
	.st49{clip-path:url(#SVGID_2_);fill-rule:evenodd;clip-rule:evenodd;fill:#F34E90;}
	.st50{clip-path:url(#SVGID_2_);fill-rule:evenodd;clip-rule:evenodd;fill:#2581FF;}
	.st51{clip-path:url(#SVGID_2_);fill-rule:evenodd;clip-rule:evenodd;fill:#F54F8D;}
	.st52{clip-path:url(#SVGID_2_);fill-rule:evenodd;clip-rule:evenodd;fill:#2780FF;}
	.st53{clip-path:url(#SVGID_2_);fill-rule:evenodd;clip-rule:evenodd;fill:#5B5FFF;}
	.st54{clip-path:url(#SVGID_2_);fill-rule:evenodd;clip-rule:evenodd;fill:#297FFF;}
	.st55{clip-path:url(#SVGID_2_);fill-rule:evenodd;clip-rule:evenodd;fill:#5D5EFF;}
	.st56{clip-path:url(#SVGID_2_);fill-rule:evenodd;clip-rule:evenodd;fill:#F8508A;}
	.st57{clip-path:url(#SVGID_2_);fill-rule:evenodd;clip-rule:evenodd;fill:#5F5CFF;}
	.st58{clip-path:url(#SVGID_2_);fill-rule:evenodd;clip-rule:evenodd;fill:#C03DD5;}
	.st59{clip-path:url(#SVGID_2_);fill-rule:evenodd;clip-rule:evenodd;fill:#913DFF;}
	.st60{clip-path:url(#SVGID_2_);fill-rule:evenodd;clip-rule:evenodd;fill:#C23ED2;}
	.st61{clip-path:url(#SVGID_2_);fill-rule:evenodd;clip-rule:evenodd;fill:#933CFF;}
	.st62{clip-path:url(#SVGID_2_);fill-rule:evenodd;clip-rule:evenodd;fill:#C43FCE;}
	.st63{clip-path:url(#SVGID_2_);fill-rule:evenodd;clip-rule:evenodd;fill:#953AFF;}
	.st64{clip-path:url(#SVGID_2_);fill-rule:evenodd;clip-rule:evenodd;fill:#2B7DFF;}
	.st65{clip-path:url(#SVGID_2_);fill-rule:evenodd;clip-rule:evenodd;fill:#9739FF;}
	.st66{clip-path:url(#SVGID_2_);fill-rule:evenodd;clip-rule:evenodd;fill:#FA5087;}
	.st67{clip-path:url(#SVGID_2_);fill-rule:evenodd;clip-rule:evenodd;fill:#C740CB;}
	.st68{clip-path:url(#SVGID_2_);fill-rule:evenodd;clip-rule:evenodd;fill:#2D7CFF;}
	.st69{clip-path:url(#SVGID_2_);fill-rule:evenodd;clip-rule:evenodd;fill:#9938FF;}
	.st70{clip-path:url(#SVGID_2_);fill-rule:evenodd;clip-rule:evenodd;fill:#FC5183;}
	.st71{clip-path:url(#SVGID_2_);fill-rule:evenodd;clip-rule:evenodd;fill:#C940C8;}
	.st72{fill:#FFFFFF;}
	.st73{clip-path:url(#SVGID_2_);fill-rule:evenodd;clip-rule:evenodd;fill:#615BFF;}
	.st74{clip-path:url(#SVGID_2_);fill-rule:evenodd;clip-rule:evenodd;fill:#FF5280;}
	.st75{clip-path:url(#SVGID_2_);fill-rule:evenodd;clip-rule:evenodd;fill:#FF557D;}
	.st76{clip-path:url(#SVGID_2_);fill-rule:evenodd;clip-rule:evenodd;fill:#FF5879;}
	.st77{clip-path:url(#SVGID_2_);fill-rule:evenodd;clip-rule:evenodd;fill:#FF5C76;}
	.st78{clip-path:url(#SVGID_2_);fill-rule:evenodd;clip-rule:evenodd;fill:#FF5F72;}
	.st79{clip-path:url(#SVGID_2_);fill-rule:evenodd;clip-rule:evenodd;fill:#FF636F;}
	.st80{clip-path:url(#SVGID_2_);fill-rule:evenodd;clip-rule:evenodd;fill:#FF666B;}
	.st81{clip-path:url(#SVGID_2_);fill-rule:evenodd;clip-rule:evenodd;fill:#FF6968;}
	.st82{clip-path:url(#SVGID_2_);fill-rule:evenodd;clip-rule:evenodd;fill:#FF6D64;}
	.st83{clip-path:url(#SVGID_2_);fill-rule:evenodd;clip-rule:evenodd;fill:#FF7061;}
	.st84{clip-path:url(#SVGID_2_);fill-rule:evenodd;clip-rule:evenodd;fill:#635AFF;}
	.st85{clip-path:url(#SVGID_2_);fill-rule:evenodd;clip-rule:evenodd;fill:#6558FF;}
	.st86{clip-path:url(#SVGID_2_);fill-rule:evenodd;clip-rule:evenodd;fill:#6757FF;}
	.st87{clip-path:url(#SVGID_2_);fill-rule:evenodd;clip-rule:evenodd;fill:#9B36FF;}
	.st88{clip-path:url(#SVGID_2_);fill-rule:evenodd;clip-rule:evenodd;fill:#CB41C5;}
	.st89{clip-path:url(#SVGID_2_);fill-rule:evenodd;clip-rule:evenodd;fill:#6956FF;}
	.st90{clip-path:url(#SVGID_2_);fill-rule:evenodd;clip-rule:evenodd;fill:#9D35FF;}
	.st91{clip-path:url(#SVGID_2_);fill-rule:evenodd;clip-rule:evenodd;fill:#307BFF;}
	.st92{clip-path:url(#SVGID_2_);fill-rule:evenodd;clip-rule:evenodd;fill:#CE42C2;}
	.st93{clip-path:url(#SVGID_2_);fill-rule:evenodd;clip-rule:evenodd;fill:#9F34FF;}
	.st94{clip-path:url(#SVGID_2_);fill-rule:evenodd;clip-rule:evenodd;fill:#3279FF;}
	.st95{clip-path:url(#SVGID_2_);fill-rule:evenodd;clip-rule:evenodd;fill:#3478FF;}
	.st96{clip-path:url(#SVGID_2_);fill-rule:evenodd;clip-rule:evenodd;fill:#3677FF;}
	.st97{clip-path:url(#SVGID_2_);fill-rule:evenodd;clip-rule:evenodd;fill:#6B55FF;}
	.st98{clip-path:url(#SVGID_2_);fill-rule:evenodd;clip-rule:evenodd;fill:#3875FF;}
	.st99{clip-path:url(#SVGID_2_);fill-rule:evenodd;clip-rule:evenodd;fill:#6D53FF;}
	.st100{clip-path:url(#SVGID_2_);fill-rule:evenodd;clip-rule:evenodd;fill:#0099FF;}
	.st101{clip-path:url(#SVGID_2_);fill-rule:evenodd;clip-rule:evenodd;fill:#D043BF;}
	.st102{clip-path:url(#SVGID_2_);fill-rule:evenodd;clip-rule:evenodd;fill:#0298FF;}
	.st103{clip-path:url(#SVGID_2_);fill-rule:evenodd;clip-rule:evenodd;fill:#D243BC;}
	.st104{clip-path:url(#SVGID_2_);fill-rule:evenodd;clip-rule:evenodd;fill:#0496FF;}
	.st105{clip-path:url(#SVGID_2_);fill-rule:evenodd;clip-rule:evenodd;fill:#0695FF;}
	.st106{clip-path:url(#SVGID_2_);fill-rule:evenodd;clip-rule:evenodd;fill:#3A74FF;}
	.st107{clip-path:url(#SVGID_2_);fill-rule:evenodd;clip-rule:evenodd;fill:#D544B9;}
	.st108{clip-path:url(#SVGID_2_);fill-rule:evenodd;clip-rule:evenodd;fill:#0894FF;}
	.st109{clip-path:url(#SVGID_2_);fill-rule:evenodd;clip-rule:evenodd;fill:#3C73FF;}
	.st110{clip-path:url(#SVGID_2_);fill-rule:evenodd;clip-rule:evenodd;fill:#D745B5;}
	.st111{clip-path:url(#SVGID_2_);fill-rule:evenodd;clip-rule:evenodd;fill:#3E72FF;}
	.st112{clip-path:url(#SVGID_2_);fill-rule:evenodd;clip-rule:evenodd;fill:#D946B2;}
	.st113{clip-path:url(#SVGID_2_);fill-rule:evenodd;clip-rule:evenodd;fill:#7052FF;}
	.st114{clip-path:url(#SVGID_2_);fill-rule:evenodd;clip-rule:evenodd;fill:#A133FD;}
	.st115{clip-path:url(#SVGID_2_);fill-rule:evenodd;clip-rule:evenodd;fill:#7251FF;}
	.st116{clip-path:url(#SVGID_2_);fill-rule:evenodd;clip-rule:evenodd;fill:#744FFF;}
	.st117{clip-path:url(#SVGID_2_);fill-rule:evenodd;clip-rule:evenodd;fill:#A434FA;}
	.st118{clip-path:url(#SVGID_2_);fill-rule:evenodd;clip-rule:evenodd;fill:#0A92FF;}
	.st119{clip-path:url(#SVGID_2_);fill-rule:evenodd;clip-rule:evenodd;fill:#764EFF;}
	.st120{clip-path:url(#SVGID_2_);fill-rule:evenodd;clip-rule:evenodd;fill:#A635F7;}
	.st121{clip-path:url(#SVGID_2_);fill-rule:evenodd;clip-rule:evenodd;fill:#0C91FF;}
	.st122{clip-path:url(#SVGID_2_);fill-rule:evenodd;clip-rule:evenodd;fill:#784DFF;}
	.st123{clip-path:url(#SVGID_2_);fill-rule:evenodd;clip-rule:evenodd;fill:#A836F4;}
	.st124{clip-path:url(#SVGID_2_);fill-rule:evenodd;clip-rule:evenodd;fill:#DC46AF;}
	.st125{clip-path:url(#SVGID_2_);fill-rule:evenodd;clip-rule:evenodd;fill:#0E90FF;}
	.st126{clip-path:url(#SVGID_2_);fill-rule:evenodd;clip-rule:evenodd;fill:#4070FF;}
	.st127{clip-path:url(#SVGID_2_);fill-rule:evenodd;clip-rule:evenodd;fill:#DE47AC;}
	.st128{clip-path:url(#SVGID_2_);fill-rule:evenodd;clip-rule:evenodd;fill:#426FFF;}
]]></style><g><g><defs><path id="SVGID_1_" d="M25.55,122.84L25.55,122.84L25.55,122.84c-0.5-0.06-0.98-0.21-1.42-0.41l0,0h0 c-0.08-0.04-0.17-0.08-0.25-0.12l0,0h0c-0.06-0.03-0.12-0.07-0.18-0.1l0,0h0c-0.03-0.02-0.07-0.04-0.1-0.06l0,0l0,0 c-0.22-0.13-0.42-0.29-0.62-0.45l0,0l0,0c-0.22-0.19-0.43-0.41-0.62-0.64v0h0c-0.19-0.23-0.35-0.48-0.49-0.74v0h0 c-0.05-0.09-0.1-0.19-0.14-0.29l0,0h0c-0.09-0.19-0.16-0.39-0.23-0.6v0h0c-0.01-0.05-0.03-0.09-0.04-0.14v-0.01h0 c-0.02-0.08-0.04-0.16-0.06-0.25l0,0l0,0c-0.01-0.03-0.01-0.06-0.02-0.1v-0.01h0c-0.02-0.08-0.03-0.16-0.04-0.24v-0.01h0 c-0.01-0.05-0.01-0.1-0.02-0.16v-0.01h0c-0.01-0.07-0.01-0.15-0.02-0.22v-0.03h0c0-0.05-0.01-0.1-0.01-0.15l-0.01-0.39 l-0.23-7.35v0l0,0l-0.1-3.2c-0.03-1.35-0.65-2.61-1.64-3.5c-0.09-0.08-0.19-0.17-0.28-0.25v0l0,0l-0.02-0.02v0h0 c-0.07-0.06-0.14-0.12-0.2-0.19l0,0h0l-0.02-0.02v0h0l-0.02-0.02v0h-0.01c-0.07-0.07-0.15-0.14-0.22-0.21l0,0h0l-0.02-0.02v0h0 l-0.02-0.02v0h0c-0.23-0.22-0.47-0.44-0.7-0.66l0,0h0l-0.02-0.02v0h0l-0.02-0.02v0h0l-0.02-0.02v0h0l-0.02-0.02v-0.01h0 l-0.02-0.01v-0.01h-0.01l-0.02-0.01v-0.01h-0.01c-0.5-0.49-1-0.98-1.48-1.48v0h0l-0.02-0.02l0,0h0 c-0.12-0.12-0.23-0.25-0.35-0.37v0h0l-0.02-0.02v0h0l-0.02-0.02l0,0l0,0c-0.08-0.08-0.15-0.16-0.23-0.24v-0.01h-0.01l-0.01-0.02 v0h0l-0.02-0.02v0h0l-0.02-0.02v0h0c-0.08-0.08-0.15-0.16-0.23-0.25v0h0l-0.02-0.02v0h0c-0.13-0.14-0.26-0.29-0.39-0.43v0h0 c-0.05-0.05-0.1-0.11-0.14-0.16v0h0l-0.02-0.02v0h0L14.64,99l0,0h0c-0.04-0.05-0.08-0.09-0.12-0.14v-0.01h-0.01l-0.02-0.02v0h0 c-0.05-0.05-0.09-0.11-0.14-0.16v0h0c-0.05-0.05-0.1-0.11-0.14-0.16v0h0c-0.09-0.1-0.18-0.21-0.27-0.31l0,0h0 c-0.03-0.04-0.07-0.08-0.1-0.12v0h0l-0.12-0.14v0h0c-0.03-0.04-0.07-0.08-0.1-0.12v0h0l-0.02-0.02l0,0h0l-0.08-0.1v-0.01h0 l-0.02-0.02l0,0h0c-0.03-0.03-0.05-0.07-0.08-0.1v0h0l-0.1-0.12v0h0c-0.15-0.18-0.3-0.37-0.45-0.55v0h0l-0.08-0.1v-0.01h0 c-0.03-0.03-0.05-0.06-0.08-0.1v0h0l-0.02-0.02l0,0h0l-0.06-0.08v0h0c-0.03-0.03-0.05-0.07-0.08-0.1v0h0l-0.08-0.1v0h0 c-0.08-0.1-0.15-0.19-0.23-0.29l0,0h0c-0.07-0.09-0.14-0.18-0.21-0.27l0,0h0l-0.06-0.08v0h0l-0.06-0.08v0h0l-0.06-0.08v0h0 l-0.06-0.08v-0.01h0l-0.06-0.07v-0.01h-0.01l-0.02-0.02l0,0h0l-0.04-0.06V95.3h0l-0.06-0.08v-0.01h0 c-0.16-0.21-0.31-0.43-0.47-0.64l0,0h0l-0.1-0.14v0h0c-0.03-0.05-0.07-0.09-0.1-0.14v0h0c-0.02-0.03-0.04-0.05-0.06-0.08l0,0h0 l-0.04-0.06v0h0c-0.03-0.05-0.07-0.09-0.1-0.14v0h0c-0.05-0.07-0.1-0.13-0.14-0.2v0h0c-0.03-0.05-0.07-0.1-0.1-0.14v0h0 c-0.08-0.11-0.15-0.22-0.23-0.33v0h0l-0.04-0.06v0h0l-0.04-0.06v0h0l-0.04-0.06v-0.01h0l-0.04-0.05v-0.01h0 c-0.21-0.31-0.41-0.62-0.61-0.93v0h0c-0.05-0.07-0.1-0.15-0.14-0.22v0h0l-0.04-0.06v0h0l-0.04-0.06v0h0 c-0.02-0.03-0.04-0.06-0.06-0.1v-0.01h0l-0.04-0.06v0h0l-0.04-0.06l0,0l0,0C9.02,91.53,9,91.5,8.98,91.47v0h0L8.94,91.4l0,0h0 l-0.1-0.17l0,0h0c-0.11-0.18-0.22-0.36-0.33-0.54l0,0l0,0l-0.06-0.1v0h0c-0.02-0.03-0.04-0.07-0.06-0.1v0h0 c-0.02-0.03-0.04-0.07-0.06-0.1v0h0c-0.02-0.03-0.04-0.07-0.06-0.1v0h0l-0.06-0.1l0,0h0c-0.12-0.2-0.23-0.4-0.35-0.6l0,0l0,0 c-0.03-0.05-0.06-0.1-0.08-0.14v0l0,0L7.68,89.3v0l0,0l-0.02-0.04v-0.01h0c-0.02-0.03-0.04-0.07-0.06-0.1l0,0h0l-0.02-0.04v-0.01 h0c-0.03-0.05-0.05-0.09-0.08-0.14v0h0l-0.02-0.03v-0.01h0l-0.08-0.14v0h0c-0.03-0.06-0.07-0.12-0.1-0.18v0h0 c-0.08-0.15-0.16-0.3-0.25-0.45l0,0h0L7.02,88.1v0h0c-0.04-0.08-0.08-0.15-0.12-0.23v0l0,0l-0.02-0.04v0h0l-0.02-0.04v-0.01h0 l-0.02-0.03v-0.01h0c-0.05-0.09-0.09-0.18-0.14-0.27v0l0,0l-0.02-0.04v0h0L6.65,87.4v0h0c-0.14-0.27-0.28-0.54-0.41-0.8l0,0 l-0.02-0.04l0,0l0,0l-0.02-0.04l0,0h0l-0.02-0.04l0,0h0l-0.02-0.04v0h0l-0.02-0.04v0h0l-0.02-0.04l0,0 c-0.16-0.33-0.32-0.65-0.47-0.99v0h0l-0.02-0.04v0h0c-0.03-0.07-0.07-0.14-0.1-0.22v-0.01h0l-0.02-0.03v-0.01h0l-0.02-0.04V85h0 l-0.02-0.04l0,0l0,0c-0.03-0.06-0.05-0.12-0.08-0.18v-0.01h0l-0.02-0.04l0,0h0c-0.03-0.08-0.07-0.15-0.1-0.23l0,0h0 c-0.06-0.12-0.11-0.25-0.16-0.37v0h0C5.05,84.07,5.02,84.01,5,83.95v0l0,0c-0.02-0.05-0.04-0.09-0.06-0.14v0h0 c-0.02-0.04-0.04-0.09-0.06-0.14v-0.01h0l-0.02-0.04v0h0c-0.01-0.03-0.03-0.06-0.04-0.1v-0.01h0c-0.02-0.04-0.04-0.09-0.06-0.14 v-0.01h0l-0.06-0.14v0h0c-0.02-0.05-0.04-0.09-0.06-0.14v0h0c-0.02-0.05-0.04-0.1-0.06-0.14v0h0c-0.08-0.18-0.15-0.37-0.23-0.55 v0h0l-0.04-0.1v0h0l-0.04-0.1v0h0c-0.01-0.03-0.03-0.07-0.04-0.1l0,0h0c-0.1-0.25-0.19-0.49-0.29-0.74v0h0 c-0.02-0.05-0.04-0.11-0.06-0.16v0h0L3.8,81v0h0l-0.02-0.05v-0.01h0l-0.04-0.1v-0.01h0l-0.02-0.05v-0.01h0 c-0.01-0.04-0.02-0.07-0.04-0.1l0,0h0l-0.02-0.06v-0.01h0c-0.02-0.05-0.04-0.11-0.06-0.16l0,0l0,0l-0.02-0.06v-0.01h0 c-0.06-0.17-0.12-0.34-0.18-0.52l0,0h0L3.36,79.8v0h0l-0.02-0.06v-0.01h0l-0.02-0.05v-0.01h0c-0.04-0.12-0.08-0.23-0.12-0.35v0h0 l-0.02-0.06v0h0l-0.02-0.06v0h0l-0.02-0.06v0h0l-0.02-0.06v0h0L3.1,79.02v0h0l-0.02-0.06l0,0h0l-0.02-0.06v0h0l-0.02-0.06v0l0,0 l-0.02-0.06l0,0h0l-0.02-0.06l0,0h0l-0.02-0.06l0,0h0c-0.04-0.13-0.08-0.26-0.12-0.39v-0.01h0l-0.02-0.06v0h0 C2.81,78.13,2.79,78.06,2.77,78v-0.01h0l-0.02-0.05v-0.01h0l-0.02-0.05v-0.01h0L2.7,77.8v0h0c-0.01-0.04-0.03-0.09-0.04-0.13 v-0.01h0L2.64,77.6v-0.01h0c-0.03-0.09-0.05-0.18-0.08-0.27l0,0h0c-0.06-0.21-0.12-0.42-0.19-0.63v-0.01h0l-0.04-0.13v-0.01h0 l-0.02-0.06l0,0l0,0l-0.02-0.07v-0.01h0l-0.02-0.06l0,0h0c-0.01-0.03-0.01-0.05-0.02-0.07v-0.01h0 c-0.01-0.05-0.03-0.09-0.04-0.14v0h0l-0.02-0.07v-0.01h0l-0.04-0.14v0h0C2.1,75.7,2.05,75.52,2,75.34v0h0l-0.02-0.08v-0.01h0 l-0.02-0.07v-0.01h0l-0.02-0.07v-0.01h0l-0.02-0.07v-0.02h0L1.9,74.95v-0.02h0l-0.02-0.06v0l0,0l-0.02-0.08v0l0,0L1.84,74.7l0,0 h0c-0.06-0.25-0.13-0.51-0.19-0.76v0h0c-0.02-0.09-0.04-0.18-0.06-0.27v0h0c-0.01-0.06-0.03-0.12-0.04-0.17v-0.01h0l-0.02-0.08 V73.4h0c-0.01-0.03-0.01-0.06-0.02-0.08V73.3h0l-0.02-0.07v-0.01h0c-0.01-0.03-0.01-0.06-0.02-0.09v-0.02h0l-0.02-0.08v-0.01h0 L1.4,72.85v0h0c-0.06-0.26-0.11-0.52-0.16-0.78v0l0,0l-0.02-0.1v0h0l-0.02-0.1v-0.01h0c-0.01-0.03-0.01-0.06-0.02-0.09v-0.01h0 c-0.01-0.03-0.01-0.06-0.02-0.1v-0.01h0c-0.01-0.07-0.03-0.14-0.04-0.21v-0.02h0l-0.02-0.09v-0.01h0l-0.02-0.1v0h0l-0.02-0.1l0,0 l0,0c-0.03-0.15-0.06-0.3-0.08-0.46l0,0l0,0l-0.02-0.12v-0.01h0l-0.02-0.11v-0.02h0l-0.02-0.1v-0.02h0 c-0.01-0.03-0.01-0.06-0.02-0.09v-0.03H0.88c-0.01-0.03-0.01-0.06-0.02-0.1v-0.01h0l-0.02-0.12v-0.01h0l-0.02-0.12v0h0 l-0.02-0.12v0h0c-0.04-0.22-0.07-0.44-0.1-0.66v0h0l-0.02-0.13v-0.01h0l-0.02-0.13v-0.02h0c-0.01-0.04-0.01-0.08-0.02-0.12v-0.02 h0c-0.01-0.04-0.01-0.08-0.02-0.13v-0.02h0L0.6,68.32V68.3h0l-0.02-0.14v-0.01h0l-0.02-0.14v0l0,0c-0.01-0.1-0.03-0.21-0.04-0.31 l0,0c-0.01-0.11-0.03-0.22-0.04-0.33v-0.02h0l-0.02-0.15v-0.02h0c-0.01-0.05-0.01-0.1-0.02-0.15V67h0 c-0.01-0.05-0.01-0.1-0.02-0.15v-0.02h0c-0.01-0.06-0.01-0.11-0.02-0.17v-0.02h0l-0.02-0.17v-0.02h0 c-0.01-0.12-0.03-0.25-0.04-0.37v0l0,0c-0.01-0.07-0.01-0.14-0.02-0.21v-0.02h0l-0.02-0.19v-0.03h0 c-0.01-0.06-0.01-0.12-0.02-0.18v-0.05h0c-0.01-0.06-0.01-0.12-0.02-0.19v-0.04h0c-0.01-0.07-0.01-0.13-0.02-0.2v-0.03h0 c-0.01-0.07-0.01-0.15-0.02-0.22v-0.01h0c-0.01-0.18-0.03-0.36-0.04-0.54v-0.04h0c-0.01-0.08-0.01-0.17-0.02-0.25v-0.06h0 c-0.01-0.09-0.01-0.18-0.02-0.26v-0.07h0c-0.01-0.1-0.01-0.19-0.02-0.29v-0.02h0c-0.01-0.12-0.01-0.23-0.02-0.35v0l0,0 c-0.01-0.15-0.01-0.3-0.02-0.46v-0.08h0c-0.01-0.14-0.01-0.29-0.02-0.44v-0.1h0c-0.01-0.19-0.01-0.37-0.02-0.56V61.2h0 C0.01,60.67,0,60.13,0,59.59c0-1.55,0.06-3.08,0.17-4.6l0,0v0c0.11-1.59,0.29-3.16,0.52-4.7h0v0c0.06-0.43,0.13-0.85,0.21-1.28h0 v0c0.06-0.38,0.13-0.76,0.21-1.13l0,0v0c0.02-0.11,0.04-0.22,0.06-0.33l0,0v0c0.11-0.56,0.23-1.12,0.35-1.67h0v0 c0.1-0.46,0.21-0.92,0.33-1.38h0v0c0.1-0.39,0.2-0.78,0.31-1.17l0,0v0C2.17,43.2,2.2,43.1,2.23,43l0,0v0 c0.13-0.45,0.26-0.9,0.39-1.34h0v0c0.13-0.44,0.27-0.87,0.41-1.3l0,0v0c0.15-0.44,0.3-0.88,0.45-1.32l0,0v0 c0.17-0.48,0.35-0.97,0.54-1.44h0v0c0.21-0.53,0.42-1.06,0.64-1.59h0v0c0.35-0.84,0.73-1.66,1.11-2.48h0v0 c0.45-0.94,0.92-1.87,1.42-2.79h0v0c0.21-0.38,0.42-0.76,0.64-1.13h0v0c0.26-0.44,0.52-0.88,0.78-1.32l0,0l0,0 c0.2-0.32,0.4-0.63,0.6-0.95l0,0c0.58-0.9,1.17-1.78,1.8-2.64l0,0v0c0.55-0.76,1.12-1.51,1.71-2.25h0v0 c0.57-0.71,1.15-1.4,1.75-2.08l0,0l0,0C25.53,7.84,42.01,0.16,60.84,0h1.2c17.69,0.15,33.31,6.94,44.29,18.14v0l0,0 c1.04,1.06,2.04,2.16,2.99,3.3l0,0l0,0c0.29,0.34,0.57,0.68,0.85,1.03v0l0,0c1.21,1.51,2.34,3.08,3.39,4.71v0l0,0 c0.54,0.84,1.07,1.7,1.57,2.58l0,0l0,0c0.19,0.33,0.38,0.66,0.56,0.99v0h0c0.73,1.34,1.41,2.72,2.04,4.13v0h0 c0.18,0.41,0.36,0.82,0.54,1.24v0l0,0c0.17,0.4,0.34,0.81,0.5,1.22v0l0,0c0.19,0.47,0.36,0.94,0.54,1.42v0l0,0 c0.16,0.45,0.32,0.9,0.47,1.36v0l0,0c0.01,0.02,0.01,0.04,0.02,0.06v0l0,0c0.16,0.47,0.31,0.94,0.46,1.42v0l0,0 c0.16,0.52,0.31,1.04,0.45,1.57v0h0c0.24,0.86,0.46,1.74,0.66,2.62v0l0,0c0.02,0.1,0.04,0.19,0.06,0.29v0l0,0 c0.22,0.97,0.41,1.96,0.58,2.95v0l0,0c0.16,0.93,0.3,1.86,0.41,2.81v0l0,0c0.01,0.06,0.01,0.12,0.02,0.18v0l0,0 c0.01,0.06,0.01,0.12,0.02,0.18v0l0,0c0.01,0.06,0.01,0.12,0.02,0.18v0l0,0c0.22,1.92,0.35,3.87,0.39,5.85v0.01l0,0 c0.01,0.44,0.02,0.89,0.02,1.33c0,0.45-0.01,0.89-0.02,1.33l0,0c-0.1,4.96-0.77,9.72-1.94,14.24l0,0l0,0 c-0.63,2.4-1.39,4.74-2.29,7l0,0c-0.81,2.04-1.74,4.02-2.77,5.93l0,0c-0.18,0.34-0.37,0.68-0.56,1.01l0,0l0,0 c-1.52,2.69-3.24,5.25-5.16,7.64l0,0l0,0c-2.73,3.4-5.83,6.49-9.27,9.21c-0.56,0.45-1.13,0.88-1.71,1.3l0,0l0,0 c-1.01,0.74-2.04,1.45-3.1,2.13l0,0l0,0c-0.76,0.48-1.53,0.95-2.31,1.4l0,0v0c-4.24,2.45-8.83,4.41-13.71,5.82l0,0l0,0 c-0.52,0.15-1.04,0.29-1.57,0.43l0,0c-0.05,0.01-0.11,0.03-0.17,0.04c-2.86,0.74-5.81,1.29-8.83,1.65l0,0l0,0 c-0.6,0.07-1.2,0.13-1.8,0.19l0,0c-1.19,0.11-2.38,0.18-3.59,0.23h0l0,0c-0.2,0.01-0.4,0.01-0.6,0.02l0,0 c-0.68,0.02-1.37,0.04-2.06,0.04c-0.26,0-0.53,0-0.79-0.01v-0.01H60.1c-0.23,0-0.46-0.01-0.69-0.02v0h-0.13 c-0.16,0-0.33-0.01-0.49-0.02v0h-0.1c-0.11-0.01-0.21-0.01-0.32-0.01v-0.01h-0.16l-0.25-0.01v-0.01H57.8l-0.23-0.01v-0.01h-0.15 c-0.09-0.01-0.18-0.01-0.27-0.02v-0.01h-0.08c-0.19-0.01-0.38-0.02-0.56-0.04v0h-0.05l-0.2-0.01V119h-0.08l-0.17-0.01v-0.01 h-0.09l-0.15-0.01v-0.01h-0.1l-0.15-0.01v-0.01h-0.09l-0.16-0.01v-0.01h-0.07l-0.17-0.02v0h-0.05l-0.18-0.02v0h-0.04l-0.21-0.02 l0,0l-0.19-0.02v0h-0.01l-0.15-0.02v0h-0.05l-0.14-0.02v-0.01h-0.05l-0.11-0.01v-0.01h-0.07l-0.11-0.01v-0.01H53.6l-0.12-0.01 v-0.01h-0.06l-0.1-0.01v-0.01h-0.07l-0.12-0.02v-0.01h-0.05l-0.11-0.01v-0.01h-0.05l-0.13-0.02v0h-0.03l-0.13-0.02v0h-0.03 c-0.15-0.02-0.3-0.04-0.45-0.06v0h-0.01L52,118.55v0h-0.02l-0.11-0.01v-0.01h-0.04l-0.1-0.02v-0.01h-0.04l-0.1-0.02v-0.01h-0.04 l-0.09-0.01v-0.01h-0.05l-0.09-0.01v-0.01h-0.05l-0.08-0.01v-0.01h-0.06l-0.08-0.01v-0.01H51l-0.09-0.01v-0.01h-0.04l-0.09-0.01 v-0.01h-0.04l-0.1-0.02v-0.01H50.6l-0.09-0.01v-0.01h-0.03l-0.11-0.02v0h-0.01c-0.16-0.03-0.32-0.05-0.48-0.08v0h-0.01 l-0.09-0.02v-0.01h-0.02l-0.1-0.02v0h-0.02l-0.09-0.02v-0.01h-0.03l-0.07-0.01v-0.01h-0.04l-0.08-0.02v-0.01h-0.03l-0.07-0.01 v-0.01h-0.04l-0.08-0.02v-0.01h-0.03l-0.07-0.01v-0.01h-0.04l-0.06-0.01v-0.01h-0.05l-0.08-0.02v-0.01h-0.03l-0.07-0.01v-0.01 h-0.03l-0.07-0.01v-0.01h-0.04l-0.08-0.02v0H48.4l-0.08-0.02v0H48.3l-0.1-0.02l0,0h0l-0.1-0.02l0,0h0l-0.1-0.02v0h0l-0.1-0.02 l0,0h0l-0.18-0.04v0h-0.02l-0.09-0.02v0h-0.01l-0.09-0.02l0,0h-0.01l-0.08-0.02v-0.01h-0.02l-0.08-0.02v0h-0.02l-0.07-0.01v-0.01 H47.2l-0.07-0.02v-0.01H47.1l-0.06-0.01v-0.01h-0.04l-0.07-0.02v-0.01h-0.03l-0.06-0.01v-0.01h-0.04l-0.07-0.02v-0.01h-0.03 l-0.06-0.01v-0.01h-0.04l-0.07-0.01v-0.01h-0.03l-0.06-0.01v-0.01h-0.03l-0.07-0.02v0h-0.02l-0.06-0.01v-0.01h-0.03l-0.07-0.02v0 h-0.01l-0.07-0.02v-0.01h-0.02l-0.08-0.02v0H46c-0.11-0.03-0.23-0.05-0.34-0.08v0h0l-0.08-0.02l0,0h-0.01l-0.08-0.02v0h-0.01 l-0.07-0.02v0H45.4l-0.07-0.02v0h-0.01l-0.07-0.02v0h-0.01l-0.07-0.02v0h-0.01l-0.07-0.02v0h-0.01L45,117.19v0h-0.01l-0.05-0.01 v-0.01H44.9l-0.05-0.01v-0.01h-0.03l-0.05-0.01v-0.01h-0.03l-0.05-0.01v-0.01h-0.03l-0.05-0.01v-0.01h-0.03l-0.06-0.02v-0.01 H44.5l-0.06-0.02v0h-0.02l-0.06-0.02v0h-0.02L44.28,117v0h-0.01l-0.07-0.02v0h-0.01l-0.05-0.01v-0.01h-0.02l-0.06-0.02v0h-0.02 l-0.06-0.02v0h-0.01l-0.07-0.02v0h-0.01l-0.07-0.02l0,0h0l-0.15-0.04c-1.09-0.29-2.26-0.21-3.29,0.25l-4.08,1.8l0,0l0,0 l-8.12,3.58c-0.06,0.03-0.12,0.05-0.18,0.07l0,0l0,0c-0.05,0.02-0.11,0.04-0.16,0.06h0l0,0l-0.06,0.02h0v0 c-0.02,0.01-0.04,0.01-0.06,0.02H27.7v0c-0.02,0.01-0.04,0.01-0.06,0.02h0v0c-0.16,0.05-0.31,0.09-0.47,0.12h0l0,0 c-0.03,0.01-0.07,0.01-0.1,0.02h0v0c-0.08,0.02-0.17,0.03-0.25,0.04h-0.02v0C26.37,122.89,25.96,122.89,25.55,122.84 L25.55,122.84z"/></defs><clipPath id="SVGID_2_"><use xlink:href="#SVGID_1_" style="overflow:visible"/></clipPath><polygon class="st83" points="0,122.89 122.88,122.89 122.88,0 0,0 0,122.89"/><path class="st100" d="M25.23,122.32c0,0.87-0.7,1.57-1.57,1.57s-1.57-0.7-1.57-1.57c0-0.87,0.7-1.57,1.57-1.57 S25.23,121.46,25.23,122.32L25.23,122.32z"/><path class="st102" d="M24.71,122.32c0-0.58-0.47-1.05-1.05-1.05s-1.05,0.47-1.05,1.05s0.47,1.04,1.05,1.04 S24.71,122.9,24.71,122.32L24.71,122.32z M26.28,122.32c0,1.44-1.17,2.62-2.62,2.62s-2.61-1.17-2.61-2.62 c0-1.45,1.17-2.62,2.61-2.62S26.28,120.88,26.28,122.32L26.28,122.32z"/><path class="st104" d="M25.76,122.32c0-1.16-0.94-2.09-2.09-2.09s-2.09,0.94-2.09,2.09c0,1.15,0.94,2.09,2.09,2.09 S25.76,123.48,25.76,122.32L25.76,122.32z M27.32,122.32c0,2.02-1.64,3.66-3.66,3.66S20,124.35,20,122.32s1.64-3.66,3.66-3.66 S27.32,120.3,27.32,122.32L27.32,122.32z"/><path class="st105" d="M26.8,122.32c0-1.73-1.4-3.14-3.14-3.14c-1.73,0-3.14,1.41-3.14,3.14s1.4,3.14,3.14,3.14 C25.4,125.46,26.8,124.06,26.8,122.32L26.8,122.32z M28.37,122.32c0,2.6-2.11,4.71-4.71,4.71s-4.71-2.11-4.71-4.71 s2.11-4.71,4.71-4.71S28.37,119.72,28.37,122.32L28.37,122.32z"/><path class="st108" d="M27.85,122.32c0-2.31-1.87-4.18-4.18-4.18c-2.31,0-4.18,1.87-4.18,4.18s1.87,4.18,4.18,4.18 C25.97,126.51,27.85,124.63,27.85,122.32L27.85,122.32z M29.42,122.32c0,3.18-2.58,5.75-5.75,5.75s-5.75-2.57-5.75-5.75 s2.58-5.75,5.75-5.75S29.42,119.15,29.42,122.32L29.42,122.32z"/><path class="st118" d="M28.89,122.32c0-2.89-2.34-5.23-5.23-5.23s-5.23,2.34-5.23,5.23s2.34,5.23,5.23,5.23 S28.89,125.21,28.89,122.32L28.89,122.32z M30.46,122.32c0,3.75-3.04,6.8-6.8,6.8s-6.8-3.04-6.8-6.8c0-3.76,3.04-6.8,6.8-6.8 S30.46,118.57,30.46,122.32L30.46,122.32z"/><path class="st121" d="M29.94,122.32c0-3.47-2.81-6.28-6.28-6.28s-6.28,2.81-6.28,6.28c0,3.46,2.81,6.28,6.28,6.28 S29.94,125.79,29.94,122.32L29.94,122.32z M31.51,122.32c0,4.33-3.51,7.84-7.84,7.84s-7.84-3.51-7.84-7.84s3.51-7.85,7.84-7.85 S31.51,117.99,31.51,122.32L31.51,122.32z"/><path class="st125" d="M30.99,122.32c0-4.04-3.28-7.32-7.32-7.32s-7.32,3.28-7.32,7.32c0,4.04,3.28,7.32,7.32,7.32 S30.99,126.37,30.99,122.32L30.99,122.32z M32.55,122.32c0,4.91-3.98,8.89-8.89,8.89s-8.89-3.98-8.89-8.89s3.98-8.89,8.89-8.89 S32.55,117.41,32.55,122.32L32.55,122.32z"/><path class="st8" d="M32.03,122.32c0-4.62-3.75-8.37-8.37-8.37c-4.62,0-8.37,3.75-8.37,8.37s3.75,8.37,8.37,8.37 C28.29,130.69,32.03,126.95,32.03,122.32L32.03,122.32z M33.6,122.32c0,5.49-4.45,9.94-9.94,9.94s-9.94-4.45-9.94-9.94 s4.45-9.94,9.94-9.94S33.6,116.84,33.6,122.32L33.6,122.32z"/><path class="st11" d="M33.08,122.32c0-5.2-4.21-9.41-9.41-9.41c-5.2,0-9.41,4.21-9.41,9.41s4.21,9.41,9.41,9.41 C28.86,131.74,33.08,127.52,33.08,122.32L33.08,122.32z M34.65,122.32c0,6.06-4.92,10.98-10.98,10.98s-10.98-4.92-10.98-10.98 c0-6.07,4.92-10.98,10.98-10.98S34.65,116.26,34.65,122.32L34.65,122.32z"/><path class="st13" d="M34.12,122.32c0-5.78-4.68-10.46-10.46-10.46s-10.46,4.68-10.46,10.46c0,5.78,4.68,10.46,10.46,10.46 S34.12,128.1,34.12,122.32L34.12,122.32z M35.69,122.32c0,6.64-5.39,12.03-12.03,12.03c-6.64,0-12.03-5.39-12.03-12.03 c0-6.64,5.39-12.03,12.03-12.03C30.31,110.29,35.69,115.68,35.69,122.32L35.69,122.32z"/><path class="st16" d="M35.17,122.32c0-6.36-5.15-11.51-11.51-11.51s-11.51,5.15-11.51,11.51c0,6.35,5.15,11.51,11.51,11.51 S35.17,128.68,35.17,122.32L35.17,122.32z M36.74,122.32c0,7.22-5.85,13.07-13.07,13.07c-7.22,0-13.07-5.85-13.07-13.07 s5.85-13.07,13.07-13.07C30.88,109.25,36.74,115.1,36.74,122.32L36.74,122.32z"/><path class="st19" d="M36.22,122.32c0-6.93-5.62-12.55-12.55-12.55s-12.55,5.62-12.55,12.55s5.62,12.55,12.55,12.55 S36.22,129.26,36.22,122.32L36.22,122.32z M37.78,122.32c0,7.8-6.32,14.12-14.12,14.12s-14.12-6.32-14.12-14.12 s6.32-14.12,14.12-14.12S37.78,114.53,37.78,122.32L37.78,122.32z"/><path class="st27" d="M37.26,122.32c0-7.51-6.09-13.6-13.6-13.6s-13.6,6.09-13.6,13.6s6.09,13.6,13.6,13.6 S37.26,129.83,37.26,122.32L37.26,122.32z M38.83,122.32c0,8.38-6.79,15.17-15.17,15.17S8.5,130.7,8.5,122.32 c0-8.38,6.79-15.17,15.17-15.17S38.83,113.95,38.83,122.32L38.83,122.32z"/><path class="st31" d="M38.31,122.32c0-8.09-6.56-14.64-14.64-14.64s-14.64,6.56-14.64,14.64s6.56,14.64,14.64,14.64 S38.31,130.41,38.31,122.32L38.31,122.32z M39.88,122.32c0,8.95-7.26,16.21-16.21,16.21s-16.21-7.26-16.21-16.21 c0-8.96,7.26-16.21,16.21-16.21S39.88,113.37,39.88,122.32L39.88,122.32z"/><path class="st34" d="M39.35,122.32c0-8.67-7.02-15.69-15.69-15.69s-15.69,7.02-15.69,15.69c0,8.66,7.02,15.69,15.69,15.69 S39.35,130.99,39.35,122.32L39.35,122.32z M40.92,122.32c0,9.53-7.73,17.26-17.26,17.26S6.4,131.86,6.4,122.32 s7.73-17.26,17.26-17.26S40.92,112.79,40.92,122.32L40.92,122.32z"/><path class="st46" d="M40.4,122.32c0-9.24-7.49-16.74-16.74-16.74c-9.24,0-16.74,7.49-16.74,16.74s7.49,16.73,16.74,16.73 C32.91,139.06,40.4,131.57,40.4,122.32L40.4,122.32z M41.97,122.32c0,10.11-8.2,18.3-18.3,18.3s-18.3-8.2-18.3-18.3 s8.2-18.3,18.3-18.3S41.97,112.21,41.97,122.32L41.97,122.32z"/><path class="st48" d="M41.45,122.32c0-9.82-7.96-17.78-17.78-17.78c-9.82,0-17.78,7.96-17.78,17.78s7.96,17.78,17.78,17.78 C33.48,140.11,41.45,132.14,41.45,122.32L41.45,122.32z M43.01,122.32c0,10.69-8.66,19.35-19.35,19.35 c-10.69,0-19.35-8.66-19.35-19.35s8.66-19.35,19.35-19.35C34.35,102.97,43.01,111.64,43.01,122.32L43.01,122.32z"/><path class="st50" d="M42.49,122.32c0-10.4-8.43-18.83-18.83-18.83s-18.83,8.43-18.83,18.83s8.43,18.83,18.83,18.83 S42.49,132.72,42.49,122.32L42.49,122.32z M44.06,122.32c0,11.26-9.13,20.4-20.4,20.4c-11.26,0-20.4-9.13-20.4-20.4 c0-11.27,9.13-20.4,20.4-20.4C34.93,101.93,44.06,111.06,44.06,122.32L44.06,122.32z"/><path class="st52" d="M43.54,122.32c0-10.98-8.9-19.87-19.87-19.87s-19.87,8.9-19.87,19.87c0,10.97,8.9,19.87,19.87,19.87 S43.54,133.3,43.54,122.32L43.54,122.32z M45.11,122.32c0,11.84-9.6,21.44-21.44,21.44s-21.44-9.6-21.44-21.44 c0-11.84,9.6-21.44,21.44-21.44S45.11,110.48,45.11,122.32L45.11,122.32z"/><path class="st54" d="M44.58,122.32c0-11.55-9.37-20.92-20.92-20.92c-11.55,0-20.92,9.37-20.92,20.92 c0,11.55,9.37,20.92,20.92,20.92C35.22,143.24,44.58,133.88,44.58,122.32L44.58,122.32z M46.15,122.32 c0,12.42-10.07,22.49-22.49,22.49S1.17,134.74,1.17,122.32s10.07-22.49,22.49-22.49S46.15,109.9,46.15,122.32L46.15,122.32z"/><path class="st64" d="M45.63,122.32c0-12.13-9.83-21.97-21.97-21.97c-12.13,0-21.97,9.84-21.97,21.97s9.83,21.96,21.97,21.96 C35.79,144.29,45.63,134.46,45.63,122.32L45.63,122.32z M47.2,122.32c0,13-10.54,23.53-23.53,23.53S0.13,135.32,0.13,122.32 s10.54-23.54,23.53-23.54S47.2,109.33,47.2,122.32L47.2,122.32z"/><path class="st68" d="M46.68,122.32c0-12.71-10.3-23.01-23.01-23.01s-23.01,10.3-23.01,23.01s10.3,23.01,23.01,23.01 S46.68,135.03,46.68,122.32L46.68,122.32z M48.24,122.32c0,13.57-11,24.58-24.58,24.58c-13.58,0-24.58-11.01-24.58-24.58 c0-13.58,11.01-24.58,24.58-24.58C37.24,97.74,48.24,108.75,48.24,122.32L48.24,122.32z"/><path class="st91" d="M47.72,122.32c0-13.29-10.77-24.06-24.06-24.06s-24.06,10.77-24.06,24.06c0,13.29,10.77,24.06,24.06,24.06 S47.72,135.61,47.72,122.32L47.72,122.32z M49.29,122.32c0,14.15-11.47,25.63-25.63,25.63c-14.15,0-25.63-11.47-25.63-25.63 c0-14.15,11.47-25.63,25.63-25.63C37.82,96.7,49.29,108.17,49.29,122.32L49.29,122.32z"/><path class="st94" d="M48.77,122.32c0-13.87-11.24-25.1-25.1-25.1s-25.1,11.24-25.1,25.1c0,13.86,11.24,25.1,25.1,25.1 S48.77,136.19,48.77,122.32L48.77,122.32z M50.34,122.32c0,14.73-11.94,26.67-26.67,26.67s-26.67-11.94-26.67-26.67 S8.93,95.65,23.66,95.65S50.34,107.59,50.34,122.32L50.34,122.32z"/><path class="st95" d="M49.81,122.32c0-14.44-11.71-26.15-26.15-26.15s-26.15,11.71-26.15,26.15c0,14.44,11.71,26.15,26.15,26.15 S49.81,136.77,49.81,122.32L49.81,122.32z M51.38,122.32c0,15.31-12.41,27.72-27.72,27.72s-27.72-12.41-27.72-27.72 S8.35,94.61,23.66,94.61S51.38,107.02,51.38,122.32L51.38,122.32z"/><path class="st96" d="M50.86,122.32c0-15.02-12.18-27.2-27.2-27.2s-27.2,12.18-27.2,27.2s12.18,27.2,27.2,27.2 S50.86,137.34,50.86,122.32L50.86,122.32z M52.43,122.32c0,15.88-12.88,28.76-28.76,28.76S-5.1,138.21-5.1,122.32 c0-15.89,12.88-28.77,28.76-28.77S52.43,106.44,52.43,122.32L52.43,122.32z"/><path class="st98" d="M51.91,122.32c0-15.6-12.64-28.24-28.24-28.24c-15.6,0-28.24,12.64-28.24,28.24s12.64,28.24,28.24,28.24 C39.26,150.56,51.91,137.92,51.91,122.32L51.91,122.32z M53.47,122.32c0,16.46-13.35,29.81-29.81,29.81s-29.81-13.35-29.81-29.81 c0-16.46,13.35-29.81,29.81-29.81S53.47,105.86,53.47,122.32L53.47,122.32z"/><path class="st106" d="M52.95,122.32c0-16.18-13.11-29.29-29.29-29.29c-16.17,0-29.29,13.11-29.29,29.29 c0,16.17,13.11,29.29,29.29,29.29C39.84,151.61,52.95,138.5,52.95,122.32L52.95,122.32z M54.52,122.32 c0,17.04-13.81,30.86-30.86,30.86s-30.86-13.81-30.86-30.86S6.62,91.47,23.66,91.47S54.52,105.28,54.52,122.32L54.52,122.32z"/><path class="st109" d="M54,122.32c0-16.75-13.58-30.33-30.33-30.33s-30.33,13.58-30.33,30.33c0,16.75,13.58,30.33,30.33,30.33 S54,139.08,54,122.32L54,122.32z M55.57,122.32c0,17.62-14.28,31.9-31.9,31.9s-31.9-14.28-31.9-31.9s14.28-31.9,31.9-31.9 S55.57,104.71,55.57,122.32L55.57,122.32z"/><path class="st111" d="M55.04,122.32c0-17.33-14.05-31.38-31.38-31.38s-31.38,14.05-31.38,31.38S6.33,153.7,23.66,153.7 S55.04,139.65,55.04,122.32L55.04,122.32z M56.61,122.32c0,18.2-14.75,32.95-32.95,32.95c-18.2,0-32.95-14.75-32.95-32.95 c0-18.2,14.75-32.95,32.95-32.95C41.86,89.38,56.61,104.13,56.61,122.32L56.61,122.32z"/><path class="st126" d="M56.09,122.32c0-17.91-14.52-32.43-32.43-32.43s-32.43,14.52-32.43,32.43s14.52,32.42,32.43,32.42 S56.09,140.23,56.09,122.32L56.09,122.32z M57.66,122.32c0,18.77-15.22,33.99-33.99,33.99c-18.77,0-33.99-15.22-33.99-33.99 c0-18.78,15.22-33.99,33.99-33.99C42.44,88.33,57.66,103.55,57.66,122.32L57.66,122.32z"/><path class="st128" d="M57.14,122.32c0-18.49-14.99-33.47-33.47-33.47s-33.47,14.99-33.47,33.47c0,18.48,14.99,33.47,33.47,33.47 S57.14,140.81,57.14,122.32L57.14,122.32z M58.7,122.32c0,19.35-15.69,35.04-35.04,35.04s-35.04-15.69-35.04-35.04 c0-19.35,15.69-35.04,35.04-35.04S58.7,102.97,58.7,122.32L58.7,122.32z"/><path class="st0" d="M58.18,122.32c0-19.06-15.45-34.52-34.52-34.52c-19.06,0-34.52,15.45-34.52,34.52 c0,19.06,15.45,34.52,34.52,34.52C42.73,156.84,58.18,141.39,58.18,122.32L58.18,122.32z M59.75,122.32 c0,19.93-16.16,36.09-36.09,36.09s-36.09-16.16-36.09-36.09S3.73,86.24,23.66,86.24S59.75,102.39,59.75,122.32L59.75,122.32z"/><path class="st1" d="M59.23,122.32c0-19.64-15.92-35.56-35.56-35.56s-35.56,15.92-35.56,35.56s15.92,35.56,35.56,35.56 S59.23,141.96,59.23,122.32L59.23,122.32z M60.8,122.32c0,20.51-16.62,37.13-37.13,37.13c-20.51,0-37.13-16.62-37.13-37.13 S3.16,85.19,23.66,85.19C44.17,85.19,60.8,101.82,60.8,122.32L60.8,122.32z"/><path class="st4" d="M60.27,122.32c0-20.22-16.39-36.61-36.61-36.61s-36.61,16.39-36.61,36.61s16.39,36.61,36.61,36.61 S60.27,142.54,60.27,122.32L60.27,122.32z M61.84,122.32c0,21.08-17.09,38.18-38.18,38.18c-21.08,0-38.18-17.09-38.18-38.18 c0-21.09,17.09-38.18,38.18-38.18C44.75,84.15,61.84,101.24,61.84,122.32L61.84,122.32z"/><path class="st14" d="M61.32,122.32c0-20.8-16.86-37.66-37.66-37.66s-37.66,16.86-37.66,37.66s16.86,37.65,37.66,37.65 S61.32,143.12,61.32,122.32L61.32,122.32z M62.89,122.32c0,21.66-17.56,39.22-39.23,39.22s-39.22-17.56-39.22-39.22 c0-21.66,17.56-39.22,39.22-39.22S62.89,100.66,62.89,122.32L62.89,122.32z"/><path class="st17" d="M62.37,122.32c0-21.38-17.33-38.7-38.7-38.7s-38.7,17.33-38.7,38.7c0,21.37,17.33,38.7,38.7,38.7 S62.37,143.7,62.37,122.32L62.37,122.32z M63.93,122.32c0,22.24-18.03,40.27-40.27,40.27s-40.27-18.03-40.27-40.27 S1.42,82.05,23.66,82.05S63.93,100.08,63.93,122.32L63.93,122.32z"/><path class="st20" d="M63.41,122.32c0-21.95-17.79-39.75-39.75-39.75s-39.75,17.8-39.75,39.75s17.8,39.75,39.75,39.75 S63.41,144.28,63.41,122.32L63.41,122.32z M64.98,122.32c0,22.82-18.5,41.32-41.32,41.32s-41.32-18.5-41.32-41.32 s18.5-41.32,41.32-41.32S64.98,99.51,64.98,122.32L64.98,122.32z"/><path class="st36" d="M64.46,122.32c0-22.53-18.26-40.79-40.79-40.79s-40.79,18.26-40.79,40.79s18.26,40.79,40.79,40.79 S64.46,144.85,64.46,122.32L64.46,122.32z M66.03,122.32c0,23.4-18.97,42.36-42.36,42.36s-42.36-18.96-42.36-42.36 S0.27,79.96,23.66,79.96S66.03,98.93,66.03,122.32L66.03,122.32z"/><path class="st37" d="M65.5,122.32c0-23.11-18.73-41.84-41.84-41.84c-23.11,0-41.84,18.73-41.84,41.84s18.73,41.84,41.84,41.84 C46.77,164.16,65.5,145.43,65.5,122.32L65.5,122.32z M67.07,122.32c0,23.97-19.44,43.41-43.41,43.41s-43.41-19.44-43.41-43.41 c0-23.97,19.43-43.41,43.41-43.41S67.07,98.35,67.07,122.32L67.07,122.32z"/><path class="st38" d="M66.55,122.32c0-23.69-19.2-42.88-42.89-42.88c-23.68,0-42.88,19.2-42.88,42.88 c0,23.68,19.2,42.88,42.88,42.88C47.35,165.21,66.55,146.01,66.55,122.32L66.55,122.32z M68.12,122.32 c0,24.55-19.9,44.45-44.45,44.45s-44.45-19.9-44.45-44.45s19.9-44.46,44.45-44.46S68.12,97.77,68.12,122.32L68.12,122.32z"/><path class="st40" d="M67.59,122.32c0-24.26-19.67-43.93-43.93-43.93s-43.93,19.67-43.93,43.93c0,24.26,19.67,43.93,43.93,43.93 S67.59,146.59,67.59,122.32L67.59,122.32z M69.16,122.32c0,25.13-20.37,45.5-45.5,45.5c-25.13,0-45.5-20.37-45.5-45.5 s20.37-45.5,45.5-45.5C48.79,76.82,69.16,97.2,69.16,122.32L69.16,122.32z"/><path class="st43" d="M68.64,122.32c0-24.84-20.14-44.98-44.98-44.98s-44.98,20.14-44.98,44.98s20.14,44.98,44.98,44.98 S68.64,147.16,68.64,122.32L68.64,122.32z M70.21,122.32c0,25.71-20.84,46.54-46.55,46.54c-25.71,0-46.55-20.84-46.55-46.54 s20.84-46.55,46.55-46.55C49.37,75.78,70.21,96.62,70.21,122.32L70.21,122.32z"/><path class="st53" d="M69.69,122.32c0-25.42-20.61-46.02-46.02-46.02s-46.02,20.61-46.02,46.02s20.6,46.02,46.02,46.02 S69.69,147.74,69.69,122.32L69.69,122.32z M71.26,122.32c0,26.28-21.31,47.59-47.59,47.59c-26.28,0-47.59-21.31-47.59-47.59 c0-26.29,21.31-47.59,47.59-47.59C49.95,74.73,71.26,96.04,71.26,122.32L71.26,122.32z"/><path class="st55" d="M70.73,122.32c0-26-21.07-47.07-47.07-47.07s-47.07,21.07-47.07,47.07c0,25.99,21.07,47.07,47.07,47.07 S70.73,148.32,70.73,122.32L70.73,122.32z M72.3,122.32c0,26.86-21.78,48.64-48.64,48.64s-48.64-21.78-48.64-48.64 c0-26.86,21.78-48.64,48.64-48.64S72.3,95.46,72.3,122.32L72.3,122.32z"/><path class="st57" d="M71.78,122.32c0-26.57-21.54-48.12-48.12-48.12s-48.11,21.54-48.11,48.12c0,26.57,21.54,48.12,48.11,48.12 S71.78,148.9,71.78,122.32L71.78,122.32z M73.35,122.32c0,27.44-22.24,49.68-49.68,49.68c-27.44,0-49.68-22.24-49.68-49.68 s22.24-49.68,49.68-49.68C51.1,72.64,73.35,94.88,73.35,122.32L73.35,122.32z"/><path class="st73" d="M72.82,122.32c0-27.15-22.01-49.16-49.16-49.16S-25.5,95.17-25.5,122.32s22.01,49.16,49.16,49.16 S72.82,149.47,72.82,122.32L72.82,122.32z M74.39,122.32c0,28.02-22.71,50.73-50.73,50.73c-28.02,0-50.73-22.71-50.73-50.73 s22.71-50.73,50.73-50.73C51.68,71.59,74.39,94.31,74.39,122.32L74.39,122.32z"/><path class="st84" d="M73.87,122.32c0-27.73-22.48-50.21-50.21-50.21s-50.21,22.48-50.21,50.21s22.48,50.21,50.21,50.21 S73.87,150.05,73.87,122.32L73.87,122.32z M75.44,122.32c0,28.59-23.18,51.78-51.78,51.78s-51.78-23.18-51.78-51.78 c0-28.6,23.18-51.78,51.78-51.78S75.44,93.73,75.44,122.32L75.44,122.32z"/><path class="st85" d="M74.92,122.32c0-28.31-22.95-51.25-51.25-51.25s-51.25,22.95-51.25,51.25s22.95,51.25,51.25,51.25 S74.92,150.63,74.92,122.32L74.92,122.32z M76.49,122.32c0,29.17-23.65,52.82-52.82,52.82s-52.82-23.65-52.82-52.82 c0-29.17,23.65-52.82,52.82-52.82S76.49,93.15,76.49,122.32L76.49,122.32z"/><path class="st86" d="M75.96,122.32c0-28.88-23.42-52.3-52.3-52.3s-52.3,23.41-52.3,52.3c0,28.88,23.42,52.3,52.3,52.3 S75.96,151.21,75.96,122.32L75.96,122.32z M77.53,122.32c0,29.75-24.12,53.87-53.87,53.87s-53.87-24.12-53.87-53.87 s24.12-53.87,53.87-53.87S77.53,92.57,77.53,122.32L77.53,122.32z"/><path class="st89" d="M77.01,122.32c0-29.46-23.88-53.35-53.34-53.35c-29.46,0-53.34,23.88-53.34,53.35s23.88,53.34,53.34,53.34 C53.13,175.67,77.01,151.79,77.01,122.32L77.01,122.32z M78.58,122.32c0,30.33-24.59,54.91-54.91,54.91s-54.91-24.59-54.91-54.91 s24.59-54.91,54.91-54.91S78.58,92,78.58,122.32L78.58,122.32z"/><path class="st97" d="M78.05,122.32c0-30.04-24.35-54.39-54.39-54.39c-30.04,0-54.39,24.35-54.39,54.39s24.35,54.39,54.39,54.39 C53.7,176.71,78.05,152.36,78.05,122.32L78.05,122.32z M79.62,122.32c0,30.9-25.05,55.96-55.96,55.96s-55.96-25.05-55.96-55.96 c0-30.91,25.05-55.96,55.96-55.96S79.62,91.42,79.62,122.32L79.62,122.32z"/><path class="st99" d="M79.1,122.32c0-30.62-24.82-55.44-55.44-55.44c-30.62,0-55.44,24.82-55.44,55.44s24.82,55.44,55.44,55.44 C54.28,177.76,79.1,152.94,79.1,122.32L79.1,122.32z M80.67,122.32c0,31.48-25.52,57.01-57.01,57.01s-57.01-25.52-57.01-57.01 c0-31.48,25.52-57.01,57.01-57.01S80.67,90.84,80.67,122.32L80.67,122.32z"/><path class="st113" d="M80.15,122.32c0-31.2-25.29-56.48-56.48-56.48s-56.48,25.29-56.48,56.48c0,31.19,25.29,56.48,56.48,56.48 S80.15,153.52,80.15,122.32L80.15,122.32z M81.71,122.32c0,32.06-25.99,58.05-58.05,58.05c-32.06,0-58.05-25.99-58.05-58.05 S-8.4,64.27,23.66,64.27C55.73,64.27,81.71,90.26,81.71,122.32L81.71,122.32z"/><path class="st115" d="M81.19,122.32c0-31.77-25.76-57.53-57.53-57.53s-57.53,25.76-57.53,57.53c0,31.77,25.76,57.53,57.53,57.53 S81.19,154.1,81.19,122.32L81.19,122.32z M82.76,122.32c0,32.64-26.46,59.1-59.1,59.1c-32.64,0-59.1-26.46-59.1-59.1 s26.46-59.1,59.1-59.1C56.3,63.23,82.76,89.69,82.76,122.32L82.76,122.32z"/><path class="st116" d="M82.24,122.32c0-32.35-26.22-58.57-58.57-58.57s-58.57,26.22-58.57,58.57s26.22,58.57,58.57,58.57 S82.24,154.67,82.24,122.32L82.24,122.32z M83.81,122.32c0,33.22-26.93,60.14-60.14,60.14s-60.14-26.93-60.14-60.14 s26.93-60.14,60.14-60.14S83.81,89.11,83.81,122.32L83.81,122.32z"/><path class="st119" d="M83.29,122.32c0-32.93-26.69-59.62-59.62-59.62s-59.62,26.69-59.62,59.62s26.69,59.62,59.62,59.62 S83.29,155.25,83.29,122.32L83.29,122.32z M84.85,122.32c0,33.79-27.4,61.19-61.19,61.19c-33.79,0-61.19-27.4-61.19-61.19 c0-33.79,27.4-61.19,61.19-61.19C57.46,61.13,84.85,88.53,84.85,122.32L84.85,122.32z"/><path class="st122" d="M84.33,122.32c0-33.51-27.16-60.67-60.67-60.67S-37,88.82-37,122.32c0,33.5,27.16,60.67,60.67,60.67 S84.33,155.83,84.33,122.32L84.33,122.32z M85.9,122.32c0,34.37-27.86,62.23-62.23,62.23c-34.37,0-62.24-27.86-62.24-62.23 s27.86-62.24,62.24-62.24C58.04,60.09,85.9,87.95,85.9,122.32L85.9,122.32z"/><path class="st2" d="M85.38,122.32c0-34.08-27.63-61.71-61.71-61.71s-61.71,27.63-61.71,61.71c0,34.08,27.63,61.71,61.71,61.71 S85.38,156.41,85.38,122.32L85.38,122.32z M86.95,122.32c0,34.95-28.33,63.28-63.28,63.28c-34.95,0-63.28-28.33-63.28-63.28 s28.33-63.28,63.28-63.28C58.61,59.04,86.95,87.38,86.95,122.32L86.95,122.32z"/><path class="st5" d="M86.42,122.32c0-34.66-28.1-62.76-62.76-62.76s-62.76,28.1-62.76,62.76s28.1,62.76,62.76,62.76 S86.42,156.98,86.42,122.32L86.42,122.32z M87.99,122.32c0,35.53-28.8,64.33-64.33,64.33s-64.33-28.8-64.33-64.33 S-11.86,58,23.66,58S87.99,86.8,87.99,122.32L87.99,122.32z"/><path class="st7" d="M87.47,122.32c0-35.24-28.57-63.81-63.81-63.81s-63.8,28.57-63.8,63.81s28.57,63.8,63.8,63.8 S87.47,157.56,87.47,122.32L87.47,122.32z M89.04,122.32c0,36.1-29.27,65.37-65.37,65.37s-65.37-29.27-65.37-65.37 c0-36.11,29.27-65.37,65.37-65.37S89.04,86.22,89.04,122.32L89.04,122.32z"/><path class="st21" d="M88.51,122.32c0-35.82-29.03-64.85-64.85-64.85s-64.85,29.03-64.85,64.85s29.03,64.85,64.85,64.85 S88.51,158.14,88.51,122.32L88.51,122.32z M90.08,122.32c0,36.68-29.74,66.42-66.42,66.42s-66.42-29.74-66.42-66.42 c0-36.68,29.74-66.42,66.42-66.42S90.08,85.64,90.08,122.32L90.08,122.32z"/><path class="st22" d="M89.56,122.32c0-36.39-29.5-65.9-65.9-65.9s-65.9,29.5-65.9,65.9c0,36.39,29.5,65.9,65.9,65.9 S89.56,158.72,89.56,122.32L89.56,122.32z M91.13,122.32c0,37.26-30.21,67.46-67.47,67.46s-67.47-30.21-67.47-67.46 s30.21-67.47,67.47-67.47S91.13,85.06,91.13,122.32L91.13,122.32z"/><path class="st24" d="M90.61,122.32c0-36.97-29.97-66.94-66.94-66.94c-36.97,0-66.94,29.97-66.94,66.94s29.97,66.94,66.94,66.94 C60.64,189.27,90.61,159.29,90.61,122.32L90.61,122.32z M92.18,122.32c0,37.84-30.67,68.51-68.51,68.51s-68.51-30.67-68.51-68.51 s30.67-68.51,68.51-68.51S92.18,84.49,92.18,122.32L92.18,122.32z"/><path class="st26" d="M91.65,122.32c0-37.55-30.44-67.99-67.99-67.99c-37.55,0-67.99,30.44-67.99,67.99s30.44,67.99,67.99,67.99 C61.21,190.31,91.65,159.87,91.65,122.32L91.65,122.32z M93.22,122.32c0,38.41-31.14,69.56-69.56,69.56 c-38.42,0-69.56-31.14-69.56-69.56c0-38.42,31.14-69.56,69.56-69.56C62.08,52.77,93.22,83.91,93.22,122.32L93.22,122.32z"/><path class="st30" d="M92.7,122.32c0-38.13-30.91-69.03-69.04-69.03s-69.03,30.91-69.03,69.03s30.91,69.03,69.03,69.03 S92.7,160.45,92.7,122.32L92.7,122.32z M94.27,122.32c0,38.99-31.61,70.6-70.6,70.6c-38.99,0-70.6-31.61-70.6-70.6 c0-38.99,31.61-70.6,70.6-70.6C62.66,51.72,94.27,83.33,94.27,122.32L94.27,122.32z"/><path class="st39" d="M93.74,122.32c0-38.71-31.38-70.08-70.08-70.08c-38.7,0-70.08,31.38-70.08,70.08 c0,38.7,31.38,70.08,70.08,70.08C62.37,192.4,93.74,161.03,93.74,122.32L93.74,122.32z M95.31,122.32 c0,39.57-32.08,71.65-71.65,71.65s-71.65-32.08-71.65-71.65s32.08-71.65,71.65-71.65S95.31,82.75,95.31,122.32L95.31,122.32z"/><path class="st42" d="M94.79,122.32c0-39.28-31.85-71.13-71.13-71.13c-39.28,0-71.13,31.84-71.13,71.13 c0,39.28,31.84,71.13,71.13,71.13C62.95,193.45,94.79,161.61,94.79,122.32L94.79,122.32z M96.36,122.32 c0,40.15-32.55,72.7-72.7,72.7s-72.7-32.55-72.7-72.7s32.55-72.7,72.7-72.7S96.36,82.18,96.36,122.32L96.36,122.32z"/><path class="st45" d="M95.84,122.32c0-39.86-32.31-72.17-72.17-72.17s-72.17,32.31-72.17,72.17s32.31,72.17,72.17,72.17 S95.84,162.18,95.84,122.32L95.84,122.32z M97.4,122.32c0,40.73-33.01,73.74-73.74,73.74c-40.73,0-73.74-33.01-73.74-73.74 s33.02-73.74,73.74-73.74C64.39,48.58,97.4,81.6,97.4,122.32L97.4,122.32z"/><path class="st59" d="M96.88,122.32c0-40.44-32.78-73.22-73.22-73.22c-40.44,0-73.22,32.78-73.22,73.22s32.78,73.22,73.22,73.22 C64.1,195.54,96.88,162.76,96.88,122.32L96.88,122.32z M98.45,122.32c0,41.3-33.48,74.79-74.79,74.79 c-41.3,0-74.79-33.48-74.79-74.79c0-41.3,33.48-74.79,74.79-74.79C64.97,47.54,98.45,81.02,98.45,122.32L98.45,122.32z"/><path class="st61" d="M97.93,122.32c0-41.02-33.25-74.26-74.26-74.26c-41.02,0-74.26,33.25-74.26,74.26 c0,41.01,33.25,74.26,74.26,74.26C64.68,196.59,97.93,163.34,97.93,122.32L97.93,122.32z M99.5,122.32 c0,41.88-33.95,75.83-75.83,75.83s-75.83-33.95-75.83-75.83s33.95-75.83,75.83-75.83S99.5,80.44,99.5,122.32L99.5,122.32z"/><path class="st63" d="M98.97,122.32c0-41.59-33.72-75.31-75.31-75.31c-41.59,0-75.31,33.72-75.31,75.31 c0,41.59,33.72,75.31,75.31,75.31C65.26,197.63,98.97,163.92,98.97,122.32L98.97,122.32z M100.54,122.32 c0,42.46-34.42,76.88-76.88,76.88s-76.88-34.42-76.88-76.88s34.42-76.88,76.88-76.88S100.54,79.87,100.54,122.32L100.54,122.32z"/><path class="st65" d="M100.02,122.32c0-42.17-34.19-76.36-76.36-76.36s-76.36,34.19-76.36,76.36s34.19,76.36,76.36,76.36 S100.02,164.49,100.02,122.32L100.02,122.32z M101.59,122.32c0,43.04-34.89,77.92-77.93,77.92c-43.04,0-77.93-34.89-77.93-77.92 S-19.37,44.4,23.66,44.4C66.7,44.4,101.59,79.29,101.59,122.32L101.59,122.32z"/><path class="st69" d="M101.07,122.32c0-42.75-34.65-77.4-77.4-77.4c-42.75,0-77.4,34.65-77.4,77.4s34.65,77.4,77.4,77.4 C66.41,199.73,101.07,165.07,101.07,122.32L101.07,122.32z M102.63,122.32c0,43.61-35.36,78.97-78.97,78.97 c-43.61,0-78.97-35.36-78.97-78.97c0-43.62,35.36-78.97,78.97-78.97C67.28,43.35,102.63,78.71,102.63,122.32L102.63,122.32z"/><path class="st87" d="M102.11,122.32c0-43.33-35.12-78.45-78.45-78.45c-43.33,0-78.45,35.12-78.45,78.45s35.12,78.45,78.45,78.45 C66.99,200.77,102.11,165.65,102.11,122.32L102.11,122.32z M103.68,122.32c0,44.19-35.83,80.02-80.02,80.02 c-44.19,0-80.02-35.82-80.02-80.02c0-44.19,35.83-80.02,80.02-80.02C67.86,42.31,103.68,78.13,103.68,122.32L103.68,122.32z"/><path class="st90" d="M103.16,122.32c0-43.9-35.59-79.49-79.49-79.49c-43.9,0-79.49,35.59-79.49,79.49 c0,43.9,35.59,79.49,79.49,79.49C67.57,201.82,103.16,166.23,103.16,122.32L103.16,122.32z M104.73,122.32 c0,44.77-36.29,81.06-81.06,81.06s-81.06-36.29-81.06-81.06s36.29-81.06,81.06-81.06S104.73,77.55,104.73,122.32L104.73,122.32z"/><path class="st93" d="M104.21,122.32c0-44.48-36.06-80.54-80.54-80.54c-44.48,0-80.54,36.06-80.54,80.54 c0,44.48,36.06,80.54,80.54,80.54C68.14,202.86,104.21,166.8,104.21,122.32L104.21,122.32z M105.77,122.32 c0,45.35-36.76,82.11-82.11,82.11c-45.35,0-82.11-36.76-82.11-82.11s36.76-82.11,82.11-82.11 C69.01,40.21,105.77,76.98,105.77,122.32L105.77,122.32z"/><path class="st114" d="M105.25,122.32c0-45.06-36.53-81.59-81.59-81.59s-81.59,36.53-81.59,81.59s36.53,81.59,81.59,81.59 S105.25,167.38,105.25,122.32L105.25,122.32z M106.82,122.32c0,45.92-37.23,83.15-83.15,83.15c-45.93,0-83.16-37.23-83.16-83.15 c0-45.93,37.23-83.16,83.16-83.16C69.59,39.17,106.82,76.4,106.82,122.32L106.82,122.32z"/><path class="st117" d="M106.3,122.32c0-45.64-37-82.63-82.63-82.63c-45.64,0-82.63,37-82.63,82.63s37,82.63,82.63,82.63 C69.3,204.96,106.3,167.96,106.3,122.32L106.3,122.32z M107.87,122.32c0,46.5-37.7,84.2-84.2,84.2c-46.5,0-84.2-37.7-84.2-84.2 c0-46.5,37.7-84.2,84.2-84.2C70.17,38.12,107.87,75.82,107.87,122.32L107.87,122.32z"/><path class="st120" d="M107.34,122.32c0-46.21-37.46-83.68-83.68-83.68c-46.21,0-83.68,37.46-83.68,83.68 c0,46.21,37.46,83.68,83.68,83.68C69.88,206,107.34,168.54,107.34,122.32L107.34,122.32z M108.91,122.32 c0,47.08-38.17,85.25-85.25,85.25c-47.08,0-85.25-38.17-85.25-85.25s38.17-85.25,85.25-85.25 C70.74,37.08,108.91,75.24,108.91,122.32L108.91,122.32z"/><path class="st123" d="M108.39,122.32c0-46.79-37.93-84.72-84.73-84.72c-46.79,0-84.72,37.93-84.72,84.72 c0,46.79,37.93,84.72,84.72,84.72C70.46,207.05,108.39,169.12,108.39,122.32L108.39,122.32z M109.96,122.32 c0,47.66-38.63,86.29-86.29,86.29s-86.29-38.63-86.29-86.29S-24,36.03,23.66,36.03S109.96,74.67,109.96,122.32L109.96,122.32z"/><path class="st3" d="M109.43,122.32c0-47.37-38.4-85.77-85.77-85.77s-85.77,38.4-85.77,85.77s38.4,85.77,85.77,85.77 S109.43,169.69,109.43,122.32L109.43,122.32z M111,122.32c0,48.24-39.1,87.34-87.34,87.34c-48.24,0-87.34-39.1-87.34-87.34 s39.1-87.34,87.34-87.34C71.9,34.98,111,74.09,111,122.32L111,122.32z"/><path class="st6" d="M110.48,122.32c0-47.95-38.87-86.82-86.82-86.82c-47.95,0-86.82,38.87-86.82,86.82s38.87,86.81,86.82,86.81 C71.61,209.14,110.48,170.27,110.48,122.32L110.48,122.32z M112.05,122.32c0,48.81-39.57,88.38-88.39,88.38 c-48.81,0-88.39-39.57-88.39-88.38c0-48.81,39.57-88.39,88.39-88.39C72.48,33.94,112.05,73.51,112.05,122.32L112.05,122.32z"/><path class="st9" d="M111.53,122.32c0-48.53-39.34-87.86-87.86-87.86c-48.52,0-87.86,39.34-87.86,87.86 c0,48.52,39.34,87.86,87.86,87.86C72.19,210.19,111.53,170.85,111.53,122.32L111.53,122.32z M113.1,122.32 c0,49.39-40.04,89.43-89.43,89.43c-49.39,0-89.43-40.04-89.43-89.43c0-49.39,40.04-89.43,89.43-89.43 C73.05,32.89,113.1,72.93,113.1,122.32L113.1,122.32z"/><path class="st23" d="M112.57,122.32c0-49.1-39.81-88.91-88.91-88.91c-49.1,0-88.91,39.8-88.91,88.91 c0,49.1,39.81,88.91,88.91,88.91C72.77,211.23,112.57,171.43,112.57,122.32L112.57,122.32z M114.14,122.32 c0,49.97-40.51,90.48-90.48,90.48s-90.48-40.51-90.48-90.48s40.51-90.48,90.48-90.48S114.14,72.36,114.14,122.32L114.14,122.32z"/><path class="st25" d="M113.62,122.32c0-49.68-40.27-89.95-89.95-89.95s-89.95,40.27-89.95,89.95s40.27,89.95,89.95,89.95 S113.62,172,113.62,122.32L113.62,122.32z M115.19,122.32c0,50.55-40.98,91.52-91.52,91.52c-50.55,0-91.52-40.97-91.52-91.52 S-26.88,30.8,23.66,30.8C74.21,30.8,115.19,71.78,115.19,122.32L115.19,122.32z"/><path class="st28" d="M114.66,122.32c0-50.26-40.74-91-91-91c-50.26,0-91,40.74-91,91s40.74,91,91,91 C73.92,213.32,114.66,172.58,114.66,122.32L114.66,122.32z M116.23,122.32c0,51.12-41.44,92.57-92.57,92.57 c-51.12,0-92.57-41.45-92.57-92.57c0-51.13,41.44-92.57,92.57-92.57C74.79,29.75,116.23,71.2,116.23,122.32L116.23,122.32z"/><path class="st33" d="M115.71,122.32c0-50.84-41.21-92.05-92.05-92.05c-50.84,0-92.05,41.21-92.05,92.05 c0,50.83,41.21,92.04,92.05,92.04C74.5,214.37,115.71,173.16,115.71,122.32L115.71,122.32z M117.28,122.32 c0,51.7-41.91,93.61-93.62,93.61c-51.7,0-93.62-41.91-93.62-93.61c0-51.7,41.91-93.62,93.62-93.62 C75.37,28.71,117.28,70.62,117.28,122.32L117.28,122.32z"/><path class="st41" d="M116.76,122.32c0-51.41-41.68-93.09-93.09-93.09c-51.41,0-93.09,41.68-93.09,93.09 c0,51.41,41.68,93.09,93.09,93.09C75.08,215.42,116.76,173.74,116.76,122.32L116.76,122.32z M118.32,122.32 c0,52.28-42.38,94.66-94.66,94.66S-71,174.6-71,122.32s42.38-94.66,94.66-94.66S118.32,70.04,118.32,122.32L118.32,122.32z"/><path class="st44" d="M117.8,122.32c0-51.99-42.15-94.14-94.14-94.14c-51.99,0-94.14,42.15-94.14,94.14 c0,51.99,42.15,94.14,94.14,94.14C75.65,216.46,117.8,174.31,117.8,122.32L117.8,122.32z M119.37,122.32 c0,52.86-42.85,95.71-95.71,95.71c-52.86,0-95.71-42.85-95.71-95.71s42.85-95.71,95.71-95.71 C76.52,26.62,119.37,69.47,119.37,122.32L119.37,122.32z"/><path class="st58" d="M118.85,122.32c0-52.57-42.62-95.18-95.18-95.18s-95.18,42.62-95.18,95.18s42.62,95.18,95.18,95.18 S118.85,174.89,118.85,122.32L118.85,122.32z M120.42,122.32c0,53.44-43.32,96.75-96.75,96.75c-53.44,0-96.75-43.32-96.75-96.75 s43.32-96.75,96.75-96.75C77.1,25.57,120.42,68.89,120.42,122.32L120.42,122.32z"/><path class="st60" d="M119.89,122.32c0-53.15-43.08-96.23-96.23-96.23c-53.15,0-96.23,43.08-96.23,96.23s43.08,96.23,96.23,96.23 C76.81,218.55,119.89,175.47,119.89,122.32L119.89,122.32z M121.46,122.32c0,54.01-43.79,97.8-97.8,97.8 c-54.01,0-97.8-43.79-97.8-97.8c0-54.01,43.79-97.8,97.8-97.8C77.68,24.53,121.46,68.31,121.46,122.32L121.46,122.32z"/><path class="st62" d="M120.94,122.32c0-53.72-43.55-97.28-97.28-97.28c-53.72,0-97.28,43.55-97.28,97.28 c0,53.72,43.55,97.28,97.28,97.28C77.39,219.6,120.94,176.05,120.94,122.32L120.94,122.32z M122.51,122.32 c0,54.59-44.26,98.84-98.85,98.84c-54.59,0-98.85-44.25-98.85-98.84s44.25-98.84,98.85-98.84 C78.25,23.48,122.51,67.73,122.51,122.32L122.51,122.32z"/><path class="st67" d="M121.99,122.32c0-54.3-44.02-98.32-98.32-98.32c-54.3,0-98.32,44.02-98.32,98.32 c0,54.3,44.02,98.32,98.32,98.32C77.96,220.64,121.99,176.63,121.99,122.32L121.99,122.32z M123.55,122.32 c0,55.17-44.72,99.89-99.89,99.89s-99.89-44.72-99.89-99.89s44.72-99.89,99.89-99.89S123.55,67.16,123.55,122.32L123.55,122.32z"/><path class="st71" d="M123.03,122.32c0-54.88-44.49-99.37-99.37-99.37S-75.7,67.45-75.7,122.32s44.49,99.37,99.37,99.37 S123.03,177.2,123.03,122.32L123.03,122.32z M124.6,122.32c0,55.75-45.19,100.94-100.94,100.94 c-55.75,0-100.94-45.19-100.94-100.94S-32.08,21.39,23.66,21.39C79.41,21.39,124.6,66.58,124.6,122.32L124.6,122.32z"/><path class="st88" d="M124.08,122.32c0-55.46-44.96-100.41-100.41-100.41c-55.46,0-100.41,44.96-100.41,100.41 s44.96,100.41,100.41,100.41C79.12,222.74,124.08,177.78,124.08,122.32L124.08,122.32z M125.65,122.32 c0,56.32-45.66,101.98-101.98,101.98c-56.32,0-101.98-45.66-101.98-101.98C-78.32,66-32.66,20.34,23.66,20.34 C79.99,20.34,125.65,66,125.65,122.32L125.65,122.32z"/><path class="st92" d="M125.12,122.32c0-56.04-45.42-101.46-101.46-101.46c-56.04,0-101.46,45.42-101.46,101.46 s45.42,101.46,101.46,101.46C79.7,223.78,125.12,178.36,125.12,122.32L125.12,122.32z M126.69,122.32 c0,56.9-46.13,103.03-103.03,103.03c-56.9,0-103.03-46.13-103.03-103.03c0-56.9,46.13-103.03,103.03-103.03 C80.56,19.3,126.69,65.42,126.69,122.32L126.69,122.32z"/><path class="st101" d="M126.17,122.32c0-56.61-45.89-102.51-102.51-102.51c-56.61,0-102.51,45.89-102.51,102.51 c0,56.61,45.89,102.51,102.51,102.51C80.28,224.83,126.17,178.94,126.17,122.32L126.17,122.32z M127.74,122.32 c0,57.48-46.6,104.07-104.07,104.07S-80.41,179.8-80.41,122.32S-33.82,18.25,23.66,18.25S127.74,64.85,127.74,122.32 L127.74,122.32z"/><path class="st103" d="M127.21,122.32c0-57.19-46.36-103.55-103.55-103.55S-79.89,65.13-79.89,122.32s46.36,103.55,103.55,103.55 S127.21,179.51,127.21,122.32L127.21,122.32z M128.79,122.32c0,58.06-47.06,105.12-105.12,105.12 c-58.06,0-105.12-47.06-105.12-105.12S-34.39,17.2,23.66,17.2C81.72,17.2,128.79,64.27,128.79,122.32L128.79,122.32z"/><path class="st107" d="M128.26,122.32c0-57.77-46.83-104.6-104.6-104.6c-57.77,0-104.6,46.83-104.6,104.6s46.83,104.6,104.6,104.6 C81.43,226.92,128.26,180.09,128.26,122.32L128.26,122.32z M129.83,122.32c0,58.63-47.53,106.17-106.17,106.17 c-58.63,0-106.17-47.53-106.17-106.17c0-58.63,47.53-106.17,106.17-106.17C82.3,16.16,129.83,63.69,129.83,122.32L129.83,122.32z"/><path class="st110" d="M129.31,122.32c0-58.35-47.3-105.64-105.65-105.64c-58.35,0-105.64,47.3-105.64,105.64 s47.3,105.64,105.64,105.64C82.01,227.97,129.31,180.67,129.31,122.32L129.31,122.32z M130.88,122.32 c0,59.21-48,107.21-107.21,107.21c-59.21,0-107.21-48-107.21-107.21c0-59.21,48-107.21,107.21-107.21 C82.88,15.11,130.88,63.11,130.88,122.32L130.88,122.32z"/><path class="st112" d="M130.35,122.32c0-58.92-47.77-106.69-106.69-106.69c-58.92,0-106.69,47.77-106.69,106.69 c0,58.92,47.77,106.69,106.69,106.69C82.59,229.01,130.35,181.25,130.35,122.32L130.35,122.32z M131.92,122.32 c0,59.79-48.47,108.26-108.26,108.26S-84.6,182.11-84.6,122.32c0-59.79,48.47-108.26,108.26-108.26S131.92,62.53,131.92,122.32 L131.92,122.32z"/><path class="st124" d="M131.4,122.32c0-59.5-48.24-107.74-107.74-107.74c-59.5,0-107.74,48.23-107.74,107.74 c0,59.5,48.23,107.73,107.74,107.73C83.16,230.06,131.4,181.82,131.4,122.32L131.4,122.32z M132.97,122.32 c0,60.37-48.94,109.3-109.31,109.3c-60.37,0-109.31-48.94-109.31-109.3S-36.7,13.02,23.66,13.02 C84.03,13.02,132.97,61.96,132.97,122.32L132.97,122.32z"/><path class="st127" d="M132.45,122.32c0-60.08-48.7-108.78-108.78-108.78S-85.12,62.25-85.12,122.32s48.7,108.78,108.78,108.78 S132.45,182.4,132.45,122.32L132.45,122.32z M134.02,122.32c0,60.95-49.41,110.35-110.35,110.35 c-60.95,0-110.35-49.4-110.35-110.35c0-60.94,49.41-110.35,110.35-110.35C84.61,11.97,134.02,61.38,134.02,122.32L134.02,122.32z"/><path class="st10" d="M133.49,122.32c0-60.66-49.17-109.83-109.83-109.83c-60.66,0-109.83,49.17-109.83,109.83 s49.17,109.83,109.83,109.83C84.32,232.15,133.49,182.98,133.49,122.32L133.49,122.32z M135.06,122.32 c0,61.52-49.88,111.4-111.4,111.4c-61.52,0-111.4-49.88-111.4-111.4c0-61.52,49.87-111.4,111.4-111.4 C85.19,10.93,135.06,60.8,135.06,122.32L135.06,122.32z"/><path class="st12" d="M134.54,122.32c0-61.23-49.64-110.87-110.87-110.87c-61.23,0-110.87,49.64-110.87,110.87 c0,61.23,49.64,110.87,110.87,110.87C84.9,233.2,134.54,183.56,134.54,122.32L134.54,122.32z M136.11,122.32 c0,62.1-50.34,112.44-112.44,112.44c-62.1,0-112.44-50.34-112.44-112.44c0-62.1,50.34-112.44,112.44-112.44 C85.76,9.88,136.11,60.22,136.11,122.32L136.11,122.32z"/><path class="st15" d="M135.58,122.32c0-61.81-50.11-111.92-111.92-111.92c-61.81,0-111.92,50.11-111.92,111.92 c0,61.81,50.11,111.92,111.92,111.92C85.47,234.24,135.58,184.13,135.58,122.32L135.58,122.32z M137.15,122.32 c0,62.68-50.81,113.49-113.49,113.49S-89.83,185-89.83,122.32c0-62.68,50.81-113.49,113.49-113.49S137.15,59.65,137.15,122.32 L137.15,122.32z"/><path class="st18" d="M136.63,122.32c0-62.39-50.58-112.97-112.97-112.97S-89.3,59.94-89.3,122.32 c0,62.39,50.58,112.96,112.97,112.96S136.63,184.71,136.63,122.32L136.63,122.32z M138.2,122.32 c0,63.26-51.28,114.53-114.54,114.53c-63.26,0-114.53-51.28-114.53-114.53S-39.59,7.79,23.66,7.79 C86.92,7.79,138.2,59.07,138.2,122.32L138.2,122.32z"/><path class="st29" d="M137.68,122.32c0-62.97-51.04-114.01-114.01-114.01S-90.35,59.36-90.35,122.32S-39.3,236.33,23.66,236.33 S137.68,185.29,137.68,122.32L137.68,122.32z M139.24,122.32c0,63.83-51.75,115.58-115.58,115.58 c-63.83,0-115.58-51.75-115.58-115.58c0-63.83,51.75-115.58,115.58-115.58C87.5,6.74,139.24,58.49,139.24,122.32L139.24,122.32z"/><path class="st32" d="M138.72,122.32c0-63.54-51.51-115.06-115.06-115.06c-63.54,0-115.06,51.51-115.06,115.06 c0,63.54,51.51,115.06,115.06,115.06C87.21,237.38,138.72,185.87,138.72,122.32L138.72,122.32z M140.29,122.32 c0,64.41-52.22,116.63-116.63,116.63c-64.41,0-116.63-52.21-116.63-116.63C-92.96,57.91-40.75,5.7,23.66,5.7 C88.07,5.7,140.29,57.91,140.29,122.32L140.29,122.32z"/><path class="st35" d="M139.77,122.32c0-64.12-51.98-116.1-116.1-116.1c-64.12,0-116.1,51.98-116.1,116.1 c0,64.12,51.98,116.1,116.1,116.1C87.79,238.43,139.77,186.45,139.77,122.32L139.77,122.32z M141.34,122.32 C141.34,187.31,88.65,240,23.66,240S-94.01,187.31-94.01,122.32c0-64.99,52.68-117.67,117.67-117.67S141.34,57.34,141.34,122.32 L141.34,122.32z"/><path class="st47" d="M140.81,122.32c0-64.7-52.45-117.15-117.15-117.15S-93.49,57.62-93.49,122.32 c0,64.7,52.45,117.15,117.15,117.15S140.81,187.02,140.81,122.32L140.81,122.32z M142.38,122.32 c0,65.57-53.15,118.72-118.72,118.72c-65.57,0-118.72-53.15-118.72-118.72C-95.06,56.76-41.9,3.61,23.66,3.61 C89.23,3.61,142.38,56.76,142.38,122.32L142.38,122.32z"/><path class="st49" d="M141.86,122.32c0-65.28-52.92-118.2-118.2-118.2c-65.28,0-118.2,52.92-118.2,118.2 c0,65.28,52.92,118.2,118.2,118.2C88.94,240.52,141.86,187.6,141.86,122.32L141.86,122.32z M143.43,122.32 c0,66.14-53.62,119.76-119.76,119.76c-66.14,0-119.76-53.62-119.76-119.76C-96.1,56.18-42.48,2.56,23.66,2.56 C89.81,2.56,143.43,56.18,143.43,122.32L143.43,122.32z"/><path class="st51" d="M142.9,122.32C142.9,56.47,89.52,3.08,23.66,3.08c-65.86,0-119.24,53.39-119.24,119.24 s53.39,119.24,119.24,119.24C89.52,241.56,142.9,188.18,142.9,122.32L142.9,122.32z M144.47,122.32 c0,66.72-54.09,120.81-120.81,120.81c-66.72,0-120.81-54.09-120.81-120.81C-97.15,55.6-43.06,1.51,23.66,1.51 C90.38,1.51,144.47,55.6,144.47,122.32L144.47,122.32z"/><path class="st56" d="M143.95,122.32C143.95,55.89,90.1,2.04,23.66,2.04c-66.43,0-120.29,53.85-120.29,120.29 c0,66.43,53.85,120.29,120.29,120.29C90.1,242.61,143.95,188.76,143.95,122.32L143.95,122.32z M145.52,122.32 c0,67.3-54.56,121.86-121.86,121.86S-98.19,189.62-98.19,122.32c0-67.3,54.56-121.86,121.86-121.86S145.52,55.02,145.52,122.32 L145.52,122.32z"/><path class="st66" d="M145,122.32C145,55.31,90.67,0.99,23.66,0.99c-67.01,0-121.33,54.32-121.33,121.33 c0,67.01,54.32,121.33,121.33,121.33C90.67,243.66,145,189.33,145,122.32L145,122.32z M146.57,122.32 c0,67.88-55.03,122.9-122.9,122.9s-122.9-55.03-122.9-122.9c0-67.88,55.02-122.9,122.9-122.9S146.57,54.45,146.57,122.32 L146.57,122.32z"/><path class="st70" d="M146.04,122.32c0-67.59-54.79-122.38-122.38-122.38S-98.72,54.74-98.72,122.32 c0,67.59,54.79,122.38,122.38,122.38S146.04,189.91,146.04,122.32L146.04,122.32z M147.61,122.32 c0,68.46-55.49,123.95-123.95,123.95c-68.46,0-123.95-55.49-123.95-123.95S-44.79-1.62,23.66-1.62 C92.12-1.62,147.61,53.87,147.61,122.32L147.61,122.32z"/><path class="st74" d="M147.09,122.32C147.09,54.16,91.83-1.1,23.66-1.1C-44.5-1.1-99.76,54.16-99.76,122.32 S-44.5,245.75,23.66,245.75C91.83,245.75,147.09,190.49,147.09,122.32L147.09,122.32z M148.66,122.32 c0,69.03-55.96,124.99-124.99,124.99c-69.03,0-124.99-55.96-124.99-124.99c0-69.03,55.96-124.99,124.99-124.99 C92.7-2.67,148.66,53.29,148.66,122.32L148.66,122.32z"/><path class="st75" d="M148.13,122.32c0-68.74-55.73-124.47-124.47-124.47c-68.74,0-124.47,55.73-124.47,124.47 c0,68.74,55.73,124.47,124.47,124.47C92.41,246.79,148.13,191.07,148.13,122.32L148.13,122.32z M149.71,122.32 c0,69.61-56.43,126.04-126.04,126.04c-69.61,0-126.04-56.43-126.04-126.04c0-69.61,56.43-126.04,126.04-126.04 C93.27-3.72,149.71,52.71,149.71,122.32L149.71,122.32z"/><path class="st76" d="M149.18,122.32C149.18,53,92.98-3.19,23.66-3.19c-69.32,0-125.52,56.2-125.52,125.52 c0,69.32,56.2,125.52,125.52,125.52C92.98,247.84,149.18,191.64,149.18,122.32L149.18,122.32z M150.75,122.32 c0,70.19-56.9,127.09-127.09,127.09s-127.09-56.9-127.09-127.09c0-70.19,56.9-127.09,127.09-127.09S150.75,52.14,150.75,122.32 L150.75,122.32z"/><path class="st77" d="M150.23,122.32c0-69.9-56.66-126.56-126.56-126.56c-69.9,0-126.56,56.66-126.56,126.56 c0,69.9,56.66,126.56,126.56,126.56C93.56,248.89,150.23,192.22,150.23,122.32L150.23,122.32z M151.8,122.32 c0,70.77-57.37,128.13-128.13,128.13c-70.77,0-128.13-57.37-128.13-128.13S-47.1-5.81,23.66-5.81 C94.43-5.81,151.8,51.56,151.8,122.32L151.8,122.32z"/><path class="st78" d="M151.27,122.32c0-70.48-57.13-127.61-127.61-127.61s-127.61,57.13-127.61,127.61 c0,70.48,57.13,127.61,127.61,127.61S151.27,192.8,151.27,122.32L151.27,122.32z M152.84,122.32 c0,71.34-57.83,129.18-129.18,129.18c-71.34,0-129.18-57.84-129.18-129.18c0-71.34,57.83-129.18,129.18-129.18 C95.01-6.85,152.84,50.98,152.84,122.32L152.84,122.32z"/><path class="st79" d="M152.32,122.32c0-71.05-57.6-128.66-128.65-128.66c-71.05,0-128.66,57.6-128.66,128.66 c0,71.05,57.6,128.65,128.66,128.65C94.72,250.98,152.32,193.38,152.32,122.32L152.32,122.32z M153.89,122.32 c0,71.92-58.3,130.22-130.23,130.22c-71.92,0-130.22-58.3-130.22-130.22C-106.56,50.4-48.26-7.9,23.66-7.9 C95.58-7.9,153.89,50.4,153.89,122.32L153.89,122.32z"/><path class="st80" d="M153.37,122.32c0-71.63-58.07-129.7-129.7-129.7c-71.63,0-129.7,58.07-129.7,129.7 c0,71.63,58.07,129.7,129.7,129.7C95.3,252.03,153.37,193.96,153.37,122.32L153.37,122.32z M154.93,122.32 c0,72.5-58.77,131.27-131.27,131.27s-131.27-58.77-131.27-131.27c0-72.5,58.77-131.27,131.27-131.27S154.93,49.83,154.93,122.32 L154.93,122.32z"/><path class="st81" d="M154.41,122.32c0-72.21-58.54-130.75-130.75-130.75c-72.21,0-130.75,58.54-130.75,130.75 c0,72.21,58.54,130.75,130.75,130.75C95.87,253.07,154.41,194.53,154.41,122.32L154.41,122.32z M155.98,122.32 c0,73.08-59.24,132.31-132.32,132.31c-73.08,0-132.32-59.24-132.32-132.31S-49.41-9.99,23.66-9.99 C96.74-9.99,155.98,49.25,155.98,122.32L155.98,122.32z"/><path class="st82" d="M155.46,122.32c0-72.79-59.01-131.79-131.79-131.79s-131.79,59.01-131.79,131.79 c0,72.79,59.01,131.79,131.79,131.79S155.46,195.11,155.46,122.32L155.46,122.32z M157.03,122.32 c0,73.65-59.71,133.36-133.36,133.36c-73.65,0-133.36-59.71-133.36-133.36c0-73.65,59.71-133.36,133.36-133.36 C97.32-11.04,157.03,48.67,157.03,122.32L157.03,122.32z"/><path class="st83" d="M156.5,122.32c0-73.37-59.47-132.84-132.84-132.84c-73.37,0-132.84,59.47-132.84,132.84 S-49.7,255.16,23.66,255.16C97.03,255.16,156.5,195.69,156.5,122.32L156.5,122.32z M157.55,122.32 c0,73.94-59.94,133.88-133.89,133.88c-73.94,0-133.89-59.94-133.89-133.88c0-73.94,59.94-133.89,133.89-133.89 C97.61-11.56,157.55,48.38,157.55,122.32L157.55,122.32z"/></g><path class="st72" d="M24.54,77.02l18.05-28.63c2.87-4.56,9.02-5.68,13.33-2.46L70.29,56.7c1.32,0.98,3.13,0.98,4.44-0.02 l19.38-14.71c2.58-1.97,5.96,1.14,4.24,3.89L80.28,74.47c-2.87,4.56-9.02,5.68-13.33,2.46L52.59,66.16 c-1.32-0.98-3.13-0.98-4.44,0.02L28.77,80.89C26.19,82.86,22.81,79.77,24.54,77.02L24.54,77.02z"/></g></svg>