<?xml version="1.0" encoding="utf-8"?><svg version="1.1" id="Layer_1" xmlns="http://www.w3.org/2000/svg" xmlns:xlink="http://www.w3.org/1999/xlink" x="0px" y="0px" viewBox="0 0 122.88 109.79" style="enable-background:new 0 0 122.88 109.79" xml:space="preserve"><style type="text/css"><![CDATA[
	.st0{fill:#188038;}
	.st1{fill:#1967D2;}
	.st2{fill:#EA4335;}
	.st3{fill:#FBBC04;}
	.st4{fill:#34A853;}
	.st5{fill:#4285F4;}
]]></style><g><path class="st1" d="M9.29,94.1l5.42,9.36c1.13,1.97,2.74,3.52,4.65,4.64l19.35-33.5H0c0,2.18,0.56,4.36,1.69,6.33L9.29,94.1 L9.29,94.1z"/><path class="st4" d="M61.44,35.19L42.09,1.69c-1.9,1.13-3.52,2.67-4.65,4.65L1.69,68.27C0.59,70.19,0,72.38,0,74.6l38.71,0 L61.44,35.19L61.44,35.19z"/><path class="st2" d="M103.53,108.1c1.9-1.13,3.52-2.67,4.65-4.64l2.25-3.87l10.77-18.65c1.13-1.97,1.69-4.15,1.69-6.33H84.17 l8.24,16.19L103.53,108.1L103.53,108.1z"/><path class="st0" d="M61.44,35.19l19.35-33.5C78.89,0.56,76.71,0,74.46,0H48.42c-2.25,0-4.43,0.63-6.33,1.69L61.44,35.19 L61.44,35.19z"/><path class="st5" d="M84.17,74.6H38.71l-19.35,33.5c1.9,1.13,4.08,1.69,6.33,1.69h71.5c2.25,0,4.44-0.63,6.33-1.69L84.17,74.6 L84.17,74.6z"/><path class="st3" d="M103.31,37.3L85.44,6.33c-1.13-1.97-2.74-3.52-4.64-4.65l-19.35,33.5L84.17,74.6h38.64 c0-2.18-0.56-4.36-1.69-6.33L103.31,37.3L103.31,37.3z"/></g></svg>