<svg xmlns="http://www.w3.org/2000/svg" viewBox="0 0 40 40" id="hbo">
  <path d="M13 12.07v13.78H9.2v-5.08H6.79v5.08H3V12.07h3.79v5.24H9.2v-5.24Zm17 4.11A2.82 2.82 0 1 0 32.81 19 2.82 2.82 0 0 0 30 16.18Zm0 0A2.82 2.82 0 1 0 32.81 19 2.82 2.82 0 0 0 30 16.18Zm0 0A2.82 2.82 0 1 0 32.81 19 2.82 2.82 0 0 0 30 16.18Zm0 0A2.82 2.82 0 1 0 32.81 19 2.82 2.82 0 0 0 30 16.18ZM30 12a7 7 0 0 0-6.41 4.17 3.83 3.83 0 0 0-1.08-3 4.63 4.63 0 0 0-3.37-1H13.8v13.71h5.33a4 4 0 0 0 3.05-.88 4.38 4.38 0 0 0 1.28-3.46A7 7 0 1 0 30 12ZM19.66 22.36a1.24 1.24 0 0 1-.82.29h-1.69v-2.1h1.69A1 1 0 0 1 20 21.62a.94.94 0 0 1-.34.74Zm0-5.07a1.16 1.16 0 0 1-.82.31h-1.7v-2.18h1.67a1.36 1.36 0 0 1 .92.24 1.13 1.13 0 0 1 .27.86 1 1 0 0 1-.33.77Zm1.94 1.63c.29-.18 1-.44 1.42-.72a7 7 0 0 0-.02.8 5.33 5.33 0 0 0 .08 1 9 9 0 0 0-1.47-1.08Zm8.4 3.54A3.46 3.46 0 1 1 33.45 19 3.46 3.46 0 0 1 30 22.46Zm0-6.28A2.82 2.82 0 1 0 32.81 19 2.82 2.82 0 0 0 30 16.18Z"></path>
</svg>
