<svg xmlns="http://www.w3.org/2000/svg"  viewBox="0 0 48 48" width="96px" height="96px"><linearGradient id="NLuo2Y0ix_NHwhlrzCyRta" x1="24" x2="24" y1="24.082" y2="42.456" gradientUnits="userSpaceOnUse"><stop offset="0" stop-color="#c21734"/><stop offset=".429" stop-color="#ba1632"/><stop offset="1" stop-color="#a8142e"/></linearGradient><path fill="url(#NLuo2Y0ix_NHwhlrzCyRta)" d="M45,27.5H3V33l0.003,0.001v0.53c-0.009,0.783,0.406,1.571,1.251,1.938l15.096,6.563 c2.966,1.289,6.334,1.289,9.299,0l15.096-6.563c0.845-0.368,1.26-1.155,1.251-1.938v-0.53L45,33V27.5z"/><linearGradient id="NLuo2Y0ix_NHwhlrzCyRtb" x1="23.015" x2="24.876" y1="17.954" y2="35.993" gradientUnits="userSpaceOnUse"><stop offset="0" stop-color="#f44f5a"/><stop offset="1" stop-color="#e52030"/></linearGradient><path fill="url(#NLuo2Y0ix_NHwhlrzCyRtb)" d="M43.746,25.53L28.65,18.967c-2.966-1.289-6.334-1.289-9.299,0L4.254,25.53 c-0.857,0.372-1.268,1.176-1.247,1.97c-0.021,0.794,0.39,1.597,1.247,1.969l15.096,6.563c2.966,1.289,6.334,1.289,9.299,0 l15.096-6.563c0.857-0.372,1.268-1.176,1.247-1.969C45.013,26.706,44.602,25.903,43.746,25.53z"/><linearGradient id="NLuo2Y0ix_NHwhlrzCyRtc" x1="24" x2="24" y1="13.579" y2="28.267" gradientUnits="userSpaceOnUse"><stop offset="0" stop-color="#9fa2a6"/><stop offset="1" stop-color="#ddddde"/></linearGradient><path fill="url(#NLuo2Y0ix_NHwhlrzCyRtc)" d="M24,29L24,29c-1.105,0-2-0.895-2-2V16h4v11C26,28.105,25.105,29,24,29z"/><linearGradient id="NLuo2Y0ix_NHwhlrzCyRtd" x1="22.948" x2="24.971" y1="5.285" y2="16.273" gradientUnits="userSpaceOnUse"><stop offset="0" stop-color="#f44f5a"/><stop offset="1" stop-color="#e52030"/></linearGradient><circle cx="24" cy="11" r="6" fill="url(#NLuo2Y0ix_NHwhlrzCyRtd)"/><linearGradient id="NLuo2Y0ix_NHwhlrzCyRte" x1="10.066" x2="11.132" y1="26.078" y2="29.569" gradientUnits="userSpaceOnUse"><stop offset="0" stop-color="#eaeaeb"/><stop offset="1" stop-color="#9fa2a6"/></linearGradient><ellipse cx="10.5" cy="27.5" fill="url(#NLuo2Y0ix_NHwhlrzCyRte)" rx="2.5" ry="1.5"/></svg>