<svg xmlns="http://www.w3.org/2000/svg" xmlns:xlink="http://www.w3.org/1999/xlink" viewBox="0,0,256,256" width="96px" height="96px" fill-rule="nonzero"><g fill="none" fill-rule="nonzero" stroke="none" stroke-width="1" stroke-linecap="butt" stroke-linejoin="miter" stroke-miterlimit="10" stroke-dasharray="" stroke-dashoffset="0" font-family="none" font-weight="none" font-size="none" text-anchor="none" style="mix-blend-mode: normal"><g transform="scale(5.33333,5.33333)"><path d="M20,37c2.761,0 5,-2.239 5,-5v-1v-1v-23.93h5.208c-0.031,-0.14 -0.072,-0.276 -0.097,-0.419h-0.001c-0.044,-0.248 -0.076,-0.495 -0.099,-0.746v-0.835h-7.011v23.93v1v1c0,2.761 -2.239,5 -5,5c-0.864,0 -1.665,-0.239 -2.375,-0.625c0.848,1.556 2.478,2.625 4.375,2.625z" fill="#39f4ed"></path><path d="M33.718,11.407c-0.797,-1.094 -1.364,-2.367 -1.607,-3.756h-0.001c-0.044,-0.248 -0.076,-0.495 -0.099,-0.746v-0.835h-1.803c0.491,2.182 1.761,4.062 3.51,5.337z" fill="#fb3159"></path><path d="M18,25c-2.761,0 -5,2.239 -5,5c0,1.897 1.069,3.527 2.625,4.375c-0.386,-0.71 -0.625,-1.511 -0.625,-2.375c0,-2.761 2.239,-5 5,-5c0.343,0 0.677,0.035 1,0.101v-7.05c-0.331,-0.028 -0.662,-0.051 -1,-0.051c-0.338,0 -0.669,0.023 -1,0.05v5.05c-0.323,-0.065 -0.657,-0.1 -1,-0.1z" fill="#fb3159"></path><path d="M36.257,13.783c0.867,0.541 1.819,0.908 2.806,1.131v-0.376v-0.002v-1.381c-1.7,0.003 -3.364,-0.473 -4.806,-1.373c-0.186,-0.116 -0.361,-0.247 -0.538,-0.376c0.687,0.945 1.544,1.757 2.538,2.377z" fill="#39f4ed"></path><path d="M19,20.05v-2c-0.331,-0.027 -0.662,-0.05 -1,-0.05c-6.627,0 -12,5.373 -12,12c0,3.824 1.795,7.222 4.581,9.419c-1.612,-2.042 -2.581,-4.615 -2.581,-7.419c0,-6.29 4.842,-11.44 11,-11.95z" fill="#39f4ed"></path><path d="M39.062,14.914v4.733c-3.375,0 -6.501,-1.071 -9.052,-2.894l0.003,13.247l-0.014,-0.018c0,0.006 0.001,0.012 0.001,0.018c0,6.627 -5.373,12 -12,12c-2.804,0 -5.377,-0.969 -7.419,-2.581c2.197,2.786 5.595,4.581 9.419,4.581c6.627,0 12,-5.373 12,-12c0,-0.006 -0.001,-0.012 -0.001,-0.018l0.014,0.018l-0.002,-13.248c2.551,1.823 5.677,2.894 9.052,2.894v-5.108v-0.002v-1.381c-0.678,0.002 -1.346,-0.094 -2.001,-0.241z" fill="#fb3159"></path><path d="M30,30c0,-0.006 -0.001,-0.012 -0.001,-0.018l0.014,0.018l-0.002,-13.248c2.551,1.823 5.677,2.894 9.052,2.894v-4.733c-0.987,-0.223 -1.939,-0.59 -2.806,-1.131c-0.994,-0.62 -1.851,-1.432 -2.538,-2.376c-1.75,-1.275 -3.019,-3.155 -3.51,-5.337h-5.209v23.931v1v1c0,2.761 -2.239,5 -5,5c-1.897,0 -3.527,-1.069 -4.375,-2.625c-1.556,-0.848 -2.625,-2.478 -2.625,-4.375c0,-2.761 2.239,-5 5,-5c0.343,0 0.677,0.035 1,0.101v-5.05c-6.158,0.509 -11,5.659 -11,11.949c0,2.804 0.969,5.377 2.581,7.419c2.042,1.612 4.615,2.581 7.419,2.581c6.627,0 12,-5.373 12,-12z" fill="#000000"></path></g></g></svg>