<svg xmlns="http://www.w3.org/2000/svg" xmlns:xlink="http://www.w3.org/1999/xlink" viewBox="0,0,256,256" width="96px" height="96px" fill-rule="nonzero"><g fill="#187cfb" fill-rule="nonzero" stroke="none" stroke-width="1" stroke-linecap="butt" stroke-linejoin="miter" stroke-miterlimit="10" stroke-dasharray="" stroke-dashoffset="0" font-family="none" font-weight="none" font-size="none" text-anchor="none" style="mix-blend-mode: normal"><g transform="scale(5.12,5.12)"><path d="M13,4c-4.963,0 -9,4.037 -9,9v24c0,4.963 4.037,9 9,9h24c4.963,0 9,-4.037 9,-9v-24c0,-4.963 -4.037,-9 -9,-9zM22.94336,11.7832c0.11,-0.007 0.22122,0.01287 0.32422,0.04688c0.371,0.124 0.5633,0.44819 0.5293,0.86719c-0.027,0.357 -0.2963,0.64617 -0.6543,0.70117c-0.151,0.027 -0.30798,0.027 -0.45898,0c-0.392,-0.076 -0.6813,-0.36438 -0.6543,-0.85938c0.041,-0.488 0.36406,-0.75586 0.91406,-0.75586zM14.80469,14.08594c0.17981,0.00055 0.36373,0.02125 0.55273,0.0625c0.66,0.151 1.09205,0.58283 1.37305,1.17383c0.144,0.323 0.23958,0.67325 0.26758,1.03125c0.048,0.577 0.03461,1.14794 -0.15039,1.71094c-0.131,0.44 -0.37784,0.83844 -0.71484,1.14844c-0.46,0.412 -1.01023,0.56295 -1.61523,0.50195c-0.433,-0.041 -0.85131,-0.20661 -1.19531,-0.47461c-0.048,0.041 -0.02734,0.09653 -0.02734,0.14453v1.95898c0,0.426 -0.00059,0.42578 -0.43359,0.42578c-0.247,0 -0.49519,-0.007 -0.74219,0c-0.158,0.007 -0.29477,-0.02201 -0.38477,-0.16602c-0.007,-2.398 -0.00586,-4.80984 -0.00586,-7.21484c0.112,-0.125 0.25606,-0.14567 0.41406,-0.13867c0.206,0.007 0.419,0 0.625,0c0.186,0 0.25359,0.06237 0.30859,0.23438c0.021,0.069 0.03369,0.13608 0.05469,0.20508c0,0.007 0.01434,0.01449 0.02734,0.02149c0.055,-0.027 0.10353,-0.06252 0.14453,-0.10352c0.4635,-0.345 0.96252,-0.52313 1.50195,-0.52148zM28.26172,14.08789c0.17175,0 0.34362,0.01823 0.51563,0.05273c0.323,0.069 0.61188,0.26016 0.79688,0.53516c0.014,0.021 0.02702,0.03483 0.04102,0.04883c-0.007,0.007 0.00081,0.00553 0.00781,0.01953c0.172,-0.103 0.34916,-0.21259 0.53516,-0.30859c0.481,-0.247 1.01755,-0.37075 1.56055,-0.34375c0.392,0.021 0.74844,0.13192 1.02344,0.41992c0.261,0.268 0.35872,0.59808 0.38672,0.95508c0.007,0.076 0.00586,0.14942 0.00586,0.23242v3.56055c0,0.309 -0.04061,0.34961 -0.34961,0.34961h-0.83789c-0.055,0 -0.11102,-0.00081 -0.16602,-0.00781c-0.082,-0.007 -0.15006,-0.0762 -0.16406,-0.1582c-0.014,-0.076 -0.01367,-0.15056 -0.01367,-0.22656v-3.18164c0.007,-0.131 -0.00702,-0.25491 -0.04102,-0.37891c-0.055,-0.213 -0.2468,-0.36295 -0.4668,-0.37695c-0.405,-0.028 -0.81259,0.05456 -1.18359,0.22656c-0.055,0.014 -0.08903,0.07 -0.08203,0.125v3.61328c0,0.069 0.00033,0.13122 -0.01367,0.19922c0,0.096 -0.07587,0.16406 -0.17187,0.16406c-0.103,0.007 -0.20641,0.00781 -0.31641,0.00781h-0.72656c-0.254,0 -0.30859,-0.06241 -0.30859,-0.31641v-3.25c0,-0.117 -0.00816,-0.24142 -0.03516,-0.35742c-0.048,-0.234 -0.24647,-0.39911 -0.48047,-0.41211c-0.412,-0.028 -0.83113,0.05537 -1.20312,0.23438c-0.055,0.014 -0.08917,0.07586 -0.07617,0.13086v3.66406c0,0.254 -0.05459,0.30859 -0.30859,0.30859h-0.92187c-0.24,0 -0.30078,-0.06973 -0.30078,-0.30273v-4.76758h-0.00195c0,-0.055 0.00553,-0.11102 0.01953,-0.16602c0.028,-0.082 0.11136,-0.13086 0.19336,-0.13086h0.85742c0.124,0 0.20019,0.07541 0.24219,0.19141c0.034,0.096 0.05389,0.18606 0.08789,0.28906c0.069,0 0.1102,-0.04817 0.1582,-0.07617c0.378,-0.234 0.77566,-0.43167 1.22266,-0.51367c0.172,-0.0345 0.34388,-0.05273 0.51563,-0.05273zM36.98828,14.13672c0.22937,0.02238 0.45433,0.07008 0.67383,0.14258c0.9,0.322 1.27125,1.19455 1.03125,2.06055c-0.096,0.344 -0.32186,0.59053 -0.63086,0.76953c-0.268,0.144 -0.55738,0.23439 -0.85937,0.27539c-0.515,0.082 -1.04455,0.07551 -1.56055,-0.02148c-0.062,-0.014 -0.13041,-0.02134 -0.19141,-0.02734c-0.034,0.618 0.34373,1.11933 0.92773,1.23633c0.426,0.076 0.86697,0.07633 1.29297,-0.01367c0.199,-0.041 0.39084,-0.08186 0.58984,-0.13086c0.199,-0.049 0.2832,0.0147 0.2832,0.2207c0,0.172 -0.007,0.34281 0,0.50781c0.007,0.179 -0.07637,0.27589 -0.23437,0.33789c-0.261,0.103 -0.5375,0.1727 -0.8125,0.2207c-0.522,0.082 -1.04927,0.10138 -1.57227,-0.01562c-0.914,-0.192 -1.51976,-0.73444 -1.75977,-1.64844c-0.186,-0.715 -0.21333,-1.43653 0.01367,-2.14453c0.323,-1.038 1.03219,-1.63381 2.11719,-1.75781c0.23,-0.031 0.46203,-0.03409 0.69141,-0.01172zM21.22656,14.19727c0.179,0.007 0.23991,0.06237 0.25391,0.23438c0.014,0.234 0.00781,0.47303 0.00781,0.70703c0.007,0.096 0.00033,0.1872 -0.01367,0.2832c-0.027,0.124 -0.07622,0.17155 -0.19922,0.18555c-0.096,0.007 -0.1872,-0.00081 -0.2832,-0.00781c-0.46,-0.041 -0.90684,0.04936 -1.33984,0.19336c-0.096,0.034 -0.0957,0.10173 -0.0957,0.17773v3.29883c0,0.062 0.00114,0.11574 -0.00586,0.17773c-0.007,0.089 -0.07701,0.1582 -0.16602,0.1582c-0.048,0.007 -0.10239,0.00781 -0.15039,0.00781h-0.89453c-0.048,0 -0.10239,-0.00081 -0.15039,-0.00781c-0.089,-0.007 -0.15902,-0.08188 -0.16602,-0.17187c-0.007,-0.055 -0.00586,-0.10906 -0.00586,-0.16406v-4.67578c0,-0.316 0.03361,-0.34961 0.34961,-0.34961h0.66016c0.179,0 0.26059,0.06237 0.30859,0.23438c0.048,0.172 0.08886,0.3443 0.13086,0.5293c0.048,-0.014 0.08919,-0.04103 0.11719,-0.08203c0.124,-0.124 0.25458,-0.24156 0.39258,-0.35156c0.357,-0.275 0.803,-0.41095 1.25,-0.37695zM22.38086,14.24219c0.357,-0.007 0.71331,-0.007 1.07031,0c0.158,0 0.2067,0.04903 0.2207,0.20703c0.007,0.062 0.00781,0.11769 0.00781,0.17969v4.57422c0,0.076 -0.00863,0.15252 -0.01563,0.22852c-0.007,0.089 -0.07506,0.1512 -0.16406,0.1582c-0.041,0.007 -0.07619,0.00586 -0.11719,0.00586h-0.95508c-0.034,0 -0.0617,0.00114 -0.0957,-0.00586c-0.096,-0.007 -0.17855,-0.08269 -0.18555,-0.17969c-0.007,-0.055 -0.00781,-0.11102 -0.00781,-0.16602c0.007,-0.763 0.00781,-1.54512 0.00781,-2.32812v-2.43945c0.007,-0.165 0.06937,-0.22738 0.23438,-0.23437zM36.67969,15.19141c-0.44,-0.027 -0.87213,0.14448 -1.07813,0.64649c-0.062,0.151 -0.10986,0.30961 -0.13086,0.47461c-0.014,0.11 -0.01511,0.10905 0.08789,0.12305c0.268,0.041 0.54255,0.0625 0.81055,0.0625c0.151,0.014 0.30226,0.0008 0.44727,-0.0332c0.24,-0.048 0.44144,-0.15239 0.52344,-0.40039c0.034,-0.117 0.03953,-0.24042 0.01953,-0.35742c-0.02,-0.193 -0.13545,-0.35759 -0.31445,-0.43359c-0.117,-0.048 -0.24123,-0.07603 -0.36523,-0.08203zM14.30078,15.25c-0.30178,-0.00314 -0.5915,0.07669 -0.875,0.21094c-0.089,0.034 -0.14567,0.11689 -0.13867,0.21289c0.007,0.412 0,0.82433 0,1.23633v1.24414c-0.005,0.082 0.04414,0.15641 0.11914,0.19141c0.309,0.165 0.65195,0.2407 1.00195,0.2207c0.234,0 0.45481,-0.08923 0.63281,-0.24023c0.158,-0.144 0.26841,-0.33778 0.31641,-0.55078c0.124,-0.419 0.12403,-0.85883 0.08203,-1.29883c-0.014,-0.24 -0.07669,-0.48117 -0.17969,-0.70117c-0.117,-0.268 -0.36334,-0.45314 -0.65234,-0.49414c-0.103,-0.0205 -0.20605,-0.0302 -0.30664,-0.03125zM18.53906,21.92969c0.147,-0.015 0.29555,0.01522 0.43555,0.07422c0.288,0.111 0.486,0.37555 0.5,0.68555c0.059,0.671 -0.39128,1.01109 -0.98828,0.99609c-0.081,0 -0.16119,-0.0153 -0.24219,-0.0293c-0.457,-0.111 -0.69244,-0.46466 -0.64844,-0.97266c0.037,-0.407 0.35406,-0.71009 0.78906,-0.74609c0.052,-0.007 0.1023,-0.01581 0.1543,-0.00781zM24.70313,21.98047h1.02539c0.221,0 0.28106,0.0513 0.28906,0.2793v7.77148c-0.007,0.214 -0.06644,0.2793 -0.27344,0.2793c-0.258,0.007 -0.51525,0 -0.78125,0h-0.17773c-0.125,0 -0.22881,-0.08122 -0.25781,-0.19922c-0.015,-0.089 -0.04503,-0.17681 -0.08203,-0.25781c-0.066,0.015 -0.09448,0.0657 -0.14648,0.0957c-0.686,0.509 -1.43919,0.63381 -2.24219,0.38281c-0.59,-0.177 -0.99439,-0.58895 -1.27539,-1.12695c-0.243,-0.487 -0.36914,-1.02531 -0.36914,-1.57031c-0.015,-0.582 0.03681,-1.15812 0.25781,-1.70312c0.229,-0.568 0.58239,-1.0475 1.15039,-1.3125c0.811,-0.376 1.61386,-0.29375 2.38086,0.15625c0.052,0.029 0.09025,0.07308 0.15625,0.08008c0.037,-0.052 0.01367,-0.1023 0.01367,-0.1543v-2.38867c0,-0.28 0.05203,-0.33203 0.33203,-0.33203zM35.96875,24.38477c0.235,0.00838 0.46917,0.0402 0.70117,0.0957c0.995,0.251 1.60591,0.89223 1.87891,1.86523c0.037,0.133 0.06703,0.27211 0.08203,0.41211c0,0.007 0.00586,0.00762 0.00586,0.01563h-0.01562v0.07422h0.00781c-0.007,0 -0.00781,0.00586 -0.00781,0.00586v0.05859c-0.015,0.037 0.0003,0.08133 0.0293,0.11133v-0.0293c0,0.007 0.00781,0.00763 0.00781,0.01563v0.84766h0.00195c-0.007,0.007 -0.01367,0.0223 -0.01367,0.0293v-0.01562c-0.044,0.029 -0.03825,0.06633 -0.03125,0.11133v0.10352h0.00781c-0.103,1.018 -0.74497,2.18905 -2.29297,2.37305c-0.465,0.066 -0.93672,0.03678 -1.38672,-0.07422c-0.848,-0.214 -1.43742,-0.72887 -1.73242,-1.54687c-0.339,-0.9 -0.34681,-1.88811 -0.00781,-2.78711c0.346,-0.944 1.06359,-1.47605 2.05859,-1.62305c0.236,-0.037 0.47203,-0.05134 0.70703,-0.04297zM29.85156,24.44922c0.369,-0.015 0.74366,0.03063 1.09766,0.14063c0.634,0.214 1.05398,0.62606 1.20898,1.28906c0.059,0.265 0.05981,0.54555 0.00781,0.81055c-0.081,0.428 -0.35314,0.79042 -0.74414,0.98242c-0.383,0.206 -0.81223,0.28741 -1.24023,0.31641c-0.494,0.037 -0.98761,-0.00084 -1.47461,-0.08984c-0.029,-0.015 -0.06651,-0.01367 -0.10352,-0.01367c0.014,0.158 0.04503,0.30417 0.08203,0.45117c0.133,0.501 0.47166,0.78877 0.97266,0.88477c0.501,0.088 1.01772,0.06722 1.51172,-0.05078c0.162,-0.037 0.31651,-0.07514 0.47852,-0.11914c0.214,-0.052 0.30059,0.02233 0.30859,0.23633v0.53125c0,0.229 -0.05067,0.30181 -0.26367,0.38281c-0.509,0.192 -1.04794,0.29573 -1.58594,0.30273c-0.369,0.015 -0.74447,-0.02233 -1.10547,-0.11133c-0.841,-0.229 -1.4295,-0.73712 -1.6875,-1.57812c-0.251,-0.818 -0.2883,-1.6527 -0.0293,-2.4707c0.383,-1.239 1.32741,-1.86453 2.56641,-1.89453zM11.41797,24.56836c0.42,-0.007 0.83995,0 1.25195,0c0.177,0 0.25873,0.11844 0.30273,0.27344c0.081,0.28 0.161,0.56766 0.25,0.84766c0.302,1.025 0.59739,2.05703 0.90039,3.08203c-0.007,0.007 0.00062,0.00781 0.01563,0.00781c0.044,-0.147 0.08881,-0.28855 0.13281,-0.43555c0.339,-1.143 0.67758,-2.27692 1.01758,-3.41992l0.04297,-0.13477c0.037,-0.133 0.16387,-0.21289 0.29688,-0.21289h1.11914c0.28,0 0.34014,0.08166 0.24414,0.34766l-0.44141,1.17188c-0.494,1.283 -0.98842,2.57247 -1.48242,3.85547c-0.015,0.044 -0.03773,0.08881 -0.05273,0.13281c-0.052,0.155 -0.20614,0.25719 -0.36914,0.24219c-0.324,-0.007 -0.64866,-0.007 -0.97266,0c-0.229,0.007 -0.36041,-0.09478 -0.44141,-0.30078c-0.184,-0.487 -0.37655,-0.9808 -0.56055,-1.4668c-0.442,-1.158 -0.89098,-2.31547 -1.33398,-3.48047c-0.046,-0.089 -0.07566,-0.19306 -0.09766,-0.28906c-0.022,-0.147 0.02974,-0.2207 0.17774,-0.2207zM18.00195,24.57617h1.06055c0.228,0 0.29492,0.06592 0.29492,0.29492v2.58008v2.6543c-0.015,0.147 -0.08052,0.2137 -0.22852,0.2207c-0.398,0.007 -0.7895,0.007 -1.1875,0c-0.147,0 -0.21352,-0.07289 -0.22852,-0.21289c-0.007,-0.044 -0.00781,-0.09662 -0.00781,-0.14062v-5.10156c0.007,-0.229 0.06788,-0.29492 0.29688,-0.29492zM29.70117,25.58203c-0.29906,0.02733 -0.56162,0.15308 -0.76562,0.42383c-0.177,0.236 -0.24292,0.51669 -0.29492,0.80469c-0.015,0.066 0.01603,0.09456 0.08203,0.10156c0.294,0.045 0.58762,0.06722 0.89063,0.07422c0.155,0.007 0.31003,-0.00711 0.45703,-0.03711c0.273,-0.052 0.51584,-0.16203 0.58984,-0.45703c0.096,-0.398 -0.02792,-0.80963 -0.54492,-0.89063c-0.037,0 -0.06652,-0.01562 -0.10352,-0.01562c-0.107,-0.011 -0.21086,-0.01302 -0.31055,-0.00391zM23.11719,25.64648c-0.324,0.022 -0.61844,0.20614 -0.77344,0.49414c-0.066,0.118 -0.11048,0.23633 -0.14648,0.36133c-0.111,0.45 -0.14784,0.92077 -0.08984,1.38477c0.022,0.258 0.08903,0.50814 0.20703,0.74414c0.155,0.302 0.45006,0.50987 0.78906,0.54688c0.398,0.059 0.8042,-0.02366 1.1582,-0.22266c0.081,-0.037 0.13219,-0.11708 0.11719,-0.20508v-1.3418c0,-0.45 -0.00619,-0.89261 0.00781,-1.34961c0.007,-0.096 -0.04381,-0.18289 -0.13281,-0.21289c-0.354,-0.162 -0.74672,-0.23622 -1.13672,-0.19922zM35.67578,25.68164c-0.31,0.022 -0.58995,0.19203 -0.75195,0.45703c-0.088,0.147 -0.16222,0.31828 -0.19922,0.48828c-0.103,0.428 -0.09755,0.86188 -0.06055,1.29688c0.022,0.251 0.08922,0.50147 0.19922,0.73047c0.125,0.288 0.38336,0.49373 0.69336,0.55273c0.14,0.029 0.27992,0.02962 0.41992,0.01563c0.28,-0.022 0.53917,-0.17044 0.70117,-0.39844c0.096,-0.133 0.16108,-0.27274 0.20508,-0.42773c0.089,-0.302 0.12552,-0.62031 0.10352,-0.94531c0.007,-0.133 -0.00081,-0.26348 -0.00781,-0.39648c-0.014,-0.288 -0.08789,-0.57598 -0.21289,-0.83398c-0.133,-0.273 -0.37492,-0.46544 -0.66992,-0.52344c-0.14,-0.029 -0.27992,-0.02962 -0.41992,-0.01562zM35.67773,32.6582c0.395,0.012 0.78302,0.03667 1.16602,0.13867c0.108,0.03 0.20955,0.06528 0.31055,0.11328c0.138,0.054 0.22809,0.18512 0.24609,0.32813c0.024,0.168 0.02958,0.34163 0.01758,0.51563c-0.078,1.025 -0.39487,2.01258 -0.92187,2.89258c-0.192,0.317 -0.42436,0.60447 -0.69336,0.85547c-0.054,0.054 -0.12136,0.09514 -0.19336,0.11914c-0.114,0.03 -0.18541,-0.02858 -0.19141,-0.14258c0.006,-0.06 0.01897,-0.11969 0.04297,-0.17969c0.21,-0.563 0.41222,-1.12017 0.57422,-1.70117c0.096,-0.317 0.16112,-0.63975 0.20313,-0.96875c0.012,-0.12 0.01786,-0.23938 0.00586,-0.35937c-0.006,-0.203 -0.13698,-0.3775 -0.33398,-0.4375c-0.186,-0.06 -0.37622,-0.09542 -0.57422,-0.10742c-0.551,-0.024 -1.10148,0.00027 -1.64648,0.07227l-0.72461,0.08984c-0.078,0.006 -0.14941,-0.00027 -0.19141,-0.07227c-0.042,-0.072 -0.02442,-0.14384 0.01758,-0.21484c0.048,-0.066 0.10769,-0.12597 0.17969,-0.16797c0.443,-0.317 0.9398,-0.50877 1.4668,-0.63477c0.407,-0.084 0.82123,-0.12667 1.24023,-0.13867zM12.74609,32.96484c0.04188,-0.00988 0.08545,-0.00628 0.12695,0.01172c0.054,0.024 0.10825,0.04812 0.15625,0.07813c2.149,1.329 4.49603,2.29905 6.95703,2.87305c0.826,0.192 1.65809,0.34122 2.49609,0.44922c1.203,0.15 2.41695,0.20116 3.62695,0.16016c0.652,-0.018 1.29931,-0.07616 1.94531,-0.16016c1.508,-0.192 2.99841,-0.53467 4.44141,-1.01367c0.76,-0.251 1.50352,-0.53805 2.22852,-0.87305c0.108,-0.06 0.23742,-0.07883 0.35742,-0.04883c0.198,0.049 0.31949,0.25417 0.27148,0.45117c-0.006,0.024 -0.01925,0.05412 -0.03125,0.07813c-0.048,0.09 -0.11327,0.16756 -0.19727,0.22656c-0.688,0.539 -1.43084,1.01125 -2.21484,1.40625c-1.479,0.748 -3.0595,1.28094 -4.6875,1.58594c-0.94,0.168 -1.88494,0.26869 -2.83594,0.30469c-0.239,-0.006 -0.47975,-0.006 -0.71875,0c-0.329,-0.018 -0.65828,-0.02873 -0.98828,-0.05273c-0.874,-0.066 -1.7418,-0.19753 -2.5918,-0.39453c-2.939,-0.682 -5.51853,-2.05387 -7.76953,-4.04687c-0.209,-0.186 -0.40733,-0.37636 -0.61133,-0.56836c-0.048,-0.042 -0.08928,-0.10211 -0.11328,-0.16211c-0.036,-0.084 -0.01898,-0.17523 0.04102,-0.24023c0.03,-0.0325 0.06945,-0.05458 0.11133,-0.06445z"></path></g></g></svg>