<?xml version="1.0" encoding="utf-8"?>
<!-- Generator: Adobe Illustrator 26.5.0, SVG Export Plug-In . SVG Version: 6.00 Build 0)  -->
<svg version="1.1" id="XMLID_00000020391154293019671730000011674451403356468111_"
	 xmlns="http://www.w3.org/2000/svg" xmlns:xlink="http://www.w3.org/1999/xlink" x="0px" y="0px" viewBox="0 0 144 144"
	 style="enable-background:new 0 0 144 144;" xml:space="preserve">
<style type="text/css">
	.st0{fill:#009CAD;}
	.st1{fill:#FFFFFF;}
</style>
<path class="st0" d="M136,144H8c-4.4,0-8-3.6-8-8V8c0-4.4,3.6-8,8-8h128c4.4,0,8,3.6,8,8v128C144,140.4,140.4,144,136,144z"/>
<path class="st1" d="M133.6,48c0,0-0.5-2.4-1.4-2.1c-0.5,0.2-2.1-0.4-3.3-1l-1.7-0.8l-5.4,0.1c-0.5-0.1-3.5,0-5.5,0.7
	c0,0,3.2-0.3,7,0.8c0.2,0.1,0.3,0.1,0.4,0.2c-1.1,0.4-7.8,1.7-8.7,1.7c-1.4,0,4.5,0.5,7.7,0.3l-2.1,2c-0.2,0.2-3.6,1.7-4.2,2.2
	c-0.8,0.3,2.2-0.2,2.2-0.2c-0.6,0.3-2.6,1.1-3.4,1.2c0,0,0.6,0.8,1.5,1c-1.2,0.3-3.1,0.7-3.6,0.7c0,0,1,0.2,1.6,0.6
	c-1,0.1-1.9,0.3-2.5,0.5c-0.7-0.8-2-2.6-1.9-4.2l5.5-12.2c0.8,1.7,2.1,2.9,1.6,2.2c-0.4-0.5-0.7-1.8-1-2.9l-0.1-0.6l1.7-3.8l0.3-0.2
	h0.4l0.7,0.4c0.3,0.5,0.9,1.4,1.4,1.8c0.2,0.8,0.6,1.7,1,2.4c0,0-0.7-2.5-0.2-3.9c-1.5-0.7-2.4-3.5-2.4-3.5l-1.2,0.5
	c-0.5,0-1.1-0.1-1.4-0.1c-0.9-0.4-1.7-0.8-2.2-1c-3.6-1.8-14.2-6.8-27.7-9.2C70,18.7,28,18.3,18,19.7c-9.9,1.5-5.9,1.2-5.9,1.2
	s19.1,2.3,36.5,8.2c-17.5,1.5-35.2,3.3-35.2,3.3l-8.2,2c3.2-0.4,7.1-0.6,11.4-0.7c2.6,0.2,5.7,0.4,9.1,0.7l10.4,1.8
	C77.7,43.6,52,61,52,61l-1.9,1.6c14-8.3,24.5-8.3,24.5-8.3C85.6,55,78,69.6,78,69.6c8.7-8.8,17.7-10,22.7-9.8c1.2,0.2,2.5,0.5,3.5,1
	c-0.3,0.3-2,2.2-2.3,2.5L94.2,65c-0.6,0.6,5.1,0,4.5,0.5c-0.8,0.6,0.3,0.3-0.5,0.9c-0.7,0.5-6.2,0.8-6.9,1.2c-0.7,0.4,3.9,0.7,3.2,1
	c-0.7,0.3-0.5,0.3-0.5,0.3s-0.2,0.1-0.5,0.2c-0.7,0.2-8.4,0.3-9.1,0.5c-0.6,0.2,3.8,1.4,3.1,1.6c-7,1.7-7.7,3.9-17.7,0.8
	c-0.8,0-4.9-3.6-5.6-3.7c-0.7,0,2.1,3.4,1.5,3.4c-0.5,0-6.9-3.1-7.3-3.1c-1.6-0.2,3.4,2.7,3.4,2.7c-1.1-0.2-1.7-0.6-2.7-0.7
	c-0.8-0.1-6.8-2.3-7.5-2.4c-0.4,0,3.5,2.2,3.1,2.2c-1.5-0.1-2.4-0.2-3.7-0.2c-0.9,0-6.8-1.5-7.6-1.5c-0.8,0.1,3.6,1.7,2.9,1.8
	c-3.6,0.4-5.8,1.1-5.8,1.1c-4.8,1.7-1.1,1.1-1.1,1.1c16-2.8,21.6,1.2,29,3.5C85,81.3,101.8,71,101.8,71l-1.1,2.1
	c0.3,2.1-2.1,4.2-2.1,4.2l-1.4,0.2l-1-0.8L94.9,78l-0.4,2.3c-0.1,0.3-0.4,1.5-0.7,2.7c-2.2,0.9-4.4,2.2-6.3,3.8
	c-10.3,8.6-11.6,23.9-3,34.2s24,11.6,34.3,3c0.1-0.1,0.2-0.2,0.3-0.3c-8.5,5.3-20.2,3.4-27.1-4.9c-7.6-9-6.8-22.2,1.8-29.4
	s21.8-5.7,29.4,3.3c1,1.2,1.9,2.5,2.6,3.8c-0.9-2.4-2.2-4.6-4-6.6c-5.7-6.8-14.3-9.7-22.5-8.4c0-1.9,2.3-3.1,2.3-3.1l3.6-0.2
	c4.5-2,6.5-6.1,6.5-6.1c0.6-2.2,0.5-3.8,0.3-4.7l5.1-3.6c0.6,0,1-0.1,1.3-0.1h1.5l1.2,0.2l0.8-0.3h0.3l0.1-0.2l5.7-2.1l-0.3,2.2
	l1.8-1.3c0.1,0.2,0.6,0.6,0.3,1.7c-0.1,0.5,1.3-1,1.3-1l0.5-0.6c0.1,0.4,0.1,0.8,0.1,0.8l0.6-1.6l0,0l0,0l0.4-1l-2.9-2.4l-6,0.7
	c-0.1,0.1-0.3,0.3-0.5,0.4c0.6-1.1,1.1-2.5,1.1-2.5l0.2-3.5l1.9-2.4l1-0.4c0.4,0.2,1,0.3,1.5,0.3c0.3,0.1,0.9,0.3,1.1,0.5l0.4,0.2
	l1.4-1.1c0,0-0.3,0-0.8,0h0.1h-0.1c-0.1,0-0.3,0-0.5,0v-0.2l-0.4,0.1c-0.7-0.5-1.6-1.6-1.6-1.6l1.1-1.2h1.5c0.1,0,0.6,0.1,0.6,0.1
	l0.5,0.7l0.2-0.4c0.8,0.2,0.7,0.8,0.7,0.8L133.6,48z M98.1,79.4L98.1,79.4L97,80.8C97.5,80,98.1,79.4,98.1,79.4z M128.4,46.3
	l-1.5,0.3l-1.5-1.3l3.3,0.7L128.4,46.3z"/>
</svg>
