<svg xmlns="http://www.w3.org/2000/svg"  viewBox="0 0 64 64" width="96px" height="96px"><linearGradient id="2ZJaTYhYbocnLW1tqPXJ3a" x1="32" x2="32" y1="30.149" y2="51.985" gradientUnits="userSpaceOnUse"><stop offset="0" stop-color="#1a6dff"/><stop offset="1" stop-color="#c822ff"/></linearGradient><path fill="url(#2ZJaTYhYbocnLW1tqPXJ3a)" d="M14.89,32.868c-5.288-2.578-7.139-2.909-11.237-2.644s-4.098,2.314-3.107,2.38	c0.992,0.066,1.256,0.132,1.256,0.132L2,32.275L0.81,31.746c0,0,5.156-1.322,11.567,1.784s8.064,7.139,6.28,9.122	s-4.892,2.975-8.725,2.115c-0.066-2.711,0.066-4.694,0.066-4.694s3.57-0.132,4.496,0.528c0.926,0.661,0.132,1.057-0.462,1.256	c0.86,0.528,1.521,0.727,2.115,0c0.595-0.727,1.256-3.833-6.015-3.636c-0.132-1.256,0.265-2.115-0.793-3.371	c-1.057-1.256-1.057,3.437-1.057,3.437s-2.71,0.396-4.958,1.983s4.627,5.42,4.627,5.42s0.132,1.719,1.123,1.917	C10.065,47.805,10,46.352,10,46.352s5.948,1.719,9.916-1.784C23.88,41.064,20.178,35.446,14.89,32.868z M8.016,44.303	c0,0-2.248-0.926-3.503-2.049c-1.256-1.123-0.86-1.322-0.265-1.454c0.595-0.132,2.909-0.727,3.899-0.727L8.016,44.303z M22.492,38.619c0,0-0.331,3.833-0.199,6.213c0.066,0.992,1.653,1.189,1.653,0.199c0-0.992-0.066-4.958-0.199-5.751	C23.615,38.487,22.888,37.826,22.492,38.619z M31.481,38.156c0,0-3.636-0.793-6.081,0.793c-1.189,0.793-0.86,2.248-0.199,2.314	s4.032,0.199,4.825,0.727c0.793,0.528,0.992,0.926,0.132,1.454c-0.86,0.528-2.776,0.793-3.57,0.528	c-0.793-0.265-1.057-1.653,0.396-0.926c1.454,0.727,4.098-0.132,2.314-0.727c-1.784-0.595-3.238-0.462-4.164,0.199	c-0.926,0.661,0.331,2.049,1.388,2.511c1.057,0.462,3.041,0.595,4.231-0.132c1.189-0.727,1.784-3.503-0.132-3.966	c-1.917-0.462-3.107-0.396-3.966-0.528c-0.86-0.132-0.462-0.462,0.926-0.595c1.388-0.132,2.38-0.199,3.57-0.396	C32.34,39.214,32.406,38.354,31.481,38.156z M36.373,39.148c0.132,0.595,0.661,2.842,0.661,3.768	c-0.661-0.992-1.719-2.975-2.644-3.899c-0.926-0.926-1.189-0.132-1.189-0.132s-0.926,3.371-0.661,5.552	c0.265,2.182,1.388,0.661,1.454,0c0.066-0.661,0.199-2.842,0.199-3.437c0.595,1.322,1.521,2.842,2.248,3.57	c0.727,0.727,1.454,0.265,1.719-0.396c0.265-0.661,1.123-4.231-0.926-6.609C35.185,35.185,36.241,38.553,36.373,39.148z M43.445,43.18c-0.727,0.066-2.842,0.396-2.842,0.396l0.462-1.388c0,0,1.388,0.066,2.511-0.066s0.331-1.388-0.066-1.388	c-0.396,0-1.85,0-1.85,0l0.331-0.926c0,0,2.445-0.066,3.238-0.199c0.793-0.132-0.462-1.454-1.388-1.521	c-0.926-0.066-2.909,0.199-4.231,0.462c-1.322,0.265,0.86,1.256,0.86,1.256s-0.199,0.661-0.462,1.123	c-0.793,0.132-0.727,0.595-0.462,1.189c-0.528,1.388-0.793,3.107,0.727,3.636c1.521,0.528,3.305-0.86,4.032-1.454	C45.031,43.705,44.172,43.113,43.445,43.18z M49.063,39.28c-0.992,0.992-2.71,3.57-2.71,3.57c0.199-1.719,0.661-2.182,1.719-3.899	c0.904-1.468-0.528-0.926-0.528-0.926s-3.371,2.842-1.917,6.081c-0.992,2.445-2.578,5.948-0.265,7.8	c0.595,0.396,0.396-0.793,0.595-1.454c0.199-0.661,0.86-4.032,1.521-4.958c1.587-0.132,4.429-0.727,4.892-5.024	C52.567,37.693,50.055,38.288,49.063,39.28z M51.112,41.462c-0.661,1.784-2.909,2.049-2.909,2.049s1.454-2.38,2.182-3.041	C51.112,39.809,51.773,39.676,51.112,41.462z M26.524,35.446c1.322-1.322,1.917-3.768-0.396-3.636c0,0-0.86-1.123-2.71-0.595	c-1.85,0.528-4.164,2.975-2.511,4.56c0,0.727,0.199,2.115,1.189,0.86C23.153,37.099,25.202,36.768,26.524,35.446z M21.5,34.718	c-0.199-0.992,0.331-1.917,2.049-2.248C23.549,32.472,21.765,33.925,21.5,34.718z M25.465,33.067	c1.85-0.727,1.256,1.057,0.265,1.784c-0.992,0.727-1.983,0.926-3.172,0.595C22.558,35.446,23.615,33.794,25.465,33.067z M63.781,40.074h-3.979c-0.082-1.316-0.24-2.719-0.531-4.039c-0.016-0.074-0.078-0.131-0.152-0.137	c-0.436-0.034-0.514-0.01-1.047,0.003c-0.146,0.004-0.247,0.141-0.209,0.281c0.165,0.608,0.324,2.159,0.403,3.891h-3.779	c-0.116,0-0.215,0.096-0.221,0.211l-0.1,1.002c-0.007,0.16,0.13,0.291,0.29,0.274l3.855,0.013c0.022,1.419-0.019,2.817-0.166,3.808	c-0.015,0.1,0.063,0.184,0.163,0.19c0.606,0.037,1.069,0.049,1.298,0.052c0.093,0.001,0.168-0.068,0.175-0.16	c0.035-0.481,0.127-1.995,0.082-3.885l3.914,0.013c0.122,0,0.221-0.099,0.221-0.222V40.29	C64.003,40.172,63.903,40.074,63.781,40.074z"/><linearGradient id="2ZJaTYhYbocnLW1tqPXJ3b" x1="34.364" x2="34.364" y1="16.25" y2="34" gradientUnits="userSpaceOnUse"><stop offset="0" stop-color="#6dc7ff"/><stop offset="1" stop-color="#e6abff"/></linearGradient><path fill="url(#2ZJaTYhYbocnLW1tqPXJ3b)" d="M33.255,16.25c-9.928,0-18.59,5.246-23.204,12.998l1.468,0.467	c4.396-7.148,12.483-11.965,21.736-11.965c11.004,0,20.382,6.799,23.832,16.25h1.59C55.172,23.707,45.104,16.25,33.255,16.25z"/></svg>