<?xml version="1.0" encoding="utf-8"?><svg version="1.1" id="Layer_1" xmlns="http://www.w3.org/2000/svg" xmlns:xlink="http://www.w3.org/1999/xlink" x="0px" y="0px" viewBox="0 0 122.88 122.88" style="enable-background:new 0 0 122.88 122.88" xml:space="preserve"><style type="text/css"><![CDATA[
	.st0{fill:#FFFFFF;}
	.st1{fill:#00B900;}
]]></style><g><path class="st1" d="M96.26,122.88H26.62C11.92,122.88,0,110.96,0,96.26V26.62C0,11.92,11.92,0,26.62,0h69.63 c14.71,0,26.62,11.92,26.62,26.62v69.63C122.88,110.96,110.96,122.88,96.26,122.88L96.26,122.88z"/><path class="st0" d="M105.98,56.04c0-20.02-20.07-36.31-44.74-36.31c-24.67,0-44.74,16.29-44.74,36.31 c0,17.95,15.92,32.98,37.42,35.82c1.46,0.31,3.44,0.96,3.94,2.21c0.45,1.13,0.29,2.9,0.14,4.04c0,0-0.52,3.16-0.64,3.83 c-0.2,1.13-0.9,4.42,3.88,2.41c4.77-2.01,25.77-15.17,35.15-25.97h0C102.87,71.26,105.98,64.05,105.98,56.04L105.98,56.04z"/><path class="st1" d="M52.15,46.36h-3.14c-0.48,0-0.87,0.39-0.87,0.87v19.49c0,0.48,0.39,0.87,0.87,0.87h3.14 c0.48,0,0.87-0.39,0.87-0.87V47.23C53.02,46.75,52.63,46.36,52.15,46.36L52.15,46.36z"/><path class="st1" d="M73.75,46.36h-3.14c-0.48,0-0.87,0.39-0.87,0.87v11.58l-8.93-12.06c-0.02-0.03-0.04-0.06-0.07-0.09 c0,0,0,0,0-0.01c-0.02-0.02-0.04-0.04-0.05-0.05c-0.01,0-0.01-0.01-0.02-0.02c-0.02-0.01-0.03-0.03-0.05-0.04 c-0.01-0.01-0.01-0.01-0.02-0.02c-0.01-0.01-0.03-0.02-0.04-0.03c-0.01-0.01-0.02-0.01-0.03-0.02c-0.02-0.01-0.03-0.02-0.05-0.03 c-0.01,0-0.02-0.01-0.03-0.01c-0.02-0.01-0.03-0.02-0.05-0.02c-0.01,0-0.02-0.01-0.03-0.01c-0.02-0.01-0.03-0.01-0.05-0.02 c-0.01,0-0.02,0-0.03-0.01c-0.02,0-0.03-0.01-0.05-0.01c-0.01,0-0.02,0-0.04-0.01c-0.02,0-0.03,0-0.05-0.01c-0.02,0-0.03,0-0.04,0 c-0.01,0-0.02,0-0.03,0h-3.14c-0.48,0-0.87,0.39-0.87,0.87v19.49c0,0.48,0.39,0.87,0.87,0.87h3.14c0.48,0,0.87-0.39,0.87-0.87 V55.15l8.94,12.08c0.06,0.09,0.14,0.16,0.22,0.21c0,0,0.01,0,0.01,0.01c0.02,0.01,0.04,0.02,0.05,0.03c0.01,0,0.02,0.01,0.03,0.01 c0.01,0.01,0.03,0.01,0.04,0.02s0.03,0.01,0.04,0.02c0.01,0,0.02,0.01,0.03,0.01c0.02,0.01,0.04,0.01,0.06,0.02c0,0,0.01,0,0.01,0 c0.07,0.02,0.15,0.03,0.22,0.03h3.14c0.48,0,0.87-0.39,0.87-0.87V47.23C74.62,46.75,74.23,46.36,73.75,46.36L73.75,46.36z"/><path class="st1" d="M44.59,62.71h-8.53V47.23c0-0.48-0.39-0.87-0.87-0.87h-3.14c-0.48,0-0.87,0.39-0.87,0.87v19.49 c0,0.23,0.09,0.45,0.24,0.6c0,0,0.01,0.01,0.01,0.01c0,0,0.01,0.01,0.01,0.01c0.16,0.15,0.37,0.24,0.6,0.24h12.54 c0.48,0,0.87-0.39,0.87-0.87v-3.14C45.46,63.11,45.07,62.71,44.59,62.71L44.59,62.71z"/><path class="st1" d="M91.08,51.24c0.48,0,0.87-0.39,0.87-0.87v-3.14c0-0.48-0.39-0.87-0.87-0.87H78.54c-0.23,0-0.45,0.09-0.6,0.25 c0,0-0.01,0.01-0.01,0.01c0,0.01-0.01,0.01-0.01,0.02c-0.15,0.16-0.24,0.37-0.24,0.6v19.49c0,0.23,0.09,0.45,0.24,0.6 c0,0,0.01,0.01,0.01,0.01c0,0,0.01,0.01,0.01,0.01c0.16,0.15,0.37,0.25,0.6,0.25h12.54c0.48,0,0.87-0.39,0.87-0.87v-3.14 c0-0.48-0.39-0.87-0.87-0.87h-8.53v-3.29h8.53c0.48,0,0.87-0.39,0.87-0.87v-3.14c0-0.48-0.39-0.87-0.87-0.87h-8.53v-3.29H91.08 L91.08,51.24z"/></g></svg>