<svg xmlns="http://www.w3.org/2000/svg" shape-rendering="geometricPrecision" text-rendering="geometricPrecision" image-rendering="optimizeQuality" fill-rule="evenodd" clip-rule="evenodd" viewBox="0 0 512 512"><defs><linearGradient id="prefix__a" gradientUnits="userSpaceOnUse" x1="251.069" y1=".003" x2="251.069" y2="507.468"><stop offset="0" stop-color="#6364FF"/><stop offset="1" stop-color="#563ACC"/></linearGradient></defs><path fill="url(#prefix__a)" d="M105 0h302c57.928.155 104.845 47.072 105 104.996V407c-.155 57.926-47.072 104.844-104.996 104.998L105 512C47.074 511.844.156 464.926.002 407.003L0 105C.156 47.072 47.074.155 104.997 0H105z"/><path fill="#fff" fill-rule="nonzero" d="M399.681 169.996c-4.462-33.167-33.37-59.307-67.639-64.37-5.782-.857-27.685-3.972-78.429-3.972h-.378c-50.757 0-61.645 3.115-67.427 3.972-33.314 4.922-63.738 28.409-71.119 61.97-3.55 16.527-3.929 34.852-3.269 51.659.94 24.105 1.122 48.166 3.312 72.172a339.605 339.605 0 007.9 47.34c7.016 28.76 35.419 52.695 63.246 62.461a169.628 169.628 0 0092.531 4.883 135.476 135.476 0 0010.005-2.735c7.465-2.372 16.208-5.024 22.637-9.683a.705.705 0 00.209-.245.695.695 0 00.084-.315V369.87a.673.673 0 00-.263-.53.687.687 0 00-.578-.13 256.39 256.39 0 01-60.046 7.017c-34.802 0-44.162-16.513-46.84-23.387a72.424 72.424 0 01-4.071-18.437.67.67 0 01.248-.559.672.672 0 01.593-.129 251.583 251.583 0 0059.064 7.016c4.785 0 9.557 0 14.341-.129 20.01-.559 41.104-1.584 60.789-5.429.493-.097.984-.182 1.404-.307 31.055-5.965 60.609-24.68 63.611-72.075.111-1.866.393-19.543.393-21.478.014-6.581 2.118-46.68-.308-71.317zm-49.97 37.265v82.399h-32.654v-79.972c0-16.837-7.017-25.424-21.288-25.424-15.691 0-23.549 10.159-23.549 30.22v43.777h-32.455v-43.777c0-20.061-7.874-30.22-23.562-30.22-14.188 0-21.274 8.587-21.274 25.424v79.972H162.29v-82.399c0-16.837 4.298-30.213 12.895-40.128 8.868-9.891 20.502-14.971 34.941-14.971 16.713 0 29.342 6.426 37.762 19.264l8.126 13.638 8.139-13.638c8.419-12.838 21.049-19.264 37.733-19.264 14.426 0 26.058 5.08 34.956 14.971 8.589 9.906 12.877 23.282 12.869 40.128z"/></svg>