<?xml version="1.0" encoding="utf-8"?><svg version="1.1" id="Livello_1" xmlns="http://www.w3.org/2000/svg" xmlns:xlink="http://www.w3.org/1999/xlink" x="0px" y="0px" viewBox="0 0 512 512" style="enable-background:new 0 0 512 512" xml:space="preserve"><style type="text/css">.st0{fill:#0364B8;} .st1{fill:#0078D4;} .st2{fill:#1490DF;} .st3{fill:#28A8EA;}</style><g id="STYLE_COLOR_1_"><path class="st0" d="M309.32,313.35L415,212.28c-21.95-85.6-109.14-137.19-194.74-115.24c-38.55,9.89-72.03,33.78-93.91,67.02 C128,164.02,309.32,313.35,309.32,313.35z"/><path class="st1" d="M195.24,183.09l0,0.02c-20.19-12.51-43.48-19.12-67.24-19.09c-0.55,0-1.09,0.03-1.64,0.04 C55.7,164.94-0.86,222.93,0.01,293.58c0.32,25.63,8.33,50.57,22.99,71.6l158.33-19.83l121.39-97.88L195.24,183.09z"/><path class="st2" d="M415,212.28c-2.32-0.16-4.66-0.26-7.02-0.26c-14.18-0.01-28.21,2.88-41.22,8.51l0-0.01l-64.04,26.95 l70.6,87.21l126.22,30.68c27.24-50.57,8.33-113.64-42.24-140.88C444.23,217.45,429.81,213.29,415,212.28L415,212.28L415,212.28z"/><path class="st3" d="M23,365.18c23.91,34.37,63.13,54.86,105,54.83h279.99c38.25,0.01,73.41-20.98,91.56-54.65l-196.83-117.9 L23,365.18z"/></g></svg>