<svg xmlns="http://www.w3.org/2000/svg" shape-rendering="geometricPrecision" text-rendering="geometricPrecision" image-rendering="optimizeQuality" fill-rule="evenodd" clip-rule="evenodd" viewBox="0 0 512 512"><rect fill="#FFFC00" width="512" height="512" rx="105" ry="105"/><g fill-rule="nonzero"><path fill="#fff" d="M424.16 341.5c-1.47-4.87-8.51-8.3-8.51-8.3v.01c-.65-.37-1.25-.67-1.76-.92-11.72-5.67-22.1-12.47-30.86-20.22-7.03-6.22-13.05-13.07-17.89-20.37-5.9-8.89-8.67-16.32-9.87-20.34-.66-2.62-.55-3.66 0-5.03.47-1.14 1.81-2.25 2.47-2.75 3.96-2.8 10.33-6.93 14.24-9.46 3.39-2.19 6.31-4.09 8.01-5.27 5.51-3.85 9.27-7.77 11.49-11.99 2.88-5.47 3.22-11.48.98-17.41-3.02-7.98-10.47-12.75-19.94-12.75-2.11 0-4.27.24-6.42.71-5.42 1.17-10.57 3.1-14.88 4.78a.472.472 0 01-.64-.46c.46-10.67.97-25-.21-38.64-1.07-12.33-3.6-22.72-7.75-31.77-4.17-9.09-9.58-15.82-13.82-20.67-4.05-4.64-11.13-11.45-21.83-17.57-15.07-8.62-32.22-12.99-50.97-12.99-18.71 0-35.84 4.37-50.92 12.98-11.33 6.47-18.57 13.79-21.88 17.58-4.24 4.85-9.64 11.58-13.81 20.67-4.15 9.05-6.69 19.44-7.75 31.77-1.19 13.66-.71 26.87-.22 38.63.02.35-.33.59-.65.47-4.3-1.68-9.46-3.61-14.87-4.78-2.15-.47-4.31-.71-6.42-.71-9.47 0-16.92 4.77-19.94 12.75-2.24 5.93-1.9 11.94.98 17.41 2.23 4.22 5.99 8.14 11.49 11.99 1.7 1.18 4.62 3.08 8.01 5.27 3.83 2.48 10.02 6.49 14 9.28.49.36 2.17 1.62 2.7 2.93.57 1.4.67 2.46-.05 5.24-1.24 4.06-4.01 11.39-9.8 20.13-4.85 7.3-10.87 14.15-17.9 20.37-8.76 7.75-19.14 14.55-30.86 20.22-.55.27-1.21.61-1.93 1.02v-.01s-7 3.58-8.32 8.2c-1.95 6.83 3.24 13.22 8.56 16.65 8.68 5.59 19.25 8.6 25.38 10.24 1.7.45 3.25.87 4.66 1.31.88.29 3.09 1.12 4.03 2.33 1.19 1.53 1.33 3.43 1.76 5.56.68 3.59 2.17 8.06 6.62 11.12 4.88 3.38 11.09 3.62 18.95 3.92 8.22.32 18.46.71 30.16 4.57 5.43 1.8 10.35 4.82 16.04 8.31 11.89 7.31 26.69 16.4 51.98 16.4 25.3 0 40.2-9.14 52.17-16.49 5.66-3.47 10.55-6.47 15.85-8.22 11.71-3.87 21.94-4.26 30.16-4.57 7.86-.3 14.07-.54 18.96-3.92 4.75-3.28 6.13-8.17 6.75-11.87.33-1.83.56-3.46 1.61-4.81.89-1.15 2.93-1.95 3.89-2.29 1.45-.45 3.05-.88 4.82-1.35 6.13-1.64 13.81-3.58 23.16-8.86 11.19-6.32 11.95-14.17 10.79-18.03z"/><path d="M408.78 351.17c-15.32 8.46-25.5 7.56-33.42 12.65-6.73 4.33-2.75 13.67-7.64 17.04-6 4.15-23.76-.29-46.68 7.28-18.91 6.25-30.98 24.23-65.03 24.23-34.12 0-45.83-17.89-65.02-24.23-22.93-7.57-40.68-3.13-46.69-7.28-4.88-3.37-.91-12.71-7.63-17.04-7.92-5.09-18.11-4.19-33.42-12.65-9.75-5.38-4.22-8.72-.97-10.29 55.49-26.86 64.33-68.34 64.73-71.46.48-3.72 1.01-6.65-3.1-10.45-3.96-3.66-21.55-14.54-26.42-17.95-8.08-5.63-11.63-11.27-9.01-18.19 1.8-4.78 6.29-6.59 11.01-6.59 1.47 0 2.96.18 4.4.49 8.86 1.93 17.47 6.36 22.45 7.57.68.16 1.29.24 1.83.24 2.64 0 3.58-1.34 3.4-4.37-.57-9.7-1.94-28.6-.42-46.26 2.1-24.29 9.94-36.33 19.25-46.98 4.47-5.12 25.46-27.3 65.61-27.3 40.26 0 61.15 22.18 65.62 27.3 9.31 10.65 17.15 22.69 19.24 46.98 1.53 17.66.21 36.57-.41 46.26-.21 3.19.75 4.37 3.4 4.37.54 0 1.15-.08 1.83-.24 4.98-1.21 13.58-5.64 22.45-7.57 1.44-.31 2.93-.49 4.4-.49 4.72 0 9.2 1.81 11.01 6.59 2.62 6.92-.93 12.56-9.01 18.19-4.88 3.41-22.46 14.29-26.43 17.95-4.1 3.8-3.57 6.73-3.1 10.45.4 3.12 9.25 44.6 64.74 71.46 3.25 1.57 8.78 4.91-.97 10.29zM265.06 79.91h-18.08c-17.08 1.22-32.88 5.93-47.09 14.05-12.03 6.87-20 14.55-24.58 19.78-10.99 12.57-21.52 28.35-24.12 58.45-.74 8.55-.92 17.3-.79 25.49-.75-.19-1.5-.36-2.26-.53-2.88-.63-5.79-.94-8.65-.94-13.79 0-25.2 7.48-29.75 19.53-3.29 8.69-2.75 17.93 1.51 26.01 3.02 5.74 7.85 10.88 14.77 15.7 1.84 1.29 4.69 3.14 8.3 5.48 1.95 1.26 4.8 3.11 7.6 4.95.42.3 1.93 1.4 2.43 2.45.58 1.2.6 2.49-.26 4.87-1.48 3.27-3.6 7.26-6.6 11.66-8.93 13.05-21.69 24.1-37.98 32.93-8.64 4.6-17.61 7.63-21.4 17.93-.85 2.31-1.28 4.71-1.28 7.14.01 5.77 2.45 11.69 7.55 16.93l.01-.01c2.39 2.57 5.39 4.85 9.18 6.93 8.89 4.91 16.45 7.32 22.4 8.97 1.04.31 3.46 1.1 4.52 2.02 2.65 2.32 2.27 5.81 5.8 10.91 2.13 3.18 4.6 5.34 6.62 6.74 7.4 5.11 15.72 5.43 24.52 5.77 7.96.3 16.97.65 27.28 4.05 4.26 1.41 8.69 4.13 13.83 7.29 11.05 6.79 25.77 15.83 49.06 17.63h16.81c23.32-1.81 38.14-10.89 49.26-17.72 5.1-3.13 9.51-5.83 13.66-7.2 10.29-3.41 19.31-3.75 27.27-4.05 8.8-.34 17.11-.66 24.51-5.77 2.33-1.61 5.24-4.22 7.55-8.22 2.53-4.31 2.47-7.35 4.85-9.43.97-.85 3.11-1.58 4.25-1.94 6-1.65 13.66-4.05 22.7-9.05 4.01-2.21 7.15-4.63 9.61-7.39.03-.03.06-.07.09-.1 6.81-7.33 8.52-15.92 5.73-23.5-2.49-6.77-7.23-10.4-12.63-13.4a40.52 40.52 0 00-2.72-1.44c-1.61-.83-3.25-1.64-4.9-2.49-16.83-8.92-29.97-20.18-39.1-33.53-3.08-4.51-5.22-8.58-6.7-11.89-.78-2.23-.75-3.48-.19-4.64.42-.88 1.55-1.8 2.15-2.24 2.89-1.91 5.89-3.86 7.91-5.16 3.6-2.34 6.45-4.19 8.3-5.48 6.91-4.82 11.74-9.96 14.77-15.7 4.26-8.08 4.8-17.32 1.51-26.01-4.56-12.05-15.96-19.53-29.75-19.53-2.86 0-5.77.31-8.66.94-.76.17-1.51.34-2.25.53.12-8.19-.05-16.94-.79-25.49-2.6-30.1-13.13-45.88-24.13-58.45-4.58-5.24-12.55-12.93-24.52-19.77-14.2-8.13-30.02-12.84-47.13-14.06z"/></g></svg>