<svg id="Layer_1" data-name="Layer 1" xmlns="http://www.w3.org/2000/svg" viewBox="0 0 122.88 122.88"><defs><style>.cls-1{fill:#1ab7ea;}.cls-1,.cls-2{fill-rule:evenodd;}.cls-2{fill:#fff;}</style></defs><title>vimeo-square-color</title><path class="cls-1" d="M25.2,0H97.68a25.27,25.27,0,0,1,25.2,25.2V97.68a25.27,25.27,0,0,1-25.2,25.2H25.2A25.27,25.27,0,0,1,0,97.68V25.2A25.27,25.27,0,0,1,25.2,0Z"/><path class="cls-2" d="M98.16,44.33q-.5,10.72-15,29.38-15,19.46-25.36,19.47Q51.4,93.18,47,81.33,44,70.46,41,59.59q-3.29-11.87-7.08-11.85c-.54,0-2.47,1.16-5.76,3.45l-3.46-4.45c3.63-3.1,7.21-6.36,10.69-9.51Q42.67,31,46.3,30.63q8.58-.82,10.56,11.72,2.13,13.55,3,16.84c1.65,7.49,3.45,11.24,5.44,11.24q2.3,0,6.93-7.3t5-11.09c.44-4.19-1.21-6.3-5-6.3A13.55,13.55,0,0,0,66.77,47Q72.19,29.2,87.46,29.71q11.31.3,10.67,14.67h0l0-.05Z"/></svg>