<svg xmlns="http://www.w3.org/2000/svg"  viewBox="0 0 333333 333333" shape-rendering="geometricPrecision" text-rendering="geometricPrecision" image-rendering="optimizeQuality" fill-rule="evenodd" clip-rule="evenodd"><path d="M166667 0c92048 0 166667 74619 166667 166667s-74619 166667-166667 166667S0 258715 0 166667 74619 0 166667 0zm92108 123746c-833 17926-13356 42521-37587 73685-25057 32543-46263 48857-63611 48857-10720 0-19831-9896-27252-29734-4961-18177-9896-36356-14872-54527-5506-19837-11417-29735-17750-29735-1373 0-6196 2915-14468 8673l-8674-11161c9107-7778 18098-15952 26817-23854 12128-10471 21242-15977 27324-16566 14329-1370 23192 8421 26490 29411 3561 22646 6046 36723 7455 42233 4135 18783 8672 28183 13641 28183 3847 0 9652-6084 17385-18297 7703-12161 11843-21446 12418-27826 1119-10506-3020-15804-12418-15804-4425 0-8961 1013-13642 3030 9063-29663 26344-44059 51905-43233 18906 503 27830 12773 26752 36795l17-11 71-117z" fill="#1ab7ea"/></svg>