<svg id="Layer_1" data-name="Layer 1" xmlns="http://www.w3.org/2000/svg" viewBox="0 0 122.88 122.88"><defs><style>.cls-1{fill:#fecb00;}.cls-2{fill:#d08b00;}.cls-2,.cls-3{fill-rule:evenodd;}.cls-3{fill:#db9300;}.cls-4{fill:#b17600;}</style></defs><title>bitcoin-color</title><path class="cls-1" d="M61.44,0A61.46,61.46,0,1,1,18,18,61.21,61.21,0,0,1,61.44,0Z"/><path class="cls-2" d="M61.44,8.74a52.7,52.7,0,0,1,52.7,52.7c0,.31,0,.61,0,.92a50.86,50.86,0,1,0-51.76,51.76h-.92a52.7,52.7,0,0,1,0-105.39Z"/><path class="cls-3" d="M63.28,12.41A50.86,50.86,0,1,1,12.42,63.27,50.86,50.86,0,0,1,63.28,12.41Z"/><path class="cls-4" d="M85.25,50.76c-1-7.8-7.37-10-15.6-10.63l-.13-6.9-6.37,0,.26,6.68L58.19,40l-.09-6.73-6.54.07.35,7-4.08.15L39,40.65l.29,6.67,4.48-.08c2.64,0,3.63,1.66,3.61,3l.33,11.73.57,0-.57,0,.32,16.6a2.14,2.14,0,0,1-2.42,2.15l-4.48.07L40,88.38l12.69-.21.4,7.2,6.15-.15-.13-6.89L64,88.16l.3,6.85,6.37,0-.17-7.07c10.66-.8,18.12-3.74,18.83-13.68.48-8-3.26-11.5-9.44-12.84,3.62-1.91,5.89-5.33,5.4-10.64ZM76.84,73.27c0,7.68-13.4,7.34-17.71,7.37l-.19-14c4.31,0,17.77-1.58,17.9,6.64ZM73.26,53.6c.26,7.25-10.78,6.64-14.51,6.7l-.22-12.69c3.74-.06,14.83-1.35,14.73,6Z"/><path class="cls-1" d="M83,47.79c-1-7.8-7.37-10-15.6-10.63l-.13-6.9-6.37,0L61.14,37l-5.23.09-.08-6.73-6.54.07.35,7-4.09.15-8.78.11.29,6.67,4.48-.08c2.63,0,3.63,1.66,3.61,3L45.48,59l.57,0-.57,0,.32,16.6a2.14,2.14,0,0,1-2.43,2.15l-4.48.07-1.14,7.62,12.69-.21.4,7.2L57,92.25l-.13-6.89,4.83-.17L62,92l6.37,0L68.19,85c10.66-.8,18.12-3.74,18.83-13.68.48-8-3.27-11.5-9.44-12.84,3.62-1.91,5.89-5.33,5.4-10.64ZM74.57,70.3c0,7.69-13.4,7.34-17.71,7.37l-.19-14c4.3,0,17.77-1.58,17.9,6.64ZM71,50.63c.26,7.25-10.78,6.64-14.52,6.7l-.21-12.69c3.73-.06,14.83-1.35,14.73,6Z"/></svg>