<svg id="Layer_1" data-name="Layer 1" xmlns="http://www.w3.org/2000/svg" viewBox="0 0 122.88 122.88"><defs><style>.cls-1{fill:#fecb00;}.cls-2{fill:#d08b00;}.cls-2,.cls-3{fill-rule:evenodd;}.cls-3{fill:#db9300;}.cls-4{fill:#b17600;}</style></defs><title>euro-coin-color</title><path class="cls-1" d="M61.44,0A61.46,61.46,0,1,1,18,18,61.21,61.21,0,0,1,61.44,0Z"/><path class="cls-2" d="M61.44,8.74a52.69,52.69,0,0,1,52.7,52.7c0,.31,0,.61,0,.92a50.86,50.86,0,1,0-51.77,51.77h-.92a52.7,52.7,0,0,1,0-105.4Z"/><path class="cls-3" d="M63.28,12.41A50.87,50.87,0,1,1,12.41,63.28,50.87,50.87,0,0,1,63.28,12.41Z"/><path class="cls-4" d="M75.46,66.07l-1.65,7H62.33c1.48,4.79,4.72,7.18,9.67,7.18a24.87,24.87,0,0,0,15.28-5.37V89.29A24.4,24.4,0,0,1,73,93.39q-13.48,0-20-6.28a26,26,0,0,1-7.89-14H38.35l1.79-7h4.18a18.14,18.14,0,0,1-.08-2c0-1,0-1.76.08-2.22h-5l1.79-7h4.12Q50.1,35,72.18,35A30.93,30.93,0,0,1,86.81,38.9l-3.4,14q-5.16-4.82-10.75-4.82-7.34,0-9.92,6.72H76.39l-1.65,7H61.43A21,21,0,0,0,61.35,64v2Z"/><path class="cls-1" d="M72.82,63.68l-1.65,6.88H59.69c1.48,4.7,4.72,7,9.67,7a25.16,25.16,0,0,0,15.27-5.27V86.43a24.67,24.67,0,0,1-14.24,4q-13.48,0-20-6.15a25.48,25.48,0,0,1-7.9-13.74H35.71l1.79-6.88h4.18a17.54,17.54,0,0,1-.08-2,21.69,21.69,0,0,1,.08-2.18h-5l1.79-6.89h4.11q4.92-19.43,27-19.43a31.44,31.44,0,0,1,14.63,3.87l-3.41,13.7Q75.61,46,70,46c-4.89,0-8.21,2.19-9.92,6.58H73.75L72.09,59.5H58.78c-.05.5-.07,1.22-.07,2.18v2Z"/></svg>