<svg id="Layer_1" data-name="Layer 1" xmlns="http://www.w3.org/2000/svg" viewBox="0 0 122.88 122.88"><defs><style>.cls-1{fill:#fecb00;}.cls-2{fill:#d08b00;}.cls-2,.cls-3{fill-rule:evenodd;}.cls-3{fill:#db9300;}.cls-4{fill:#b17600;}</style></defs><title>russian-rouble-coin-color</title><path class="cls-1" d="M61.44,0A61.46,61.46,0,1,1,18,18,61.21,61.21,0,0,1,61.44,0Z"/><path class="cls-2" d="M61.44,8.74a52.69,52.69,0,0,1,52.7,52.7c0,.31,0,.61,0,.92a50.86,50.86,0,1,0-51.77,51.77h-.92a52.7,52.7,0,0,1,0-105.4Z"/><path class="cls-3" d="M63.28,12.41A50.87,50.87,0,1,1,12.41,63.28,50.87,50.87,0,0,1,63.28,12.41Z"/><path class="cls-4" d="M72.36,75.23v9.24h-11v8H45.83v-8h-6.2V75.23h6.2v-5h-6.2V61h6.2V35.9H70.09q9.3,0,14.31,4.23c3.33,2.82,5,7,5,12.54q0,8.56-5.39,13.07T68.2,70.25H61.4v5ZM61.4,61h4.19a12.22,12.22,0,0,0,4.26-.66,7.44,7.44,0,0,0,2.75-1.75,6.35,6.35,0,0,0,1.49-2.52,9.28,9.28,0,0,0,.45-2.92,8.94,8.94,0,0,0-.37-2.58,5.88,5.88,0,0,0-1.3-2.37,6.6,6.6,0,0,0-2.53-1.71,11,11,0,0,0-4.06-.66H61.4V61Z"/><path class="cls-1" d="M69.72,72.65v9.06h-11v7.82H43.19V81.71H37V72.65h6.21V67.78H37V58.72h6.21V34.11H67.45q9.28,0,14.31,4.14c3.32,2.76,5,6.85,5,12.3S85,60.41,81.37,63.35s-8.86,4.43-15.81,4.43h-6.8v4.87Zm-11-13.93H63a12.49,12.49,0,0,0,4.26-.64A7.27,7.27,0,0,0,70,56.36a6.15,6.15,0,0,0,1.5-2.46A9,9,0,0,0,71.9,51a8.57,8.57,0,0,0-.37-2.53,5.77,5.77,0,0,0-1.31-2.32,6.34,6.34,0,0,0-2.52-1.68,11,11,0,0,0-4.07-.65H58.76V58.72Z"/></svg>