<svg id="Layer_1" data-name="Layer 1" xmlns="http://www.w3.org/2000/svg" viewBox="0 0 122.88 122.88"><defs><style>.cls-1{fill:#fecb00;}.cls-2{fill:#d08b00;}.cls-2,.cls-3{fill-rule:evenodd;}.cls-3{fill:#db9300;}.cls-4{fill:#b17600;}</style></defs><title>south-korean-won-coin-color</title><path class="cls-1" d="M61.44,0A61.46,61.46,0,1,1,18,18,61.21,61.21,0,0,1,61.44,0Z"/><path class="cls-2" d="M61.44,8.74a52.69,52.69,0,0,1,52.7,52.7c0,.31,0,.61,0,.92a50.86,50.86,0,1,0-51.77,51.77h-.92a52.7,52.7,0,0,1,0-105.4Z"/><path class="cls-3" d="M63.28,12.41A50.87,50.87,0,1,1,12.41,63.28,50.87,50.87,0,0,1,63.28,12.41Z"/><path class="cls-4" d="M103.3,66.36H90.82L85.61,91.65H72.16L66.34,66.36h-2.8L57.88,91.65H44.42L39.2,66.36H25.9V58.64H37.54l-.91-4.39H25.9V46.54h9.15l-2-9.95H45.86l1.82,9.95h9.67l2.12-9.95h11l2.19,9.95h9.75l1.74-9.95H97l-2,9.95h8.32v7.71h-10l-.92,4.39H103.3v7.72Zm-24.49,0H76.92L78,71.13l.83-4.77ZM53,66.36H51.22l.83,4.77,1-4.77Zm-3.25-7.72h4.9l1-4.39H49l.76,4.39Zm25.46,0h4.92L81,54.25H74.27l1,4.39Z"/><path class="cls-1" d="M100.65,64.08H88.18L83,88.87H69.52L63.7,64.08H60.9L55.24,88.87H41.78L36.56,64.08H23.26V56.52H34.89L34,52.21H23.26V44.66H32.4l-2-9.76H43.21L45,44.66h9.68l2.11-9.76H67.77L70,44.66h9.75l1.74-9.76H94.38l-2,9.76h8.32v7.55h-10l-.91,4.31h10.88v7.56Zm-24.48,0H74.28l1,4.68.84-4.68Zm-25.77,0H48.58l.83,4.68,1-4.68Zm-3.25-7.56h4.9l1-4.31H46.39l.76,4.31Zm25.46,0h4.92l.83-4.31H71.63l1,4.31Z"/></svg>