<svg id="Layer_1" data-name="Layer 1" xmlns="http://www.w3.org/2000/svg" viewBox="0 0 122.88 122.88"><defs><style>.cls-1{fill:#fecb00;}.cls-2{fill:#d08b00;}.cls-2,.cls-3{fill-rule:evenodd;}.cls-3{fill:#db9300;}.cls-4{fill:#b17600;}</style></defs><title>turkish-lira-coin-color</title><path class="cls-1" d="M61.44,0A61.46,61.46,0,1,1,18,18,61.21,61.21,0,0,1,61.44,0Z"/><path class="cls-2" d="M61.44,8.74a52.69,52.69,0,0,1,52.7,52.7c0,.31,0,.61,0,.92a50.86,50.86,0,1,0-51.77,51.77h-.92a52.7,52.7,0,0,1,0-105.4Z"/><path class="cls-3" d="M63.28,12.41A50.87,50.87,0,1,1,12.41,63.28,50.87,50.87,0,0,1,63.28,12.41Z"/><path class="cls-4" d="M38.21,71.76V64.17l5.88-2.72V56.32L38.21,59V51.46l5.88-2.72V35.9H59.57v5.69l8.2-3.79v7.58l-8.2,3.79V54.3l8.2-3.79v7.58l-8.2,3.79V79.34a13.51,13.51,0,0,0,6-1.2A10,10,0,0,0,69.5,74.8a14.28,14.28,0,0,0,2.12-5.09,30.37,30.37,0,0,0,.64-6.4H87.89a39.07,39.07,0,0,1-1.74,12,24.16,24.16,0,0,1-5.26,9.17,23.33,23.33,0,0,1-8.82,5.86,34.45,34.45,0,0,1-12.51,2.06H44.09V69l-5.88,2.73Z"/><path class="cls-1" d="M35.56,69.25V61.82l5.89-2.67v-5l-5.89,2.67V49.36l5.89-2.67V34.11H56.93v5.57L65.13,36V43.4l-8.2,3.71v5l8.2-3.71v7.43l-8.2,3.71V76.68a13.87,13.87,0,0,0,6-1.17,10,10,0,0,0,3.91-3.28,13.61,13.61,0,0,0,2.11-5A28.64,28.64,0,0,0,69.62,61H85.25a37.6,37.6,0,0,1-1.74,11.8A22.74,22.74,0,0,1,69.43,87.5a34.93,34.93,0,0,1-12.52,2H41.45v-23l-5.89,2.67Z"/></svg>