<svg id="Layer_1" data-name="Layer 1" xmlns="http://www.w3.org/2000/svg" viewBox="0 0 122.88 122.88"><defs><style>.cls-1{fill:#fecb00;}.cls-2{fill:#d08b00;}.cls-2,.cls-3{fill-rule:evenodd;}.cls-3{fill:#db9300;}.cls-4{fill:#b17600;}</style></defs><title>yen-coin-color</title><path class="cls-1" d="M61.44,0A61.46,61.46,0,1,1,18,18,61.21,61.21,0,0,1,61.44,0Z"/><path class="cls-2" d="M61.44,8.74a52.69,52.69,0,0,1,52.7,52.7c0,.31,0,.61,0,.92a50.86,50.86,0,1,0-51.77,51.77h-.92a52.7,52.7,0,0,1,0-105.4Z"/><path class="cls-3" d="M63.28,12.41A50.87,50.87,0,1,1,12.41,63.28,50.87,50.87,0,0,1,63.28,12.41Z"/><polygon class="cls-4" points="37.59 35.9 54.85 35.9 63.55 55.07 72.06 35.9 89.36 35.9 76.17 60.3 87.43 60.3 87.43 68.83 71.49 68.83 71.49 73.49 87.43 73.49 87.43 82.1 71.49 82.1 71.49 92.44 55.78 92.44 55.78 82.1 39.6 82.1 39.6 73.49 55.78 73.49 55.78 68.83 39.6 68.83 39.6 60.3 51.17 60.3 37.59 35.9 37.59 35.9"/><polygon class="cls-1" points="34.95 34.11 52.2 34.11 60.91 52.89 69.41 34.11 86.72 34.11 73.53 58.03 84.79 58.03 84.79 66.39 68.84 66.39 68.84 70.95 84.79 70.95 84.79 79.39 68.84 79.39 68.84 89.53 53.13 89.53 53.13 79.39 36.96 79.39 36.96 70.95 53.13 70.95 53.13 66.39 36.96 66.39 36.96 58.03 48.53 58.03 34.95 34.11 34.95 34.11"/></svg>