<svg id="Layer_1" data-name="Layer 1" xmlns="http://www.w3.org/2000/svg" viewBox="0 0 122.88 122.88"><defs><style>.cls-1{fill:#fecb00;}.cls-2{fill:#d08b00;}.cls-2,.cls-3{fill-rule:evenodd;}.cls-3{fill:#db9300;}.cls-4{fill:#b17600;}</style></defs><title>yuan-coin-color</title><path class="cls-1" d="M61.44,0A61.46,61.46,0,1,1,18,18,61.21,61.21,0,0,1,61.44,0Z"/><path class="cls-2" d="M61.44,8.74a52.69,52.69,0,0,1,52.7,52.7c0,.31,0,.61,0,.92a50.86,50.86,0,1,0-51.77,51.77h-.92a52.7,52.7,0,0,1,0-105.4Z"/><path class="cls-3" d="M63.28,12.41A50.87,50.87,0,1,1,12.41,63.28,50.87,50.87,0,0,1,63.28,12.41Z"/><polygon class="cls-4" points="38.71 35.9 55.97 35.9 64.68 55.07 73.18 35.9 90.49 35.9 77.29 60.3 72.61 68.83 72.61 73.49 88.55 73.49 88.55 82.1 72.61 82.1 72.61 92.44 56.9 92.44 56.9 82.1 40.72 82.1 40.72 73.49 56.9 73.49 56.9 68.83 52.29 60.3 38.71 35.9 38.71 35.9"/><polygon class="cls-1" points="36.07 34.11 53.33 34.11 62.03 52.89 70.53 34.11 87.84 34.11 74.65 58.03 69.97 66.39 69.97 70.95 85.91 70.95 85.91 79.39 69.97 79.39 69.97 89.53 54.26 89.53 54.26 79.39 38.08 79.39 38.08 70.95 54.26 70.95 54.26 66.39 49.65 58.03 36.07 34.11 36.07 34.11"/></svg>